<svg width="24" height="24" viewBox="0 0 24 24" fill="none" xmlns="http://www.w3.org/2000/svg">
    <path opacity="0.4"
        d="M12 2C6.47715 2 2 6.47715 2 12C2 17.5228 6.47715 22 12 22C17.5228 22 22 17.5228 22 12C22 6.47715 17.5228 2 12 2Z"
        fill="#88B388" />
    <path
        d="M8.46997 9.98996C8.65997 9.98996 8.84997 10.06 8.99997 10.21L12 13.21L15 10.21C15.29 9.91996 15.77 9.91996 16.06 10.21C16.35 10.5 16.35 10.98 16.06 11.27L12.53 14.8C12.24 15.09 11.76 15.09 11.47 14.8L7.93997 11.27C7.64997 10.98 7.64997 10.5 7.93997 10.21C8.08997 10.06 8.27997 9.98996 8.46997 9.98996Z"
        fill="#88B388" />
</svg>
