<svg width="24" height="24" viewBox="0 0 24 24" fill="none" xmlns="http://www.w3.org/2000/svg">
<path opacity="0.4" d="M12 2C6.47715 2 2 6.47715 2 12C2 17.5228 6.47715 22 12 22C17.5228 22 22 17.5228 22 12C22 6.47715 17.5228 2 12 2Z" fill="#73A8AE"/>
<path d="M8.46984 9.99008C8.65984 9.99008 8.84984 10.0601 8.99984 10.2101L11.9998 13.2101L14.9998 10.2101C15.2898 9.92008 15.7698 9.92008 16.0598 10.2101C16.3498 10.5001 16.3498 10.9801 16.0598 11.2701L12.5298 14.8001C12.2398 15.0901 11.7598 15.0901 11.4698 14.8001L7.93984 11.2701C7.64984 10.9801 7.64984 10.5001 7.93984 10.2101C8.08984 10.0601 8.27984 9.99008 8.46984 9.99008Z" fill="#73A8AE"/>
</svg>
