<svg width="24" height="24" viewBox="0 0 24 24" fill="none" xmlns="http://www.w3.org/2000/svg">
    <path opacity="0.4"
        d="M12 22C17.5228 22 22 17.5228 22 12C22 6.47715 17.5228 2 12 2C6.47715 2 2 6.47715 2 12C2 17.5228 6.47715 22 12 22Z"
        fill="#155D5A" />
    <path
        d="M15.53 14.01C15.34 14.01 15.15 13.94 15 13.79L12 10.79L9.00003 13.79C8.71003 14.08 8.23003 14.08 7.94003 13.79C7.65003 13.5 7.65003 13.02 7.94003 12.73L11.47 9.20004C11.76 8.91004 12.24 8.91004 12.53 9.20004L16.06 12.73C16.35 13.02 16.35 13.5 16.06 13.79C15.91 13.94 15.72 14.01 15.53 14.01Z"
        fill="#155D5A" />
</svg>
