<svg width="999" height="304" viewBox="0 0 999 304" fill="none" xmlns="http://www.w3.org/2000/svg">
<g clip-path="url(#clip0_2_11093)">
<path opacity="0.5" d="M960.409 211.44H938.5C936.187 211.44 934.313 213.317 934.313 215.631V293.451C934.313 295.766 936.187 297.643 938.5 297.643H960.409C962.721 297.643 964.596 295.766 964.596 293.451V215.631C964.596 213.317 962.721 211.44 960.409 211.44Z" fill="#A3C6A9"/>
<path opacity="0.5" d="M890.62 161.737H873.7V154.594H846.193V161.737H838.046V297.643H918.127V201.277V161.737V154.594H890.62V161.737Z" fill="#A3C6A9"/>
<path d="M61.4511 198.012H21.9131V280.217H61.4511V198.012Z" fill="#A3C6A9"/>
<path d="M992.627 196.238H991.321V194.916H988.91V176.232H986.499V194.916H959.791V300.873H991.321V220.028H992.627V196.238Z" fill="#A3C6A9"/>
<path d="M178.656 138.706H148.372V300.379H178.656V138.706Z" fill="#A3C6A9"/>
<path d="M384.704 130.832H323.291V300.379H384.704V130.832Z" fill="#A3C6A9"/>
<path d="M449.49 176.232H388.076V301.998H449.49V176.232Z" fill="#A3C6A9"/>
<path d="M578.573 85.4897H543.558V301.997H578.573V85.4897Z" fill="#A3C6A9"/>
<path d="M802.696 141.95H781.411V178.877H768.455V301.997H789.74V265.07H802.696V141.95Z" fill="#A3C6A9"/>
<path d="M933.716 235.487L933.857 226.152L922.704 224.157V210.797H920.712V223.759L910.954 226.152V235.487H907.582V252.737H866.065V300.143H907.582V301.565H938.81V235.487H933.716Z" fill="#666666"/>
<path d="M592.38 271.823V167.887H590.707V153.661H584.155V145.309H569.592V127.083H568.089V145.309H564.664V165.463H563.382V167.887H557.811L555.657 271.823H537.972V301.989H599.915V271.823H592.38Z" fill="#A3C6A9"/>
<path d="M524.04 114.53L524.081 114.166H523.915V114.258L523.977 114.358C524.005 114.404 524.026 114.478 524.041 114.528L524.04 114.53Z" fill="#73A8AE"/>
<path d="M149.272 190.641V175.825H146.078V157.832H135.788V147.78H131.53V122.909H128.691V147.78H125.495V157.832H122.303V301.766H142.883V302.297H147.853V302.83H151.401V190.641H149.272Z" fill="#666666"/>
<path d="M73.6829 226.095V221.832H69.07V220.054H66.5858V221.832H65.1667V220.054H63.0366V221.832H61.2633V220.054H58.7791V221.832H57.36V220.054H54.8771V221.832H53.4567V226.095H52.7471V303.895H93.5551V226.095H73.6829Z" fill="#A3C6A9"/>
<path d="M957.774 243.484H924.116V301.856H957.774V243.484Z" fill="#666666"/>
<path d="M248.216 270.049V269.998H244.481L244.478 241.714V124.299H244.39L244.358 124.268C244.346 124.219 244.329 124.17 244.302 124.124L244.039 123.675H244.165V122.74H243.493L242.709 121.399C242.616 121.236 242.444 121.135 242.255 121.135L217.365 121.146V117.747C217.655 117.744 217.891 117.57 217.891 117.279C217.891 116.989 217.655 116.817 217.365 116.814V116.189C217.655 116.184 217.891 115.856 217.891 115.563C217.891 115.269 217.655 114.945 217.365 114.94V87.0917C217.365 86.7958 217.036 86.5599 216.743 86.5599C216.45 86.5599 216.119 86.7958 216.119 87.0917V113.379H215.404C215.11 113.379 214.873 113.618 214.873 113.909V121.144H212.587C212.295 121.144 212.066 121.385 212.066 121.679V265.94H190.473C190.177 265.94 189.942 266.176 189.942 266.47V287.467H185.797C185.505 287.467 185.268 287.705 185.268 287.999V299.007H185.316C185.398 299.193 185.582 299.325 185.797 299.325H243.955C244.095 299.325 244.23 299.242 244.33 299.141C244.366 299.105 244.389 299.055 244.413 299.007H247.998C248.291 299.007 248.529 298.773 248.529 298.478V270.527C248.529 270.313 248.4 270.13 248.218 270.046L248.216 270.049Z" fill="#73A8AE"/>
<path d="M446.466 204.676C446.446 204.556 446.395 204.451 446.325 204.362V200.892C446.325 200.502 446.008 200.183 445.616 200.183H445.369C445.398 197.766 445.02 191.451 440.78 185.68C440.29 185.01 439.294 183.819 438.14 182.779H438.165V182.064H437.284C437.222 182.017 437.161 181.971 437.1 181.926V179.934H437.457V179.223H437.1V167.144H437.457V166.435H437.1V165.368H436.416L436.402 147.977L436.038 147.961V139.079H433.909V147.961L433.584 147.982L433.611 165.368H432.844V166.435H432.488V167.144H432.844V179.223H432.488V179.934H432.844V181.276C431.064 182.239 429.02 184.386 428.069 185.681C423.816 191.47 423.462 197.806 423.5 200.209C423.167 200.266 422.906 200.544 422.906 200.894V204.803C422.906 204.896 422.926 204.984 422.959 205.065C422.968 205.091 422.986 205.109 422.998 205.133C423.027 205.187 423.058 205.237 423.099 205.281C423.119 205.302 423.143 205.32 423.165 205.338C423.209 205.374 423.253 205.406 423.305 205.432C423.334 205.446 423.364 205.456 423.394 205.466C423.421 205.476 423.445 205.492 423.474 205.497C424.64 206.086 429.494 210.951 429.074 223.567C429.046 224.397 429.01 225.37 428.966 226.471H427.875C427.485 226.471 427.166 226.788 427.166 227.183V229.67C427.166 230.063 427.484 230.381 427.875 230.381H428.799C428.24 242.893 427.013 266.134 425.252 297.491L425.154 299.261C425.142 299.454 425.213 299.646 425.347 299.79C425.482 299.931 425.668 300.01 425.863 300.01H443.385C443.581 300.01 443.767 299.928 443.903 299.79C444.036 299.643 444.105 299.45 444.093 299.255C443.989 297.525 441.513 251.654 440.587 230.381H442.426C442.818 230.381 443.135 230.064 443.135 229.67V227.183C443.135 226.789 442.818 226.471 442.426 226.471H440.423C440.38 225.391 440.343 224.413 440.315 223.567C439.886 210.651 445 205.874 446.022 205.464C446.343 205.344 446.532 205.013 446.47 204.676H446.466Z" fill="#73A8AE"/>
<path d="M960.483 146.395C960.439 146.386 959.316 146.136 957.601 146.136C956.158 146.136 954.369 146.312 952.47 146.907V122.265C952.47 121.815 952.107 121.451 951.657 121.451H949.067C948.621 121.451 948.257 121.815 948.257 122.265V148.951C947.785 149.275 947.317 149.634 946.856 150.031C946.61 150.248 946.368 150.48 946.133 150.739C945.919 150.977 945.707 151.238 945.505 151.512C945.501 151.52 945.496 151.525 945.49 151.53C945.272 151.831 945.06 152.153 944.859 152.496C944.653 152.15 944.44 151.822 944.216 151.517C944.014 151.238 943.798 150.978 943.582 150.739C943.355 150.484 943.11 150.248 942.858 150.031C941.274 148.663 939.597 147.76 937.972 147.169V122.265C937.972 121.815 937.609 121.451 937.159 121.451H934.574C934.122 121.451 933.76 121.815 933.76 122.265V146.232C933.148 146.174 932.567 146.151 932.035 146.151C930.267 146.151 929.102 146.406 929.051 146.419C928.683 146.5 928.42 146.831 928.42 147.211V298.842C928.42 299.293 928.783 299.654 929.234 299.654H944.472C944.641 299.654 944.794 299.605 944.92 299.521H945.492C945.622 299.605 945.776 299.654 945.942 299.654H960.301C960.752 299.654 961.114 299.291 961.114 298.842V147.191C961.114 146.81 960.853 146.479 960.482 146.395H960.483Z" fill="#73A8AE"/>
<path d="M901.243 230.855L898.84 218.825L901.077 213.097C901.145 212.943 901.145 212.779 901.097 212.626L899.087 206.209L900.088 199.42C900.094 199.385 900.1 199.35 900.1 199.318V181.419C900.1 181.026 899.784 180.707 899.393 180.707H866.98C866.587 180.707 866.273 181.027 866.273 181.419V199.506L864.998 206.265C864.979 206.378 864.984 206.49 865.01 206.593L866.747 212.546L864.517 218.244C864.461 218.381 864.456 218.53 864.493 218.673L867.531 230.841L865.398 237.868C865.38 237.933 865.369 238.005 865.369 238.076V301.942C865.369 302.133 865.445 302.309 865.578 302.443C865.714 302.577 865.888 302.65 866.079 302.65L876.407 302.591C876.496 302.63 876.591 302.65 876.684 302.65H876.87C876.87 302.65 876.877 302.65 876.879 302.65H876.882L887.217 302.593C887.297 302.629 887.389 302.65 887.49 302.65C887.591 302.65 887.688 302.629 887.775 302.589L899.39 302.523C899.779 302.522 900.097 302.202 900.096 301.813L899.839 237.885L901.239 231.133C901.257 231.041 901.257 230.948 901.239 230.853L901.243 230.855Z" fill="#A8B6C7" fill-opacity="0.56"/>
<path d="M722.508 166.497L717.919 160.441C717.874 160.379 717.821 160.325 717.759 160.287L711.876 156.358C711.765 156.283 711.645 156.236 711.501 156.244L709.511 156.262V156.015H709.722C710.091 156.015 710.391 155.716 710.391 155.349V152.257C710.391 151.885 710.091 151.589 709.722 151.589H707.608V148.232C707.608 147.862 707.309 147.561 706.94 147.561H705.79L705.784 146.794C706.035 146.696 706.209 146.454 706.209 146.171V128.782C706.209 128.45 705.969 128.173 705.654 128.121L705.565 108.487C705.729 108.366 705.835 108.168 705.835 107.95C705.835 107.908 705.831 107.867 705.822 107.826L705.438 90.5463C705.43 90.1811 705.133 89.8906 704.77 89.8906H702.197C701.832 89.8906 701.535 90.1811 701.528 90.5463L701.144 107.935C701.138 108.115 701.207 108.288 701.334 108.419C701.357 108.441 701.379 108.46 701.403 108.48L701.27 128.131C700.976 128.2 700.756 128.462 700.756 128.781V146.17C700.756 146.411 700.883 146.62 701.073 146.738L701.064 147.56H700.276C699.905 147.56 699.609 147.86 699.609 148.23V151.588H697.243C696.873 151.588 696.573 151.885 696.573 152.255V155.347C696.573 155.715 696.873 156.014 697.243 156.014H697.453V156.26L695.749 156.242C695.617 156.243 695.483 156.28 695.371 156.355L689.487 160.284C689.423 160.323 689.371 160.376 689.326 160.439L684.738 166.495C684.584 166.7 684.558 166.976 684.677 167.204L687.852 173.373C687.9 173.468 687.968 173.546 688.052 173.608L693.699 177.758C693.812 177.842 693.952 177.891 694.094 177.891H695.423V179.844C695.423 180.213 695.721 180.511 696.091 180.511H696.335V184.35C696.335 184.636 696.513 184.878 696.765 184.978V188.246H696.688C696.592 188.246 696.503 188.267 696.42 188.304H693.759C693.534 188.304 693.337 188.419 693.214 188.583C693.076 188.705 692.988 188.885 692.988 189.084V192.742C692.988 192.902 693.043 193.049 693.139 193.166C693.24 193.41 693.478 193.583 693.759 193.583H696.765V200.115C696.765 200.238 696.796 200.351 696.853 200.45V296.919C696.853 297.291 697.154 297.591 697.522 297.591H710.453C710.823 297.591 711.122 297.291 711.122 296.919V193.583H714.218C714.586 193.583 714.885 193.282 714.885 192.914V188.977C714.885 188.604 714.586 188.304 714.218 188.304H712.587C712.505 188.267 712.414 188.246 712.317 188.246H711.122V184.958C711.353 184.852 711.513 184.623 711.513 184.35V180.511H711.759C712.128 180.511 712.426 180.212 712.426 179.844V177.891H713.154C713.296 177.891 713.435 177.842 713.549 177.758L719.196 173.608C719.28 173.546 719.348 173.469 719.394 173.373L722.571 167.204C722.688 166.974 722.667 166.7 722.509 166.495L722.508 166.497Z" fill="#73A8AE"/>
<path d="M774.857 115.645C775.074 115.552 775.226 115.339 775.226 115.088C775.226 114.824 775.058 114.606 774.823 114.522L774.811 114.114L775.928 70.8425C775.928 70.8038 775.928 70.7638 775.925 70.7239L770.081 13.2558C770.03 12.7907 769.643 12.4375 769.17 12.4348L763.312 12.4188C763.271 12.4068 763.198 12.4255 763.149 12.4348H751.259C750.845 12.4348 750.475 12.716 750.379 13.1212L746.286 29.1972H746.043L740.931 13.4371C740.805 13.0625 740.461 12.8067 740.063 12.8067H734.469C733.985 12.8067 733.585 13.1865 733.557 13.669L727.957 114.162V114.259L727.988 114.889C727.953 114.991 727.935 115.097 727.959 115.209L728.016 115.48L730.194 160.161L728.333 204.58C728.33 204.601 728.33 204.629 728.333 204.655L731.962 298.008L731.823 299.005C731.787 299.271 731.866 299.533 732.039 299.73C732.213 299.928 732.462 300.046 732.722 300.046H773.651C774.142 300.046 774.547 299.65 774.56 299.158L775.926 247.705L776.175 159.816V159.386L774.856 115.641L774.857 115.645Z" fill="#73A8AE"/>
<path d="M295.982 295.164C295.855 295.028 295.678 294.94 295.479 294.94H294.583C294.567 294.856 294.533 294.78 294.487 294.705C294.404 294.579 292.415 291.569 287.68 289.815L287.665 289.849C287.239 289.633 286.398 289.357 284.728 288.95C284.293 288.845 283.975 288.466 283.947 288.02L282.492 263.638V263.122C282.492 263.078 282.476 263.038 282.455 263.004L272.532 96.7877C272.526 96.6731 272.491 96.5598 272.427 96.4585L270.599 93.5704C270.513 93.4331 270.46 93.2745 270.445 93.1145C270.217 90.5889 269.979 88.4245 269.731 86.6559C269.725 86.6106 269.722 86.5666 269.722 86.52V58.0065C269.722 57.6853 269.502 57.4067 269.191 57.3294C268.875 57.2575 268.559 57.4041 268.411 57.6893C267.925 58.6369 266.495 58.2984 266.487 57.2322L266.022 0.687713C266.018 0.314536 265.719 0.00932945 265.346 0H265.329C264.963 0 264.658 0.28788 264.637 0.65706L260.645 73.2975L260.572 73.4494C260.528 73.544 260.504 73.6466 260.504 73.7519V75.8391C260.504 75.8577 260.504 75.8764 260.503 75.8951L258.699 108.724C258.694 108.744 258.686 108.765 258.686 108.788C258.686 108.801 258.691 108.812 258.694 108.824L258.658 109.474C258.628 110.014 258.181 110.438 257.641 110.438H256.171C255.862 110.438 255.59 110.642 255.505 110.939C255.42 111.238 255.544 111.556 255.805 111.719C255.815 111.723 256.907 112.408 257.525 112.953C257.725 113.13 257.872 113.274 257.98 113.39C258.171 113.594 258.26 113.87 258.24 114.147L250.144 225.126C250.14 225.142 250.135 225.157 250.135 225.173V225.258L247.454 262.016C247.399 262.057 247.363 262.12 247.363 262.196V263.226C247.363 263.252 247.363 263.276 247.36 263.301L245.581 287.705C245.549 288.147 245.232 288.518 244.802 288.621C243.284 288.986 242.244 289.343 241.613 289.593C241.596 289.599 241.58 289.605 241.561 289.61C236.176 291.267 233.672 294.523 233.571 294.661C233.507 294.745 233.464 294.838 233.446 294.938H232.024C231.819 294.938 231.641 295.032 231.514 295.173C231.325 295.27 231.183 295.424 231.183 295.634V298.186C231.183 298.396 231.321 298.544 231.506 298.637C231.633 298.785 231.814 298.882 232.024 298.882H295.481C295.686 298.882 295.865 298.789 295.992 298.646C296.2 298.554 296.36 298.402 296.36 298.185V295.633C296.36 295.414 296.195 295.257 295.984 295.161L295.982 295.164Z" fill="#73A8AE"/>
<path d="M864.681 241.521C864.566 241.161 864.235 240.921 863.86 240.921H860.888V238.125H862.88C863.308 238.125 863.67 237.812 863.733 237.385C863.796 236.965 863.537 236.561 863.13 236.434L835.576 228.102C835.555 228.084 835.531 228.066 835.508 228.045C835.318 227.901 835.077 227.849 834.845 227.886C834.615 227.849 834.374 227.901 834.181 228.045C834.158 228.066 834.136 228.082 834.113 228.102L806.561 236.434C806.152 236.561 805.896 236.964 805.958 237.385C806.02 237.81 806.384 238.125 806.812 238.125H809.599V240.921H804.873C804.492 240.921 804.156 241.166 804.046 241.531C804.003 241.673 803.046 245.015 807.374 247.526C809.355 248.678 813.129 250.484 816.778 252.232C820.12 253.833 823.276 255.346 824.377 256.035C826.32 257.252 826.32 260.278 826.32 266.912V300.851C826.32 301.329 826.706 301.717 827.182 301.717H841.548C842.025 301.717 842.411 301.329 842.411 300.851V266.912C842.411 261.754 842.411 258.644 843.384 257.02C843.635 256.608 843.943 256.292 844.355 256.035C845.733 255.176 849.983 253.107 854.092 251.11C856.877 249.76 859.505 248.486 861.317 247.546C864.909 245.696 865.086 242.796 864.678 241.521H864.681Z" fill="#73A8AE"/>
<path d="M190.784 208.937H190.714V192.557H189.28V193.705H185.266V192.557H183.259V193.705H179.531V192.557H177.525V193.705H173.51V192.557H171.502V193.705H167.777V192.557H165.482V193.705H162.041V192.557H159.748V193.705H156.02V192.557H154.014V197.438H152.329L148.332 171.555C148.282 171.219 147.993 171.029 147.653 171.029H117.537C117.196 171.029 116.907 171.261 116.857 171.597L112.928 197.962C112.905 198.112 112.944 198.255 113.01 198.383V298.758C113.01 299.139 113.337 299.628 113.717 299.628H160.506C160.711 299.628 160.89 299.485 161.013 299.293H190.786C191.165 299.293 191.474 298.983 191.474 298.602V209.626C191.474 209.246 191.166 208.937 190.786 208.937H190.784ZM135.146 176.42C135.248 176.42 135.348 176.431 135.451 176.435C136.225 176.569 136.966 176.901 137.638 177.398L137.702 177.81L138.041 177.759L138.035 177.721C139.732 179.199 140.902 181.718 140.902 184.455C140.902 186.157 140.4 187.946 139.53 189.397L139.514 189.4L139.516 189.418C138.462 191.166 136.872 192.42 134.962 192.42C134.878 192.42 134.801 192.44 134.726 192.468C130.276 192.257 126.72 188.749 126.72 184.456C126.72 180.164 130.501 176.42 135.146 176.42ZM189.279 195.714V208.936H185.265V195.714H189.279ZM183.259 195.714V208.936H179.531V195.714H183.259ZM177.523 195.714V208.936H173.508V195.714H177.523ZM171.501 195.714V208.936H167.776V195.714H171.501ZM165.481 195.714V208.936H162.039V195.714H165.481ZM156.019 195.714H159.747V197.436H156.019V195.714Z" fill="#A8B6C7" fill-opacity="0.56"/>
<path d="M93.47 264.795H12.0256V301.856H93.47V264.795Z" fill="#666666"/>
<path d="M421.532 204.74H415.453V197.97C415.453 196.425 414.392 195.508 412.615 195.508H380.633C378.948 195.508 378.193 196.947 378.193 197.97V204.74H373.628C371.881 204.74 371.097 205.978 371.097 206.854V225.682C371.097 226.608 372.17 227.476 373.004 227.476H375.71V299.571C375.71 300.383 376.462 301.368 377.397 301.368H416.92C417.74 301.368 418.294 300.648 418.294 299.571V227.476H421.534C422.356 227.476 422.907 226.756 422.907 225.682V206.854C422.907 205.836 422.477 204.74 421.534 204.74H421.532ZM378.193 224.637C378.098 224.637 378.012 224.664 377.927 224.69C377.841 224.664 377.755 224.637 377.66 224.637H378.192H378.193Z" fill="#73A8AE"/>
<path d="M126.927 299.924C125.535 295.12 120.552 271.246 120.502 271.002C120.461 270.802 120.29 270.658 120.088 270.642C120.065 270.533 120.053 270.474 120.053 270.474H119.616C119.616 270.474 119.395 269.65 119.015 267.996H117.766C117.694 267.663 117.617 267.254 117.536 266.821C117.456 266.392 117.369 265.943 117.281 265.516H118.461C118.3 264.692 118.123 263.865 117.938 263.034H116.756C116.749 263.004 116.744 262.976 116.737 262.945C116.586 262.205 116.423 261.41 116.258 260.559H117.44C117.288 259.732 117.131 258.903 116.965 258.078H115.781C115.776 258.047 115.77 258.019 115.764 257.988C115.616 257.227 115.468 256.425 115.316 255.598H116.5C116.357 254.77 116.211 253.946 116.058 253.119H114.874C114.869 253.092 114.865 253.065 114.86 253.039L114.699 252.1C114.617 251.626 114.534 251.142 114.448 250.638H115.633C115.496 249.811 115.36 248.984 115.219 248.159H114.033C114.029 248.135 114.025 248.11 114.021 248.086C113.893 247.305 113.767 246.503 113.636 245.679H114.824C114.695 244.853 114.567 244.028 114.436 243.197H113.25L113.24 243.129C113.148 242.531 113.057 241.923 112.963 241.302L112.879 240.722H114.061L113.696 238.241H112.519L112.16 235.762H113.346C113.232 234.935 113.118 234.11 113.005 233.281H111.816L111.807 233.216C111.73 232.651 111.655 232.078 111.578 231.501L111.488 230.804H112.672C112.565 229.976 112.457 229.15 112.35 228.322H111.164L111.05 227.443C110.984 226.915 110.915 226.38 110.849 225.843H112.036C111.934 225.014 111.834 224.192 111.73 223.363H110.542C110.54 223.344 110.537 223.326 110.536 223.307C110.467 222.737 110.4 222.167 110.332 221.588L110.251 220.884H111.438C111.343 220.06 111.244 219.23 111.149 218.405H109.963L109.849 217.411C109.793 216.918 109.738 216.422 109.685 215.929H110.873C110.83 215.516 110.79 215.182 110.749 214.812C110.698 214.355 110.65 213.859 110.605 213.448H109.416C109.415 213.434 109.412 213.416 109.411 213.402C109.33 212.589 109.252 211.777 109.179 210.967H110.369C110.295 210.143 110.228 209.318 110.167 208.488H108.978C108.978 208.477 108.977 208.466 108.975 208.454C108.914 207.633 108.856 206.819 108.808 206.005H109.999C109.946 205.181 109.901 204.356 109.858 203.53H108.668C108.668 203.521 108.668 203.511 108.667 203.502C108.625 202.68 108.589 201.863 108.556 201.051H109.746C109.717 200.223 109.692 199.397 109.668 198.569H108.476V198.557C108.456 197.752 108.444 196.958 108.432 196.169V196.089H109.621C109.609 195.263 109.605 194.438 109.601 193.609H108.41C108.404 192.776 108.41 191.945 108.422 191.134C108.422 191.132 108.422 191.131 108.422 191.128H109.612C109.618 190.305 109.629 189.477 109.648 188.649H108.456C108.472 187.818 108.496 186.997 108.522 186.184C108.522 186.18 108.522 186.176 108.522 186.172H109.712C109.737 185.344 109.77 184.518 109.808 183.693H108.617C108.651 182.868 108.689 182.048 108.735 181.234C108.735 181.226 108.735 181.218 108.736 181.21H109.926C109.966 180.384 110.017 179.559 110.07 178.731H108.881C108.933 177.907 108.99 177.089 109.051 176.284C109.051 176.273 109.053 176.264 109.054 176.253H110.244C110.307 175.428 110.372 174.597 110.443 173.774H109.254C109.324 172.951 109.402 172.132 109.476 171.337C109.477 171.322 109.479 171.307 109.48 171.293H110.669C110.747 170.469 110.833 169.641 110.921 168.811H109.733C109.822 167.99 109.911 167.182 110.009 166.391L110.013 166.353C110.013 166.353 110.014 166.343 110.015 166.337H111.204C111.304 165.512 111.402 164.681 111.509 163.856H110.321C110.432 162.996 110.54 162.182 110.649 161.437C110.652 161.417 110.654 161.397 110.657 161.375H111.843C111.958 160.552 112.081 159.724 112.201 158.9H111.016C111.142 158.067 111.269 157.262 111.392 156.496L111.397 156.461C111.4 156.448 111.402 156.433 111.404 156.419H112.589C112.627 156.004 112.663 155.99 112.696 155.774C112.804 155.163 112.907 154.352 113.011 153.939H111.828C111.975 153.09 112.123 152.295 112.262 151.553C112.269 151.52 112.274 151.49 112.281 151.457H113.461C113.631 150.631 113.795 149.806 113.948 148.979H112.77C112.953 148.073 113.124 147.293 113.273 146.619C113.276 146.61 113.277 146.603 113.28 146.594C113.297 146.564 113.311 146.531 113.322 146.5H114.474C114.494 146.5 114.519 146.296 114.538 146.198C114.745 145.241 114.902 144.598 114.989 144.272C115.03 144.103 115.05 144.021 115.05 144.021H106.371C106.367 143.732 106.365 143.439 106.364 143.142H106.417V142.836H106.362C106.362 142.791 106.362 142.746 106.362 142.701C106.366 142.435 106.371 142.169 106.375 141.901H106.418V141.593H106.382C106.387 141.282 106.394 140.972 106.401 140.66H106.419V140.355H106.407C106.535 134.239 106.764 127.775 106.904 124.107C106.997 122.294 107.065 121.163 107.068 121.124C107.081 120.932 106.971 120.754 106.796 120.676L93.0826 114.575C92.9547 114.519 92.8096 114.523 92.6858 114.584C92.5634 114.65 92.4741 114.766 92.4462 114.901C92.4395 114.933 92.3077 115.575 92.0854 116.799H91.9736V117.107H92.0308C91.7579 118.627 91.3678 120.919 90.9072 123.984L88.6174 123.191V122.946H88.3112V123.085L84.9018 121.904V121.708H84.5942V121.797L82.5201 121.079C82.3803 121.032 82.2245 121.054 82.1034 121.138C81.9823 121.227 81.9104 121.365 81.9104 121.511C81.9104 121.824 81.8039 150.164 82.5015 176.312H82.4788V176.617H82.5108C82.5188 176.929 82.5281 177.239 82.5361 177.551H82.4788V177.859H82.5441C82.5534 178.17 82.5614 178.48 82.5707 178.791H82.4788V179.099H82.58C82.5893 179.411 82.5986 179.721 82.608 180.032H82.4802V180.34H82.6173C82.6266 180.651 82.6359 180.962 82.6466 181.272H82.4802V181.58H82.6559C82.6838 182.463 82.7131 183.34 82.7424 184.21C82.8875 188.423 83.0806 192.968 83.3056 197.647V197.695H83.3082C83.3229 198.005 83.3388 198.315 83.3535 198.627H83.3056V198.934H83.3681C84.6475 225.026 86.8388 254.775 86.8641 255.132C86.8654 255.15 86.8747 255.164 86.8774 255.182L86.8841 255.616C86.896 256.454 86.9134 257.279 86.9333 258.1L86.936 258.199C86.952 258.995 86.9679 259.789 86.9879 260.582C86.9986 261.033 87.0119 261.483 87.0238 261.928L87.2542 268.985C87.2741 269.52 87.2941 270.062 87.3181 270.581C87.7294 280.643 88.3072 288.833 88.7239 293.978V299.418H89.0301V297.567C89.1646 299.059 89.2484 299.88 89.2511 299.91C89.2764 300.144 89.4708 300.323 89.7064 300.323L126.505 300.595H126.514C126.768 300.595 126.973 300.388 126.973 300.132C126.973 300.062 126.959 299.996 126.929 299.935L126.927 299.924ZM84.3493 200.167H84.3599C84.3772 200.476 84.3946 200.788 84.4132 201.099H84.3972C84.3812 200.788 84.3666 200.478 84.3506 200.167H84.3493ZM84.9364 209.777H84.9004V209.205C84.9124 209.395 84.9244 209.586 84.9364 209.777ZM85.0961 212.258H84.9963C84.979 211.948 84.9603 211.636 84.943 211.324H85.0349C85.0549 211.636 85.0748 211.946 85.0961 212.258ZM84.9004 210.086H84.9564C84.9763 210.396 84.9963 210.707 85.0163 211.017H84.9271C84.9177 210.861 84.9098 210.704 84.9004 210.548V210.086ZM85.0136 212.563H85.1161C85.1361 212.875 85.1574 213.186 85.1774 213.498H85.0669C85.0495 213.187 85.0309 212.875 85.0136 212.563ZM85.0842 213.803H85.1973C85.2173 214.115 85.2386 214.427 85.2599 214.739H85.1387C85.1201 214.427 85.1028 214.115 85.0842 213.803ZM85.1561 215.044H85.2799C85.3012 215.356 85.3211 215.666 85.3424 215.977H85.2106C85.192 215.666 85.1747 215.354 85.1561 215.044ZM84.4105 201.407H84.4292C84.4465 201.717 84.4651 202.029 84.4824 202.341H84.4585C84.4425 202.029 84.4265 201.719 84.4105 201.407ZM84.4744 202.648H84.5011C84.5197 202.958 84.537 203.27 84.5556 203.582H84.5224C84.5064 203.27 84.4904 202.959 84.4744 202.648ZM84.5383 203.884H84.5729C84.5796 203.992 84.5863 204.099 84.5916 204.207V204.82H84.5863C84.5703 204.508 84.553 204.196 84.537 203.884H84.5383ZM85.3624 216.286C85.5115 218.486 85.6633 220.675 85.815 222.832C85.8536 224.59 85.8949 226.294 85.9389 227.937C85.7032 224.219 85.4636 220.295 85.2279 216.286H85.3624ZM84.2628 198.44C84.2654 198.5 84.2694 198.559 84.2721 198.619C84.2694 198.559 84.2667 198.5 84.2628 198.44ZM84.2894 198.925C84.3067 199.237 84.324 199.549 84.3413 199.861H84.3333C84.3173 199.548 84.3027 199.237 84.2867 198.925H84.2894Z" fill="#73A8AE"/>
<path d="M84.3226 265.484V265.432H72.968V266.496H71.9762V246.3H71.903V246.248H69.492V235.999H69.4175V235.944H68.7079V246.248H58.4916V244.525H58.417V244.47H53.9732L53.9679 244.525H53.9093L53.8787 244.845C53.876 244.887 53.7043 246.517 52.9588 249.091H39.6858V245.236H39.6099V245.184H30.9379L30.9219 245.236H30.874L30.7795 245.44C30.7369 245.535 26.4541 254.908 26.4541 268.445C26.4541 279.919 28.4044 288.048 29.0128 290.3H27.5444V300.957H27.6176V301.009H82.6199V291.064H84.3945V265.485H84.3213L84.3226 265.484ZM70.4839 249.092H59.9121V247.723H70.4839V249.092ZM56.2444 249.092H53.7442C54.1063 248.081 54.33 246.822 54.4658 246.068L56.2444 249.092ZM57.7088 245.238V246.801C57.7088 246.841 57.7141 247.02 57.6968 247.321C57.6369 247.742 57.5397 248.342 57.388 249.092H57.1616L54.8931 245.238H57.7088Z" fill="#A8B6C7" fill-opacity="0.56"/>
<path d="M213.663 278.829V277.564C213.663 277.515 213.653 277.467 213.635 277.424C213.573 277.198 213.376 277.03 213.131 277.03C212.839 277.03 212.6 277.268 212.6 277.564C212.6 277.515 212.59 277.467 212.572 277.424C212.51 277.198 212.313 277.03 212.068 277.03C211.775 277.03 211.537 277.268 211.537 277.564C211.537 277.515 211.526 277.467 211.509 277.424C211.446 277.198 211.249 277.03 211.004 277.03C210.711 277.03 210.472 277.268 210.472 277.564C210.472 277.515 210.461 277.467 210.444 277.424C210.381 277.198 210.185 277.03 209.94 277.03C209.647 277.03 209.408 277.268 209.408 277.564C209.408 277.515 209.397 277.467 209.38 277.424C209.317 277.198 209.12 277.03 208.877 277.03C208.582 277.03 208.343 277.268 208.343 277.564V263.907C208.343 263.859 208.332 263.813 208.315 263.77C208.314 263.766 208.31 263.762 208.307 263.758C208.291 263.722 208.27 263.687 208.243 263.661L208.561 262.412C208.644 262.347 208.698 262.244 208.698 262.132V260.354C208.698 260.156 208.54 260.001 208.341 260.001H207.633V244.013C207.633 243.966 207.623 243.921 207.609 243.882L208.252 241.044C208.306 240.981 208.34 240.904 208.34 240.816C208.34 240.785 208.329 240.758 208.323 240.73L208.562 239.673C208.644 239.608 208.697 239.508 208.697 239.396V236.909C208.697 236.713 208.539 236.553 208.34 236.553H207.632V231.581C207.828 231.581 207.986 231.421 207.986 231.225V228.735C207.986 228.539 207.828 228.382 207.632 228.382H207.488L206.921 228.002V225.502C206.921 225.453 206.913 225.407 206.893 225.363C206.869 225.306 206.329 224.06 205.23 223.837C205.013 219.541 204.67 219.541 204.338 219.541C204.228 219.541 204.123 219.585 204.043 219.666C203.944 219.766 203.647 220.067 203.686 223.843C202.825 224.047 202.416 224.934 202.316 225.434C202.312 225.453 202.309 225.478 202.309 225.502V227.964L201.338 228.412C201.186 228.482 201.103 228.647 201.139 228.813C201.155 228.883 201.194 228.949 201.244 228.997V231.222C201.244 231.418 201.404 231.578 201.599 231.578V236.551H200.889C200.692 236.551 200.535 236.711 200.535 236.907V239.548C200.535 239.578 200.537 239.616 200.548 239.645L201.822 244.108C201.845 244.184 201.891 244.249 201.954 244.292V259.997H201.597C201.403 259.997 201.243 260.152 201.243 260.35V261.814C201.196 261.835 201.158 261.866 201.126 261.911C201.058 261.998 201.035 262.109 201.063 262.217L201.597 264.229V277.061C201.541 277.041 201.483 277.025 201.42 277.025C201.154 277.025 200.942 277.224 200.904 277.483C200.89 277.468 200.877 277.451 200.864 277.435C200.862 277.43 200.862 277.423 200.86 277.418C200.814 277.254 200.701 277.122 200.547 277.062C197.779 273.855 188.97 264.82 177.115 264.143V264.067L176.556 264.091C176.556 264.091 176.359 264.099 176.237 264.105C176.095 264.099 175.899 264.091 175.897 264.091H175.339V264.143C163.272 264.832 154.386 274.184 151.799 277.231C151.702 277.107 151.557 277.023 151.388 277.023C151.093 277.023 150.856 277.262 150.856 277.558C150.856 277.508 150.846 277.46 150.828 277.418C150.766 277.191 150.567 277.023 150.324 277.023C150.03 277.023 149.791 277.262 149.791 277.558C149.791 277.508 149.781 277.46 149.763 277.418C149.701 277.191 149.504 277.023 149.26 277.023C148.965 277.023 148.728 277.262 148.728 277.558C148.728 277.508 148.717 277.46 148.7 277.418C148.637 277.191 148.439 277.023 148.195 277.023C147.901 277.023 147.664 277.262 147.664 277.558C147.664 277.508 147.653 277.46 147.636 277.418C147.573 277.193 147.375 277.023 147.131 277.023C146.839 277.023 146.599 277.262 146.599 277.558C146.599 277.508 146.588 277.46 146.571 277.418C146.508 277.191 146.311 277.023 146.068 277.023C145.774 277.023 145.535 277.262 145.535 277.558C145.535 277.508 145.525 277.46 145.507 277.418C145.445 277.191 145.248 277.023 145.004 277.023C144.708 277.023 144.472 277.262 144.472 277.558C144.472 277.508 144.461 277.46 144.444 277.418C144.381 277.191 144.184 277.023 143.939 277.023C143.646 277.023 143.408 277.262 143.408 277.558C143.408 277.508 143.397 277.46 143.38 277.418C143.317 277.191 143.119 277.023 142.875 277.023C142.582 277.023 142.344 277.262 142.344 277.558C142.344 277.508 142.333 277.46 142.316 277.418C142.254 277.191 142.055 277.023 141.81 277.023C141.519 277.023 141.279 277.262 141.279 277.558C141.279 277.508 141.268 277.46 141.251 277.418C141.189 277.191 140.992 277.023 140.747 277.023C140.454 277.023 140.215 277.262 140.215 277.558C140.215 277.508 140.205 277.46 140.187 277.418C140.125 277.191 139.928 277.023 139.683 277.023C139.39 277.023 139.15 277.262 139.15 277.558C139.15 277.508 139.14 277.46 139.122 277.418C139.061 277.191 138.865 277.023 138.619 277.023C138.325 277.023 138.087 277.262 138.087 277.558C138.087 277.508 138.076 277.46 138.059 277.418C137.996 277.191 137.8 277.023 137.554 277.023C137.261 277.023 137.023 277.262 137.023 277.558V279.532H137.377V299.07H214.025V278.824H213.669L213.663 278.829ZM206.211 236.555H205.502V231.582H206.211V236.555ZM204.794 231.582V236.555H204.438V231.582H204.794ZM203.729 231.582V236.555H203.018V231.582H203.729Z" fill="#73A8AE"/>
<path d="M368.568 299.759L368.003 296.92C367.985 296.822 367.947 296.728 367.893 296.647L365.747 293.362V273.57C365.747 273.144 365.399 272.794 364.972 272.794H361.617V270.988C361.617 270.559 361.272 270.213 360.844 270.213H352.785C353.455 267.122 355.36 257.104 354.318 247.48C353.271 237.798 348.626 228.265 344.647 224.71C344.517 224.592 344.386 224.48 344.256 224.375L344.089 219.67C344.177 219.511 344.317 219.251 344.493 218.917C346.591 214.958 354.32 199.004 354.32 178.804C354.32 158.605 347.346 153.837 344.752 152.543C346.507 149.59 352.337 138.993 352.45 128.389C352.58 116.144 350.091 112.618 344.772 107.978C344.686 107.902 344.598 107.823 344.511 107.747C340.388 104.089 336.256 99.8437 335.171 95.3176C335.068 94.8591 334.943 94.4087 334.889 93.9755C334.859 93.673 334.788 93.3691 334.788 93.0692V80.1466C334.788 79.7175 334.441 79.3709 334.014 79.3709C333.587 79.3709 333.239 79.7175 333.239 80.1466V91.5725C333.239 91.5725 333.239 91.5738 333.239 91.5752C333.198 91.6631 333.173 91.7604 333.167 91.8631C333.166 91.8911 333.11 92.8547 332.905 94.434C332.218 95.251 326.829 101.898 323.168 113.192C322.457 113.534 321.949 113.903 321.69 114.266C321.119 115.067 321.119 115.865 321.228 116.43L321.323 116.786C321.364 116.907 321.399 116.981 321.399 116.981C321.443 117.067 321.509 117.145 321.593 117.198L321.897 117.614C321.585 118.852 321.302 120.139 321.046 121.465H317.248C316.963 121.465 316.703 121.623 316.568 121.873C316.494 122.004 309.372 135.358 309.372 150.787C309.372 154.57 309.841 158.349 310.546 161.905C311.634 172.044 314.178 177.25 316.339 179.905C316.642 180.581 316.882 181.089 317.028 181.394C315.926 183.853 309.63 198.452 309.63 211.301V212.114C309.626 225.254 309.625 235.662 317.792 245.896C317.687 246.175 317.519 246.605 317.325 247.105C316.725 248.642 315.722 251.21 314.322 255.023C313.262 257.903 310.792 267.497 310.156 270H303.207C302.787 270 302.444 270.333 302.433 270.751L302.396 272.255L299.318 272.213C299.108 272.201 298.912 272.293 298.763 272.438C298.616 272.584 298.535 272.782 298.535 272.992L298.529 295.228L297.392 296.659C297.332 296.734 297.289 296.82 297.26 296.912L296.389 299.684C296.315 299.919 296.355 300.176 296.502 300.375C296.647 300.572 296.88 300.689 297.125 300.689H367.805C368.037 300.689 368.255 300.591 368.403 300.408C368.552 300.232 368.609 299.994 368.562 299.764L368.568 299.759ZM332.33 98.0218C331.71 101.222 330.65 105.301 328.854 109.337C328.381 110.402 327.997 111.242 327.66 111.949C326.789 112.077 325.994 112.243 325.285 112.433C327.592 105.743 330.465 100.815 332.33 98.0218ZM323.276 119.501L323.396 119.666C323.312 119.818 323.227 119.969 323.137 120.13C323.183 119.921 323.228 119.709 323.276 119.501ZM344.005 114.264C343.804 113.982 343.449 113.697 342.971 113.423C341.33 112.468 338.14 111.653 334.035 111.653H331.833C331.065 111.653 330.333 111.684 329.63 111.735C329.866 111.214 330.125 110.641 330.42 109.968C332.421 105.416 333.52 100.894 334.121 97.5154C335.238 100.579 337.597 104.155 342.477 108.246C342.723 108.452 342.962 108.659 343.193 108.867C343.213 108.885 343.236 108.904 343.256 108.923C343.456 109.104 343.649 109.284 343.839 109.466C349.003 114.46 350.253 119.682 350.551 121.983H341.621V120.591L344.338 116.591C344.373 116.542 344.398 116.483 344.411 116.425C344.547 115.892 344.585 115.08 344.004 114.263L344.005 114.264Z" fill="#73A8AE"/>
<path d="M686.875 204.382C686.372 202.204 685.868 200.022 685.359 197.854C691.818 170.206 691.271 138.574 691.263 138.264C691.263 138.205 691.256 138.145 691.247 138.085V135.649C691.247 135.325 690.985 135.058 690.66 135.058H688.801C688.474 135.058 688.209 135.325 688.209 135.649V136.815L651.819 136.804V135.649C651.819 135.325 651.557 135.058 651.23 135.058H649.396C649.07 135.058 648.807 135.325 648.807 135.649V139.167C648.807 139.237 648.821 139.306 648.848 139.373C648.868 144.873 649.247 170.476 653.92 196.782C653.906 196.855 653.906 196.933 653.92 197.01C653.927 197.043 654.029 197.536 654.212 198.4C654.234 198.519 654.254 198.639 654.277 198.759C654.265 198.797 654.254 198.836 654.248 198.873C646.747 231.505 649.135 279.444 652.076 297.859C652.193 298.577 652.808 299.101 653.539 299.101H653.551L686.231 298.902C686.959 298.902 687.568 298.38 687.684 297.665C688.55 292.246 695.884 243.601 686.872 204.384L686.875 204.382Z" fill="#A8B6C7" fill-opacity="0.56"/>
<path d="M636.328 83.8491C636.178 83.7518 635.986 83.7385 635.821 83.8104L625.223 88.5871C625.031 88.6737 624.911 88.863 624.911 89.0696V93.5504H621.305V76.3376C621.305 76.0457 621.068 75.8044 620.775 75.8044H620.643V70.5013C620.643 70.2681 620.489 70.0682 620.28 69.9989V57.7706C620.28 57.4774 620.041 57.2402 619.747 57.2402H619.151C618.859 57.2402 618.621 57.4774 618.621 57.7706V69.9989C618.408 70.0695 618.256 70.2694 618.256 70.5013V75.8044H618.124C617.83 75.8044 617.595 76.0457 617.595 76.3376V93.5504H614.35V76.3376C614.35 76.0457 614.113 75.8044 613.818 75.8044H613.689V70.5013C613.689 70.2681 613.534 70.0682 613.324 69.9989V57.7706C613.324 57.4774 613.085 57.2402 612.794 57.2402H612.199C611.905 57.2402 611.666 57.4774 611.666 57.7706V69.9989C611.456 70.0695 611.303 70.2694 611.303 70.5013V75.8044H611.172C610.878 75.8044 610.64 76.0457 610.64 76.3376V93.5504H606.634V89.0696C606.634 88.863 606.513 88.6737 606.321 88.5871L595.723 83.8104C595.558 83.7371 595.366 83.7518 595.216 83.8491C595.065 83.9477 594.975 84.1156 594.975 84.2942V299.946C594.975 300.238 595.21 300.476 595.506 300.476H597.869C597.959 300.549 598.067 300.597 598.191 300.597H633.405C633.53 300.597 633.639 300.549 633.73 300.476H636.041C636.334 300.476 636.572 300.238 636.572 299.946V84.2942C636.572 84.1156 636.48 83.9477 636.33 83.8491H636.328ZM624.911 121.28H623.726V118.216C623.726 117.924 623.487 117.684 623.191 117.684H621.606V106.282H624.911V121.28ZM616.745 106.282V117.684H614.672V106.282H616.745ZM609.814 106.282V117.684H607.738C607.446 117.684 607.208 117.924 607.208 118.216V121.28H606.631V106.282H609.814Z" fill="#73A8AE"/>
<path d="M413.557 293.686H413.598V293.716C413.586 293.703 413.57 293.696 413.557 293.686ZM602.438 293.715V293.686H602.478C602.464 293.696 602.45 293.703 602.438 293.715ZM605.785 291.974C605.781 291.622 605.496 291.341 605.148 291.341H605.146L584.342 291.401V285.942C584.342 285.589 584.058 285.306 583.705 285.306H569.197V280.964H570.782C571.133 280.964 571.419 280.679 571.419 280.327V278.901C571.419 278.552 571.131 278.267 570.782 278.267H542.157V33.8966C542.157 33.3661 541.73 32.9396 541.204 32.9396H540.86C540.86 32.9396 540.851 32.9383 540.847 32.9383H476.188C476.188 32.9383 476.178 32.9396 476.173 32.9396H475.903C475.373 32.9396 474.949 33.3661 474.949 33.8966V278.268H445.252C444.901 278.268 444.615 278.553 444.615 278.902V280.329C444.615 280.68 444.901 280.966 445.252 280.966H446.837V285.308H432.331C431.979 285.308 431.693 285.59 431.693 285.944V291.403L410.892 291.343H410.889C410.54 291.343 410.255 291.624 410.253 291.976L410.231 294.155C410.23 294.323 410.294 294.492 410.417 294.613C410.535 294.731 410.697 294.8 410.866 294.8H412.508V298.137C412.508 298.489 412.793 298.778 413.143 298.781L498.481 298.892C498.521 298.892 498.557 298.877 498.595 298.87H517.442C517.48 298.878 517.515 298.892 517.555 298.892H517.557L602.894 298.781C603.243 298.778 603.525 298.489 603.525 298.137V294.8H605.171C605.339 294.8 605.501 294.731 605.622 294.613C605.743 294.492 605.807 294.324 605.807 294.155L605.786 291.976L605.785 291.974ZM523.018 90.9701C518.047 110.293 510.271 118.475 508.016 118.475C505.618 118.475 500.619 114.975 494.08 91.5245C487.709 68.6794 485.981 51.5345 485.588 46.5606C490.286 45.1839 499.629 42.8422 508.84 42.8422C518.628 42.8422 527.598 44.9999 531.475 46.0808C530.723 51.3066 527.294 74.3677 523.02 90.9714L523.018 90.9701Z" fill="#73A8AE"/>
<path d="M628.752 271.408H626.777C626.753 264.815 625.565 260.293 624.571 257.67C623.057 253.264 619.523 245.035 612.862 239.455C612.781 239.387 612.678 239.35 612.576 239.35H611.768V233.048C611.768 232.883 611.636 232.751 611.474 232.751H611.358V227.76C611.358 227.597 611.223 227.465 611.058 227.465H610.728C610.563 227.465 610.433 227.599 610.433 227.76V232.751H610.318C610.153 232.751 610.021 232.883 610.021 233.048V239.35H608.947C608.699 239.35 608.501 239.551 608.501 239.796V241.529H608.155C607.432 240.786 606.689 240.087 605.931 239.455C605.852 239.387 605.75 239.35 605.645 239.35H604.838V233.048C604.838 232.883 604.705 232.751 604.539 232.751H604.423V227.76C604.423 227.597 604.29 227.465 604.129 227.465H603.796C603.635 227.465 603.501 227.599 603.501 227.76V232.751H603.385C603.221 232.751 603.088 232.883 603.088 233.048V239.35H602.015C601.767 239.35 601.569 239.554 601.569 239.799V245.19H598.712C598.609 245.19 598.511 245.223 598.432 245.287L598.105 245.55C598.083 245.564 598.061 245.587 598.045 245.606C597.17 246.62 595.056 249.192 593.003 252.663C592.464 250.512 591.983 249.098 591.76 248.482C591.781 248.405 591.781 248.322 591.759 248.245C590.045 242.23 587.064 236.848 584.611 233.082C584.607 233.064 584.599 233.051 584.584 233.04C583.077 230.732 581.773 229.034 581.088 228.181C581.072 228.16 581.054 228.138 581.032 228.121L580.63 227.776C580.549 227.709 580.448 227.669 580.339 227.669H576.764V225.004C576.78 224.99 576.792 224.972 576.792 224.948C576.792 224.925 576.78 224.906 576.763 224.892V220.482C576.771 220.355 576.727 220.236 576.644 220.144C576.559 220.056 576.439 220.003 576.318 220.003H574.944V211.589C574.944 211.424 574.81 211.292 574.646 211.292H574.44V204.645C574.44 204.481 574.308 204.351 574.146 204.351H573.741C573.577 204.351 573.445 204.483 573.445 204.645V211.292H573.24C573.075 211.292 572.942 211.423 572.942 211.589V220.003H571.893C571.784 220.003 571.677 220.043 571.596 220.118C570.703 220.927 569.827 221.806 568.974 222.747H568.319V220.45C568.319 220.202 568.119 220.003 567.873 220.003H566.5V211.589C566.5 211.424 566.367 211.292 566.202 211.292H565.997V204.645C565.997 204.481 565.865 204.351 565.701 204.351H565.298C565.134 204.351 565.001 204.483 565.001 204.645V211.292H564.795C564.631 211.292 564.498 211.423 564.498 211.589V220.003H563.45C563.339 220.003 563.233 220.043 563.152 220.118C560.783 222.258 558.743 224.696 556.992 227.217H556.943C556.901 227.217 556.867 227.248 556.867 227.289C556.867 227.315 556.883 227.333 556.901 227.347C552.726 233.399 550.225 239.913 548.936 243.954C547.717 247.429 546.264 253.384 546.251 262.096H543.75C543.502 262.096 543.302 262.297 543.302 262.544V302.247C543.302 302.493 543.502 302.693 543.75 302.693H546.455C546.525 302.735 546.606 302.763 546.696 302.763H594.948C595.039 302.763 595.12 302.735 595.189 302.693H600.107C600.208 302.693 600.296 302.653 600.371 302.597H626.332C626.408 302.597 626.481 302.574 626.545 302.538H628.752C629 302.538 629.2 302.341 629.2 302.093V271.851C629.2 271.607 629 271.404 628.752 271.404V271.408ZM608.5 241.679V241.886C608.433 241.817 608.365 241.749 608.3 241.679H608.5ZM568.836 222.903C568.663 223.096 568.489 223.288 568.319 223.487V222.903H568.836Z" fill="#73A8AE"/>
<path d="M859.142 288.572C859.142 288.572 859.147 288.572 859.158 288.57C859.083 288.515 859.142 288.572 859.142 288.572Z" fill="#73A8AE"/>
<path d="M859.142 288.498H859.158C859.083 288.44 859.142 288.498 859.142 288.498Z" fill="#73A8AE"/>
<path d="M978.224 285.904C978.098 285.666 977.851 285.518 977.581 285.518C977.556 285.518 977.536 285.526 977.512 285.53C976.412 285.265 970.25 283.417 963.14 274.079L962.84 269.308C962.818 268.927 962.504 268.629 962.125 268.625C962.122 268.625 962.119 268.627 962.118 268.627C961.74 268.651 961.426 268.916 961.392 269.289L961.028 273.695C960.851 273.839 960.562 274.061 960.17 274.332C959.638 273.71 959.117 273.062 958.619 272.4L958.333 267.894C958.312 267.513 957.998 267.215 957.616 267.213H957.61C957.231 267.213 956.918 267.501 956.886 267.88L956.533 272.108C956.105 272.393 955.191 273 953.538 274.07C952.7 272.822 951.958 271.47 951.319 270.049L951.008 265.074C950.983 264.691 950.67 264.395 950.292 264.393C950.29 264.393 950.288 264.393 950.284 264.393C949.891 264.393 949.592 264.68 949.557 265.058L949.143 270.006C948.584 270.93 946.883 273.435 943.702 275.952C942.133 273.758 941.033 271.4 940.429 268.939C940.425 268.921 940.421 268.908 940.418 268.895L940.132 264.283C940.108 263.903 939.792 263.606 939.41 263.601H939.405C939.028 263.601 938.713 263.89 938.679 264.269L938.264 269.243C937.392 270.653 934.033 275.901 930.765 278.747C928.49 274.977 927.164 270.165 926.694 268.252C926.714 268.188 926.722 268.122 926.722 268.052C926.722 267.996 926.714 267.942 926.704 267.886L926.377 262.645C926.353 262.264 926.04 261.966 925.659 261.964H925.651C925.276 261.964 924.959 262.255 924.927 262.629L924.521 267.499C923.702 271.266 921.426 278.185 917.905 281.287C913.691 277.564 911.971 268.805 911.751 267.597L911.44 262.645C911.417 262.264 911.104 261.966 910.722 261.964H910.714C910.339 261.964 910.022 262.252 909.99 262.629L909.544 267.992C909.536 268.076 909.544 268.159 909.565 268.239C909.098 270.142 907.772 274.971 905.489 278.747C902.087 275.781 898.581 270.207 897.861 269.028L897.576 264.452C897.552 264.073 897.236 263.773 896.856 263.77C896.854 263.77 896.85 263.771 896.848 263.773C896.489 263.782 896.157 264.062 896.123 264.436L895.712 269.358C895.089 271.675 894.027 273.887 892.553 275.952C889.218 273.313 887.514 270.689 887.041 269.894L886.751 265.241C886.726 264.86 886.414 264.563 886.034 264.56H886.026C885.649 264.56 885.333 264.847 885.301 265.227L884.89 270.147C884.264 271.535 883.533 272.852 882.719 274.069C881.145 273.05 880.25 272.457 879.806 272.159L879.539 267.892C879.513 267.511 879.2 267.214 878.819 267.211H878.813C878.437 267.211 878.122 267.499 878.09 267.879L877.721 272.296C877.191 272.998 876.641 273.681 876.089 274.331C875.749 274.102 875.487 273.902 875.31 273.763L875.028 269.246C875.004 268.868 874.692 268.568 874.311 268.565H874.302C873.924 268.565 873.609 268.853 873.578 269.232L873.179 273.986C866.054 283.389 859.842 285.26 858.737 285.528C858.715 285.525 858.699 285.518 858.676 285.518C858.676 285.518 858.673 285.518 858.67 285.518C858.401 285.518 858.154 285.666 858.03 285.904C857.954 286.045 857.942 286.214 857.971 286.377C857.967 286.483 857.982 286.591 858.027 286.695L863.949 299.892C864.07 300.164 864.331 300.326 864.609 300.326C864.712 300.326 864.811 300.302 864.907 300.26C865.271 300.096 865.436 299.667 865.271 299.297L861.799 291.552C861.953 291.758 862.11 291.968 862.278 292.192C864.613 295.31 866.027 297.708 866.812 299.19L866.907 299.45V299.538C866.907 299.742 866.992 299.926 867.128 300.058L867.421 300.864C867.526 301.157 867.804 301.341 868.102 301.341C868.122 301.341 868.144 301.334 868.166 301.333C868.295 301.358 868.429 301.365 868.562 301.316C868.933 301.18 869.127 300.768 868.998 300.394C868.997 300.39 868.98 300.339 868.954 300.266H870.435V300.271C870.561 300.531 870.821 300.685 871.092 300.685C871.198 300.685 871.304 300.66 871.405 300.612C871.561 300.537 871.668 300.41 871.737 300.266H873.123L873.341 300.864C873.431 301.111 873.641 301.273 873.884 301.321C873.952 301.344 874.025 301.358 874.097 301.358C874.494 301.38 874.855 301.044 874.855 300.635C874.855 300.508 874.823 300.391 874.769 300.291C874.767 300.284 874.763 300.272 874.76 300.266H877.692C877.819 300.512 878.074 300.66 878.336 300.66C878.441 300.66 878.548 300.637 878.649 300.589C878.794 300.519 878.895 300.4 878.964 300.266H883.717L883.935 300.864C884.042 301.155 884.316 301.341 884.617 301.341C884.624 301.341 884.632 301.341 884.638 301.341C884.682 301.35 884.725 301.361 884.77 301.361H884.787C885.185 301.357 885.506 301.033 885.506 300.635C885.506 300.543 885.49 300.457 885.46 300.378C885.453 300.347 885.446 300.307 885.438 300.266H892.618C892.757 300.443 892.966 300.545 893.19 300.545C893.282 300.545 893.378 300.528 893.473 300.491C893.587 300.442 893.675 300.359 893.748 300.267H898.98C899 300.334 899.02 300.395 899.035 300.448C899.035 300.576 899.073 300.7 899.132 300.807C899.219 301.157 899.539 301.393 899.907 301.357C899.934 301.354 899.959 301.344 899.985 301.338C899.992 301.338 900 301.341 900.007 301.341H900.052C900.373 301.322 900.64 301.092 900.714 300.776C900.718 300.761 900.76 300.575 900.837 300.266H909.403C909.529 300.504 909.77 300.66 910.038 300.66C910.099 300.66 910.158 300.652 910.216 300.64C910.427 300.587 910.586 300.445 910.68 300.267H917.336V300.636C917.336 301.024 917.644 301.345 918.031 301.36C918.043 301.362 918.052 301.362 918.064 301.362C918.091 301.362 918.114 301.352 918.14 301.349C918.158 301.349 918.172 301.358 918.189 301.358H918.235C918.626 301.334 918.928 301.009 918.919 300.615L918.912 300.375C918.912 300.343 918.914 300.303 918.914 300.266H925.581C925.673 300.444 925.83 300.587 926.04 300.639C926.101 300.652 926.163 300.659 926.218 300.659C926.489 300.659 926.73 300.503 926.855 300.264H935.414C935.491 300.573 935.535 300.76 935.539 300.775C935.613 301.091 935.881 301.321 936.202 301.34H936.251C936.251 301.34 936.264 301.337 936.271 301.337C936.296 301.342 936.322 301.353 936.348 301.356C936.7 301.39 937.019 301.167 937.115 300.835C937.186 300.721 937.228 300.587 937.228 300.445V300.412C937.243 300.368 937.258 300.315 937.275 300.263H942.509C942.583 300.355 942.669 300.438 942.785 300.487C942.878 300.525 942.974 300.541 943.07 300.541C943.292 300.541 943.501 300.439 943.64 300.262H950.815C950.793 300.392 950.775 300.472 950.774 300.481C950.696 300.863 950.93 301.237 951.303 301.332C951.412 301.36 951.518 301.356 951.622 301.336C951.626 301.336 951.632 301.336 951.635 301.336C951.936 301.336 952.211 301.149 952.32 300.859L952.537 300.26H957.292C957.361 300.394 957.463 300.513 957.61 300.584C957.711 300.632 957.819 300.655 957.922 300.655C958.187 300.655 958.438 300.508 958.566 300.26H961.496C961.468 300.338 961.454 300.383 961.451 300.388C961.321 300.763 961.514 301.175 961.885 301.31C962.013 301.357 962.142 301.353 962.267 301.33C962.555 301.316 962.814 301.139 962.914 300.859L963.134 300.26H964.522C964.592 300.404 964.699 300.532 964.854 300.607C964.952 300.655 965.06 300.68 965.165 300.68C965.436 300.68 965.697 300.527 965.822 300.266L965.824 300.26H967.299C967.274 300.332 967.257 300.384 967.255 300.388C967.126 300.763 967.318 301.175 967.692 301.31C967.824 301.358 967.958 301.353 968.086 301.328C968.108 301.329 968.129 301.336 968.15 301.336C968.448 301.336 968.727 301.152 968.832 300.859L969.094 300.139C969.298 300.01 969.441 299.792 969.441 299.533V299.178C970.227 297.695 971.639 295.301 973.972 292.185C974.148 291.953 974.309 291.737 974.467 291.523L970.986 299.289C970.821 299.658 970.983 300.088 971.348 300.252C971.448 300.294 971.549 300.318 971.65 300.318C971.924 300.318 972.191 300.155 972.309 299.884L978.228 286.687C978.277 286.581 978.288 286.469 978.284 286.358C978.311 286.199 978.296 286.034 978.223 285.896L978.224 285.904ZM944.223 291.737C944.312 291.67 944.401 291.605 944.489 291.541C944.753 291.348 945.012 291.164 945.265 290.991C945.321 290.952 945.377 290.912 945.433 290.875C945.699 290.695 945.958 290.527 946.209 290.368C946.26 290.335 946.31 290.304 946.361 290.272L945.735 291.737H944.22H944.223ZM948.078 290.699C948.133 290.766 948.189 290.831 948.242 290.899C948.458 291.171 948.66 291.453 948.854 291.738H947.317L947.863 290.462C947.933 290.543 948.009 290.618 948.08 290.7L948.078 290.699ZM923.749 291.71C923.77 291.692 923.793 291.672 923.817 291.653C924.088 291.428 924.36 291.215 924.633 291.012C924.67 290.983 924.71 290.953 924.75 290.924C925.015 290.73 925.279 290.546 925.54 290.374C925.575 290.351 925.61 290.328 925.645 290.306C925.914 290.131 926.176 289.965 926.433 289.814C926.436 289.814 926.437 289.814 926.438 289.811C926.696 289.659 926.947 289.521 927.189 289.39C927.217 289.374 927.248 289.358 927.277 289.342C927.506 289.221 927.724 289.112 927.935 289.009C927.973 288.99 928.012 288.972 928.049 288.953C928.117 288.92 928.179 288.893 928.246 288.862L927.524 291.738H923.718C923.728 291.73 923.737 291.72 923.749 291.712V291.71ZM929.894 288.957C929.95 289.001 930.005 289.048 930.059 289.094C930.242 289.249 930.421 289.411 930.598 289.579C930.636 289.615 930.674 289.649 930.712 289.686C930.921 289.89 931.124 290.102 931.324 290.32C931.363 290.363 931.401 290.408 931.44 290.452C931.6 290.632 931.757 290.816 931.91 291.003C931.962 291.065 932.012 291.127 932.063 291.189C932.207 291.369 932.346 291.552 932.484 291.737H929.022L929.749 288.846C929.797 288.884 929.846 288.917 929.894 288.957ZM890.71 290.219C890.785 290.264 890.859 290.311 890.937 290.362C891.211 290.534 891.489 290.715 891.779 290.912C891.798 290.923 891.815 290.936 891.831 290.949C892.109 291.137 892.396 291.341 892.686 291.553C892.764 291.611 892.843 291.668 892.922 291.726C892.926 291.729 892.931 291.733 892.935 291.736H890.523L889.76 289.949C889.822 289.885 889.874 289.813 889.938 289.75C890.184 289.894 890.447 290.051 890.712 290.216L890.71 290.219ZM888.301 291.737C888.428 291.549 888.567 291.367 888.704 291.183L888.941 291.737H888.301ZM908.436 288.646C908.47 288.661 908.502 288.674 908.535 288.689C908.712 288.766 908.901 288.854 909.098 288.949C909.141 288.968 909.183 288.989 909.225 289.009C909.432 289.11 909.647 289.218 909.873 289.337C909.906 289.355 909.938 289.374 909.973 289.391C910.208 289.518 910.449 289.651 910.7 289.799C910.709 289.803 910.717 289.809 910.725 289.814C910.977 289.962 911.236 290.126 911.498 290.295C911.538 290.324 911.58 290.35 911.621 290.376C911.875 290.544 912.132 290.724 912.393 290.915C912.44 290.951 912.488 290.985 912.535 291.02C912.798 291.216 913.061 291.423 913.325 291.641C913.36 291.67 913.394 291.7 913.43 291.729C913.431 291.73 913.434 291.733 913.437 291.736H908.731L907.909 288.461C907.919 288.455 907.928 288.445 907.939 288.437C908.088 288.496 908.258 288.569 908.435 288.645L908.436 288.646ZM904.672 291.737C904.684 291.722 904.693 291.708 904.705 291.694C904.821 291.539 904.939 291.385 905.06 291.233C905.134 291.14 905.209 291.048 905.284 290.956C905.408 290.806 905.534 290.66 905.661 290.516C905.723 290.444 905.787 290.37 905.851 290.299C906.04 290.092 906.233 289.893 906.432 289.699C906.483 289.647 906.535 289.599 906.589 289.551C906.615 289.526 906.642 289.505 906.667 289.479L907.233 291.737H904.672Z" fill="#73A8AE"/>
<path d="M859.142 287.842C859.142 287.842 859.147 287.842 859.158 287.842C859.083 287.787 859.142 287.842 859.142 287.842Z" fill="#73A8AE"/>
<path d="M859.142 287.769C859.142 287.769 859.147 287.766 859.158 287.766C859.083 287.709 859.142 287.769 859.142 287.769Z" fill="#73A8AE"/>
<path d="M826.994 262.38L827.196 261.963L828.064 262.38H826.994ZM827.664 260.999L828.857 258.543H830.048C830.15 259.73 830.257 260.935 830.364 262.164C830.368 262.215 830.374 262.271 830.378 262.323L827.664 260.999ZM833.621 261.027C833.179 255.901 832.782 251.201 832.393 246.525C830.372 222.277 828.913 204.759 823.339 168.007C815.82 118.375 812.316 106.042 811.105 103.004L810.298 86.8371C810.286 86.7039 810.273 86.5706 810.246 86.4426L810.01 85.2258C809.725 83.7531 808.447 82.6842 806.972 82.6842C806.856 82.6842 806.73 82.6922 806.673 82.7015C806.585 82.7069 806.497 82.7202 806.41 82.7375C806.335 82.7228 806.268 82.7135 806.216 82.7095C806.11 82.6935 805.982 82.6842 805.847 82.6842C804.375 82.6842 803.098 83.7518 802.813 85.2258L802.572 86.4853C802.551 86.6266 802.531 86.7665 802.527 86.8905L801.719 103.004C800.51 106.038 797.008 118.368 789.487 168.007C783.912 204.757 782.453 222.277 780.425 246.608C780.067 250.927 779.658 255.823 779.208 261.027C778.252 272.077 777.916 296.914 778.093 299.337C778.203 300.971 779.56 302.251 781.18 302.251H831.648C833.265 302.251 834.622 300.972 834.736 299.341C834.912 296.888 834.573 272.016 833.621 261.027ZM824.726 227.264L824.832 226.956L825.359 227.264H824.726ZM791.786 192.628H790.906L791.6 192.119L791.786 192.628ZM787.711 227.264H787.255L787.625 227.081L787.711 227.264ZM827.316 227.157L825.188 225.911L825.996 223.544H826.967C827.085 224.753 827.201 225.957 827.316 227.157ZM821.349 192.628L821.498 192.056L822.21 192.628H821.348H821.349ZM804.961 135.97H798.717L804.961 132.829V135.97ZM804.961 141.197H798.187L804.961 137.785V141.197ZM804.961 146.254H797.998L804.961 142.747V146.254ZM804.961 147.387V151.741H796.086L804.737 147.387H804.961ZM799.976 125.072L800.204 125.458L800.468 125.964L800.477 125.922L803.366 130.831H798.903C799.28 128.76 799.637 126.847 799.976 125.071V125.072ZM804.961 131.965V132.02L798.07 135.489C798.291 134.235 798.507 133.03 798.716 131.87V131.965H804.959H804.961ZM797.834 136.831V137.102H804.713L797.126 140.921C797.368 139.507 797.604 138.142 797.834 136.831ZM796.886 142.333H804.181L796.443 146.23C796.431 146.236 796.423 146.247 796.411 146.255H796.227C796.452 144.906 796.672 143.6 796.888 142.334L796.886 142.333ZM796.037 147.388H803.129L795.397 151.28C795.614 149.946 795.828 148.649 796.037 147.388ZM795.136 152.874H804.961V153.283C802.098 153.535 799.498 154.693 797.447 156.472H794.555C794.752 155.246 794.945 154.045 795.134 152.874H795.136ZM794.374 157.604H796.29C795.61 158.354 795.009 159.179 794.514 160.071C794.563 160.051 794.619 160.029 794.67 160.008C794.241 160.768 793.887 161.573 793.613 162.415C793.871 160.766 794.125 159.163 794.374 157.604ZM789.902 187.491L791.242 191.142L789.216 192.629H789.16C789.387 190.94 789.624 189.21 789.873 187.43L789.902 187.491ZM785.544 223.546H785.935L787.165 226.119L785.203 227.095C785.314 225.915 785.428 224.734 785.545 223.546H785.544ZM821.775 191L822.66 187.618C822.88 189.189 823.09 190.719 823.294 192.219L821.775 191ZM807.55 147.388H808.186L816.835 151.742H807.55V147.388ZM807.55 146.255V142.541L814.925 146.255H807.55ZM807.55 141.198V137.579L814.738 141.198H807.55ZM807.55 132.621L814.209 135.971H807.55V132.621ZM792.962 166.584C792.962 166.608 792.96 166.632 792.96 166.656C792.96 172.17 796.31 176.901 801.085 178.919H791.095C791.589 175.56 792.118 172.042 792.692 168.319C792.782 167.734 792.871 167.158 792.96 166.584H792.962ZM811.421 178.919C816.198 176.9 819.548 172.168 819.548 166.656C819.548 166.64 819.546 166.624 819.546 166.607V166.595C819.635 167.166 819.723 167.737 819.814 168.319C820.388 172.042 820.918 175.56 821.411 178.919H811.421ZM816.11 157.604H818.134C818.383 159.16 818.636 160.761 818.894 162.406C818.308 160.606 817.352 158.975 816.112 157.604H816.11ZM814.949 156.471C812.924 154.716 810.367 153.561 807.55 153.288V152.872H817.372C817.563 154.042 817.756 155.245 817.953 156.471H814.949ZM809.795 147.387H816.472C816.669 148.577 816.872 149.796 817.075 151.05L809.795 147.387ZM808.746 142.331H815.623C815.832 143.555 816.044 144.817 816.262 146.118L808.747 142.331H808.746ZM808.213 137.103H814.723C814.925 138.26 815.133 139.457 815.343 140.692L808.213 137.103ZM807.852 131.964H813.81C814.001 133.025 814.197 134.12 814.4 135.26L807.854 131.964H807.852ZM808.939 130.831L812.522 125.013C812.863 126.804 813.224 128.738 813.605 130.831H808.939ZM808.051 85.607L808.288 86.8185L809.12 103.276L809.196 103.611C810.066 105.696 813.52 116.522 821.368 168.309C823.744 183.991 825.369 196.161 826.613 206.863C825.337 196.101 823.669 183.85 821.238 168.095C812.803 113.398 809.345 103.994 808.642 102.536L807.787 85.7896C807.787 85.7549 807.783 85.7216 807.775 85.6883L807.622 84.9139C807.836 85.0792 807.993 85.3204 808.049 85.6083L808.051 85.607ZM804.713 85.9375L803.87 102.536C803.817 102.647 803.748 102.804 803.663 103.02L804.541 86.8238L804.713 85.9375ZM785.606 262.38H784.463L785.415 261.968L785.606 262.38ZM782.145 262.164C782.253 260.935 782.358 259.73 782.461 258.543H783.82L784.965 261.005L782.136 262.249C782.138 262.223 782.141 262.192 782.144 262.164H782.145Z" fill="#73A8AE"/>
<path d="M352.595 277.149C352.595 277.022 352.594 276.889 352.591 276.753C352.601 277.005 352.595 277.149 352.595 277.149ZM381.897 251.86C380.512 251.45 378.303 251.085 375.822 250.858C374.015 250.084 370.928 248.395 369.225 245.384C369.112 245.183 369.004 244.977 368.904 244.765C368.34 243.57 367.823 242.484 367.354 241.497C366.975 240.702 366.629 239.975 366.315 239.308C365.373 237.309 364.712 235.858 364.322 234.765C364.256 234.584 364.19 234.357 364.122 234.113C363.807 233.032 363.362 231.501 362.233 230.964C361.972 230.84 361.676 230.769 361.335 230.769C361.317 230.769 361.299 230.769 361.282 230.772C359.633 230.937 359.085 232.542 358.507 234.236C358.43 234.464 358.353 234.694 358.269 234.925C357.674 236.595 356.591 239.428 354.075 244.762C352.492 248.117 349.147 249.978 347.236 250.807C344.129 251.071 341.91 251.421 340.643 251.85C339.98 252.075 339.431 252.468 339.041 252.995C339.03 253.005 339.02 253.021 339.012 253.035C338.269 254.039 338.205 255.252 338.209 255.687C338.206 255.695 338.204 255.7 338.201 255.705C338.184 255.752 338.169 255.787 338.154 255.825C338.138 255.872 338.092 255.967 338.092 255.967C338.06 256.037 338.044 256.113 338.044 256.189V258.676C338.044 258.773 338.041 258.875 338.037 258.98C337.972 260.902 338.461 262.816 345.098 266.73C345.25 266.822 345.402 266.879 345.536 266.934C345.655 266.981 345.757 267.023 345.833 267.073C345.928 267.135 346.016 267.165 346.08 267.178C346.154 267.233 346.233 267.278 346.311 267.325C346.379 267.362 346.447 267.403 346.511 267.45C346.556 267.479 346.601 267.513 346.647 267.542C346.685 267.569 346.725 267.594 346.762 267.62L346.909 267.73C346.979 267.782 347.051 267.832 347.118 267.887L347.149 267.911C347.222 267.966 347.292 268.024 347.36 268.082L347.401 268.112C347.492 268.188 347.585 268.267 347.674 268.343C347.753 268.411 347.827 268.476 347.902 268.544C348.001 268.633 348.096 268.72 348.188 268.811C348.259 268.876 348.328 268.949 348.397 269.017C348.488 269.104 348.577 269.2 348.665 269.289C348.727 269.357 348.79 269.42 348.851 269.488C348.935 269.585 349.02 269.678 349.102 269.776L349.155 269.836C349.189 269.876 349.228 269.917 349.261 269.961C349.349 270.066 349.432 270.173 349.516 270.278L349.634 270.43C349.738 270.566 349.838 270.705 349.936 270.848C349.936 270.848 349.97 270.896 349.975 270.9C350.184 271.204 350.384 271.527 350.569 271.856L350.589 271.891C350.589 271.891 350.606 271.923 350.609 271.928C350.68 272.056 350.75 272.187 350.815 272.316L350.862 272.405C350.921 272.528 350.981 272.646 351.035 272.769L351.077 272.856C351.133 272.981 351.184 273.106 351.234 273.225L351.261 273.293C351.277 273.334 351.294 273.377 351.311 273.423C351.295 273.505 351.298 273.597 351.322 273.678C351.367 273.911 351.527 275.594 351.527 277.15V298.288C351.527 298.584 351.765 298.822 352.06 298.822H370.352C370.646 298.822 370.883 298.584 370.883 298.288V298.205C370.883 296.719 370.889 276.073 371.012 274.072C371.017 274.043 371.051 273.959 371.072 273.913C371.093 273.861 371.113 273.813 371.129 273.769L371.16 273.682C371.202 273.562 371.246 273.435 371.305 273.294L371.334 273.223C371.381 273.109 371.43 272.99 371.483 272.873L371.53 272.764C371.583 272.646 371.639 272.536 371.698 272.416L371.752 272.307C371.812 272.188 371.877 272.063 371.946 271.943L371.998 271.845C372.08 271.699 372.165 271.555 372.254 271.411L372.275 271.376C372.373 271.219 372.479 271.059 372.587 270.902L372.652 270.807C372.741 270.682 372.829 270.558 372.925 270.433L373.063 270.257C373.139 270.162 373.217 270.061 373.298 269.963C373.336 269.917 373.376 269.872 373.419 269.822L373.468 269.762C373.547 269.673 373.627 269.586 373.709 269.49C373.766 269.428 373.826 269.365 373.907 269.281C373.989 269.192 374.071 269.108 374.159 269.023C374.232 268.949 374.306 268.876 374.38 268.805C374.469 268.721 374.558 268.637 374.652 268.553C374.732 268.48 374.81 268.409 374.891 268.339C374.987 268.252 375.09 268.171 375.188 268.087L375.216 268.066C375.291 268 375.368 267.94 375.444 267.878C375.552 267.794 375.665 267.71 375.777 267.623L375.855 267.566C375.916 267.519 375.978 267.471 376.043 267.425C376.165 267.338 376.292 267.251 376.436 267.155L376.537 267.085C376.586 267.05 376.635 267.017 376.686 266.982C376.886 266.854 377.096 266.725 377.306 266.597L377.375 266.553C382.502 263.529 383.631 261.963 384.052 260.73C384.102 260.619 384.142 260.393 384.176 259.387V255.833C384.176 254.922 383.766 252.419 381.895 251.862L381.897 251.86Z" fill="#73A8AE"/>
<path d="M69.4253 299.934C69.2802 299.858 55.7423 292.631 51.7711 290.396C51.4742 290.228 51.2253 290.086 51.0442 289.979C48.7371 288.62 47.9197 286.675 47.9197 282.561C47.9197 278.894 47.9489 255.072 47.9543 250.929C47.9889 250.911 48.0222 250.891 48.0568 250.874C48.2844 250.762 48.5094 250.642 48.7304 250.518C48.8196 250.468 48.9088 250.417 48.9967 250.365C49.2137 250.237 49.428 250.104 49.637 249.965C49.6743 249.94 49.7129 249.917 49.7502 249.893C50.0005 249.724 50.2441 249.544 50.4837 249.36C50.5343 249.321 50.5836 249.281 50.6328 249.243C51.9428 248.205 53.0691 246.945 53.9504 245.516H53.9903V245.454C54.0143 245.415 54.0356 245.376 54.0596 245.338C55.0021 243.853 55.5972 242.196 55.8768 240.431C55.8994 240.303 55.9207 240.175 55.9394 240.047C55.9447 240.011 55.9487 239.975 55.9527 239.939C56.0405 239.298 56.0898 238.646 56.0898 237.981C56.0898 236.871 55.9593 235.791 55.7197 234.753C55.7157 234.733 55.7104 234.712 55.705 234.692C55.6438 234.429 55.5759 234.17 55.5 233.913C54.3631 229.954 51.5874 226.706 47.8198 224.974C47.6507 224.894 47.4803 224.816 47.3073 224.742C47.2873 224.734 47.2673 224.724 47.2474 224.716V218.165H45.8282V216.74H46.8932V209.995H45.8282V206.798H37.3119V209.995H36.2469V216.74H37.3119V218.165H36.6037V224.576C31.2253 226.65 27.3978 231.874 27.3978 237.981C27.3978 243.631 30.6715 248.524 35.4202 250.869C35.4255 254.831 35.4548 278.873 35.4548 282.561C35.4548 286.677 34.6347 288.62 32.3223 289.979C29.7382 291.501 14.0942 299.851 13.9372 299.932L12.0574 300.935H71.3051L69.4253 299.932V299.934ZM28.5308 237.982C28.5308 237.882 28.5361 237.786 28.5387 237.686C28.7584 236.731 29.4906 233.857 30.4545 233.064C30.7806 234.837 30.4172 238.058 30.4172 238.058H28.5334C28.5334 238.034 28.5308 238.006 28.5308 237.982ZM29.9579 231.99C29.9579 231.99 29.9606 231.99 29.9619 231.99L29.9499 232.006C29.9499 232.006 29.9552 231.994 29.9579 231.989V231.99ZM33.9305 233.152C34.4044 234.906 34.3205 238.058 34.3205 238.058H31.413V237.86L32.1865 237.821C32.1865 237.821 32.9134 234.216 33.9318 233.151L33.9305 233.152ZM46.1916 233.849C46.6057 234.895 46.8493 236.162 46.9784 237.031C47.0636 237.641 47.0929 238.058 47.0929 238.058H46.1837V233.832C46.1837 233.832 46.189 233.843 46.1916 233.849ZM51.3437 237.99C51.3491 238.032 51.3517 238.058 51.3517 238.058H48.0807C48.0807 238.058 47.9623 234.578 48.5081 232.892C49.7209 233.607 50.5609 237.822 50.5609 237.822L51.3264 237.857C51.3331 237.906 51.3397 237.96 51.3437 237.99ZM54.7385 238.058H52.1185C52.1279 236.936 52.056 235.986 51.9841 235.33C51.9881 235.241 51.9921 235.151 51.9987 235.062C52.0001 235.039 52.0014 235.018 52.0027 234.995C52.0134 234.829 52.0267 234.662 52.0427 234.497C52.0453 234.465 52.0493 234.434 52.0533 234.402C52.0693 234.242 52.0879 234.085 52.1092 233.932C52.1132 233.908 52.1172 233.885 52.1212 233.86C52.1718 233.516 52.237 233.196 52.3196 232.923C52.4034 232.878 52.4953 232.851 52.6018 232.851C53.6535 232.851 54.5242 235.305 54.9648 236.823C54.9968 237.208 55.0168 237.594 55.0168 237.982C55.0168 238.006 55.0154 238.034 55.0154 238.058H54.7385ZM36.605 232.735V238.058H35.1513C35.1513 237.812 35.1326 237.572 35.1353 237.346C35.2871 236.19 35.8835 233.935 36.5851 232.759C36.5917 232.751 36.5984 232.743 36.605 232.735ZM41.2166 252.331C41.2446 252.331 41.2725 252.331 41.3018 252.334C41.5601 252.34 41.5867 252.346 41.7478 252.346C41.9249 252.346 42.283 252.34 42.283 252.332V290.991H41.2179V252.332L41.2166 252.331Z" fill="#73A8AE"/>
<path d="M47.2754 294.932C46.1824 294.932 45.2718 295.67 44.9895 296.672C44.8071 296.651 44.6221 296.634 44.4331 296.634C43.4066 296.634 42.4654 296.974 41.6999 297.543C41.6879 297.527 41.6773 297.513 41.6653 297.499C41.7904 297.239 41.8663 296.946 41.8663 296.632C41.8663 295.514 40.9597 294.608 39.8414 294.608C39.7243 294.608 39.6151 294.621 39.5046 294.64C39.5046 294.627 39.5073 294.619 39.5073 294.608C39.5073 293.671 38.7498 292.914 37.8152 292.914C37.6728 292.914 37.5383 292.938 37.4052 292.971C37.4345 292.849 37.4544 292.725 37.4544 292.594C37.4544 291.714 36.7395 291 35.8609 291C34.9822 291 34.2673 291.714 34.2673 292.594C34.2673 292.99 34.4191 293.354 34.6587 293.631C34.6374 293.631 34.6201 293.626 34.5988 293.626C33.1743 293.626 32.0188 294.777 32.0135 296.205C31.9988 296.205 31.9868 296.199 31.9722 296.199C30.5743 296.199 29.3682 297 28.7904 298.162C27.9717 297.717 26.9918 297.456 25.9348 297.456C23.1923 297.456 20.9544 299.21 20.78 301.421H49.0127C49.0154 301.358 49.0207 301.293 49.0207 301.232C49.0207 300.543 48.8676 299.891 48.596 299.307C49.2364 298.878 49.6597 298.145 49.6597 297.317C49.6597 296.001 48.5907 294.932 47.274 294.932H47.2754ZM36.1857 294.183C36.1751 294.177 36.1684 294.167 36.1591 294.161C36.1697 294.159 36.1831 294.156 36.1937 294.156C36.191 294.164 36.1884 294.175 36.1857 294.183Z" fill="#B9E6EB" fill-opacity="0.56"/>
<path d="M209.349 294.163C208.258 294.163 207.347 294.904 207.065 295.903C206.881 295.885 206.697 295.871 206.51 295.871C205.485 295.871 204.542 296.209 203.779 296.775C203.764 296.764 203.754 296.751 203.741 296.739C203.867 296.475 203.943 296.182 203.943 295.87C203.943 294.749 203.036 293.843 201.918 293.843C201.805 293.843 201.692 293.859 201.58 293.872C201.581 293.864 201.587 293.854 201.587 293.843C201.587 292.909 200.828 292.149 199.894 292.149C199.751 292.149 199.615 292.173 199.483 292.204C199.512 292.086 199.534 291.96 199.534 291.832C199.534 290.949 198.82 290.235 197.939 290.235C197.057 290.235 196.348 290.949 196.348 291.832C196.348 292.228 196.498 292.589 196.738 292.869C196.718 292.869 196.698 292.861 196.678 292.861C195.252 292.861 194.098 294.011 194.091 295.437H194.051C192.652 295.437 191.446 296.238 190.868 297.397C190.05 296.955 189.07 296.695 188.017 296.695C185.272 296.695 183.034 298.449 182.861 300.661H211.093C211.096 300.596 211.103 300.533 211.103 300.468C211.103 299.779 210.947 299.13 210.675 298.541C211.316 298.114 211.738 297.384 211.738 296.556C211.738 295.237 210.67 294.165 209.351 294.165L209.349 294.163ZM198.258 293.416C198.252 293.411 198.242 293.403 198.234 293.392C198.246 293.392 198.257 293.39 198.27 293.39C198.268 293.4 198.265 293.408 198.26 293.416H198.258ZM199.926 295.536C199.687 295.585 199.455 295.661 199.23 295.75C199.243 295.648 199.262 295.549 199.262 295.446C199.262 295.433 199.258 295.422 199.258 295.412C199.456 295.49 199.669 295.537 199.896 295.537C199.905 295.537 199.916 295.534 199.928 295.534V295.537L199.926 295.536Z" fill="#B9E6EB" fill-opacity="0.56"/>
<path d="M144.181 295.094C143.092 295.094 142.183 295.83 141.899 296.828C141.718 296.81 141.531 296.799 141.343 296.799C140.321 296.799 139.381 297.135 138.615 297.703C138.603 297.689 138.593 297.676 138.578 297.659C138.704 297.399 138.779 297.108 138.779 296.799C138.779 295.678 137.874 294.772 136.757 294.772C136.641 294.772 136.532 294.788 136.42 294.804C136.42 294.793 136.425 294.785 136.425 294.772C136.425 293.835 135.668 293.078 134.736 293.078C134.592 293.078 134.456 293.105 134.324 293.135C134.354 293.013 134.374 292.889 134.374 292.761C134.374 291.881 133.66 291.168 132.783 291.168C131.905 291.168 131.192 291.882 131.192 292.761C131.192 293.159 131.342 293.518 131.583 293.798C131.562 293.795 131.543 293.79 131.522 293.79C130.099 293.79 128.946 294.941 128.938 296.366H128.899C127.503 296.366 126.297 297.164 125.72 298.322C124.904 297.88 123.924 297.62 122.87 297.62C120.13 297.62 117.892 299.374 117.722 301.581H145.915C145.92 301.516 145.927 301.453 145.927 301.388C145.927 300.701 145.771 300.052 145.499 299.463C146.14 299.034 146.559 298.309 146.559 297.481C146.559 296.159 145.493 295.096 144.176 295.096L144.181 295.094ZM133.108 294.345C133.098 294.337 133.089 294.332 133.081 294.324C133.092 294.321 133.104 294.321 133.117 294.321C133.114 294.327 133.109 294.335 133.109 294.345H133.108ZM134.77 296.46C134.531 296.515 134.298 296.586 134.077 296.68C134.089 296.578 134.105 296.482 134.105 296.374C134.105 296.366 134.102 296.353 134.102 296.337C134.299 296.42 134.512 296.462 134.738 296.462C134.749 296.462 134.758 296.462 134.77 296.459V296.462V296.46Z" fill="#B9E6EB" fill-opacity="0.56"/>
<path d="M335.336 292.963C334.046 292.963 332.97 293.835 332.635 295.021C332.419 294.997 332.201 294.977 331.979 294.977C330.767 294.977 329.654 295.376 328.749 296.049C328.736 296.033 328.722 296.014 328.708 295.999C328.854 295.687 328.945 295.345 328.945 294.976C328.945 293.651 327.873 292.579 326.554 292.579C326.415 292.579 326.285 292.598 326.153 292.617C326.154 292.603 326.157 292.593 326.157 292.579C326.157 291.475 325.263 290.582 324.159 290.582C323.991 290.582 323.83 290.606 323.673 290.647C323.709 290.5 323.733 290.356 323.733 290.202C323.733 289.162 322.89 288.319 321.85 288.319C320.81 288.319 319.969 289.162 319.969 290.202C319.969 290.668 320.145 291.095 320.431 291.429C320.406 291.427 320.38 291.419 320.358 291.419C318.676 291.419 317.31 292.783 317.304 294.464C317.286 294.464 317.274 294.461 317.256 294.461C315.604 294.461 314.178 295.409 313.494 296.779C312.527 296.258 311.369 295.949 310.123 295.949C306.88 295.949 304.234 298.02 304.031 300.633H337.39C337.393 300.56 337.402 300.484 337.402 300.408C337.402 299.594 337.216 298.825 336.896 298.13C337.654 297.623 338.152 296.76 338.152 295.785C338.152 294.227 336.891 292.962 335.333 292.962L335.336 292.963ZM322.233 292.078C322.222 292.07 322.212 292.06 322.202 292.052C322.214 292.049 322.231 292.049 322.244 292.049C322.24 292.057 322.235 292.065 322.235 292.078H322.233ZM324.201 294.581C323.916 294.641 323.643 294.728 323.38 294.833C323.393 294.715 323.417 294.603 323.417 294.477C323.417 294.459 323.413 294.447 323.413 294.433C323.645 294.523 323.895 294.58 324.161 294.58C324.175 294.58 324.186 294.577 324.201 294.575V294.58V294.581Z" fill="#B9E6EB" fill-opacity="0.56"/>
<path d="M478.138 298.52C477.538 298.52 476.974 298.629 476.465 298.808C476.483 298.713 476.503 298.624 476.503 298.52C476.503 297.428 475.297 296.54 473.805 296.54C472.642 296.54 471.663 297.083 471.283 297.839C470.974 297.907 470.674 297.993 470.39 298.096C470.321 298.052 470.25 298.007 470.173 297.963C470.216 297.824 470.241 297.68 470.241 297.528C470.241 296.831 469.762 296.225 469.039 295.861C469.039 295.855 469.041 295.842 469.041 295.829C469.041 294.279 467.329 293.017 465.211 293.017C463.093 293.017 461.381 294.279 461.381 295.829C461.381 296.279 461.541 296.703 461.795 297.078C459.431 297.268 457.567 298.636 457.261 300.359H481.779C481.212 299.283 479.801 298.518 478.137 298.518L478.138 298.52Z" fill="#B9E6EB" fill-opacity="0.56"/>
<path d="M403.929 298.998C403.977 298.7 404.009 298.393 404.009 298.081C404.009 294.946 401.471 292.405 398.337 292.405C395.834 292.405 393.714 294.034 392.964 296.281C392.787 296.33 392.612 296.39 392.444 296.454C391.863 294.671 390.187 293.379 388.21 293.379C386.363 293.379 384.78 294.505 384.101 296.11C383.819 296.042 383.526 296.001 383.224 296.001C382.838 296.001 382.468 296.061 382.116 296.166C382.119 296.109 382.132 296.061 382.132 296.001C382.132 294.495 380.911 293.267 379.402 293.267C377.892 293.267 376.673 294.495 376.673 296.001C376.673 296.169 376.69 296.333 376.721 296.49C376.243 296.17 375.667 295.982 375.047 295.982C373.829 295.982 372.788 296.707 372.314 297.749C371.917 297.277 371.333 296.974 370.671 296.974C369.478 296.974 368.513 297.945 368.513 299.137C368.513 299.49 368.604 299.815 368.75 300.106C368.195 300.352 367.757 300.812 367.515 301.37H405.616C405.506 300.315 404.844 299.433 403.927 298.998H403.929ZM378.028 298.664C378.016 298.553 378.005 298.436 377.98 298.328C378.082 298.388 378.186 298.446 378.294 298.498C378.204 298.553 378.113 298.604 378.027 298.664H378.028Z" fill="#B9E6EB" fill-opacity="0.56"/>
<path d="M881.174 298.998C881.222 298.7 881.254 298.393 881.254 298.081C881.254 294.946 878.715 292.405 875.581 292.405C873.079 292.405 870.959 294.034 870.208 296.281C870.031 296.33 869.857 296.39 869.689 296.454C869.107 294.671 867.433 293.379 865.454 293.379C863.608 293.379 862.025 294.505 861.346 296.11C861.064 296.042 860.771 296.001 860.469 296.001C860.083 296.001 859.712 296.061 859.361 296.166C859.364 296.109 859.377 296.061 859.377 296.001C859.377 294.495 858.156 293.267 856.646 293.267C855.137 293.267 853.917 294.495 853.917 296.001C853.917 296.169 853.935 296.333 853.965 296.49C853.487 296.17 852.912 295.982 852.293 295.982C851.075 295.982 850.034 296.707 849.56 297.749C849.163 297.277 848.579 296.974 847.917 296.974C846.724 296.974 845.759 297.945 845.759 299.137C845.759 299.49 845.85 299.815 845.996 300.106C845.442 300.352 845.003 300.812 844.761 301.37H882.862C882.752 300.315 882.09 299.433 881.173 298.998H881.174ZM855.273 298.664C855.261 298.553 855.25 298.436 855.225 298.328C855.327 298.388 855.431 298.446 855.539 298.498C855.448 298.553 855.358 298.604 855.271 298.664H855.273Z" fill="#B9E6EB" fill-opacity="0.56"/>
<path d="M718.593 298.213C718.462 298.213 718.34 298.24 718.215 298.254C718.024 298.121 717.795 298.04 717.546 298.04C717.377 298.04 717.218 298.078 717.075 298.142C717.086 298.053 717.102 297.961 717.102 297.868C717.102 296.632 716.103 295.634 714.872 295.634C714.53 295.634 714.208 295.715 713.919 295.857C713.518 295.713 713.092 295.634 712.642 295.634C710.789 295.634 709.245 296.948 708.884 298.696C708.536 298.4 708.092 298.212 707.603 298.212C706.633 298.212 705.828 298.913 705.657 299.835H721.503C720.896 298.866 719.824 298.212 718.596 298.212L718.593 298.213Z" fill="#B9E6EB" fill-opacity="0.56"/>
<path d="M924.734 297.697C924.562 297.697 924.4 297.732 924.235 297.752C923.986 297.576 923.684 297.469 923.355 297.469C923.131 297.469 922.921 297.519 922.732 297.605C922.746 297.485 922.769 297.364 922.769 297.244C922.769 295.616 921.454 294.299 919.83 294.299C919.38 294.299 918.954 294.408 918.574 294.592C918.046 294.404 917.484 294.299 916.891 294.299C914.45 294.299 912.414 296.031 911.939 298.336C911.482 297.945 910.897 297.697 910.251 297.697C908.973 297.697 907.912 298.62 907.686 299.836H928.563C927.763 298.561 926.352 297.697 924.731 297.697H924.734Z" fill="#B9E6EB" fill-opacity="0.56"/>
<path d="M488.245 299.25C488.241 299.209 488.237 299.166 488.227 299.122C488.265 299.143 488.305 299.166 488.346 299.19C488.313 299.209 488.277 299.225 488.247 299.25H488.245Z" fill="#B9E6EB" fill-opacity="0.56"/>
<path d="M462.748 291.269C462.748 291.269 462.016 288.546 456.646 287.789H456.635C459.109 285.49 458.723 283.702 458.723 283.702C458.723 283.702 455.569 283.518 453.126 285.662C453.283 285.068 453.404 284.373 453.468 283.567C453.845 278.768 452.225 277.767 452.225 277.767C452.225 277.767 450.578 280.001 450.037 283.134C448.018 280.859 446.356 281.112 446.356 281.112C446.356 281.112 446.139 282.919 446.903 284.915C446.686 284.852 446.459 284.795 446.216 284.741C442.112 283.856 440.786 285.504 440.786 285.504C440.786 285.504 442.703 288.056 445.957 288.68C445.239 289.269 444.534 290.083 443.872 291.191C443.872 291.191 445.129 294.435 448.982 292.863C449.241 292.757 449.479 292.643 449.708 292.526C449.675 295.361 449.959 298.664 451.241 300.472L454.364 300.358C454.364 300.358 452.183 296.696 451.188 292.537C451.765 293.979 452.869 295.46 454.947 296.495C454.947 296.495 456.863 294.785 454.904 291.348C457.098 292.042 459.846 292.348 462.748 291.272V291.269Z" fill="#B9E6EB" fill-opacity="0.56"/>
<path d="M682.663 284.719C682.663 284.719 682.656 284.721 682.653 284.721C683.973 281.611 682.889 280.137 682.889 280.137C682.889 280.137 679.936 281.257 678.582 284.216C678.484 283.608 678.309 282.923 678.039 282.164C676.424 277.628 674.535 277.378 674.535 277.378C674.535 277.378 673.944 280.09 674.731 283.17C671.958 281.919 670.545 282.827 670.545 282.827C670.545 282.827 671.085 284.567 672.598 286.077C672.375 286.106 672.144 286.147 671.899 286.199C667.791 287.071 667.254 289.117 667.254 289.117C667.254 289.117 670.046 290.662 673.269 289.898C672.854 290.728 672.542 291.762 672.391 293.043C672.391 293.043 674.861 295.489 677.737 292.478C677.929 292.277 678.096 292.078 678.256 291.881C678.172 294.844 678.396 298.52 679.775 300.464L682.898 300.35C682.898 300.35 680.195 295.81 679.434 291.096C680.554 292.257 682.217 293.251 684.664 293.351C684.664 293.351 685.714 291.005 682.524 288.672C684.81 288.408 687.442 287.562 689.653 285.393C689.653 285.393 687.873 283.209 682.661 284.715L682.663 284.719Z" fill="#B9E6EB" fill-opacity="0.56"/>
<path d="M747 286.202C746.757 286.15 746.526 286.11 746.301 286.079C747.815 284.571 748.354 282.83 748.354 282.83C748.354 282.83 746.942 281.921 744.168 283.173C744.955 280.091 744.364 277.38 744.364 277.38C744.364 277.38 742.475 277.631 740.862 282.166C740.59 282.926 740.417 283.61 740.318 284.219C738.964 281.26 736.012 280.139 736.012 280.139C736.012 280.139 734.928 281.613 736.247 284.724C736.245 284.724 736.241 284.721 736.238 284.721C731.027 283.215 729.247 285.4 729.247 285.4C731.459 287.568 734.089 288.416 736.375 288.678C734.288 290.206 734.019 291.733 734.08 292.61C733.101 291.741 731.817 291.208 730.406 291.208C727.956 291.208 725.882 292.797 725.148 294.997C724.974 295.046 724.804 295.102 724.641 295.17C724.069 293.422 722.431 292.16 720.498 292.16C718.692 292.16 717.142 293.262 716.48 294.828C716.203 294.763 715.92 294.727 715.623 294.727C715.245 294.727 714.881 294.781 714.541 294.884C714.543 294.829 714.555 294.781 714.555 294.727C714.555 293.247 713.36 292.05 711.883 292.05C710.407 292.05 709.214 293.247 709.214 294.727C709.214 294.886 709.233 295.046 709.263 295.201C708.795 294.886 708.233 294.704 707.626 294.704C706.436 294.704 705.416 295.416 704.954 296.43C704.565 295.974 703.995 295.673 703.347 295.673C702.181 295.673 701.234 296.62 701.234 297.791C701.234 298.133 701.322 298.453 701.467 298.738C700.926 298.979 700.493 299.427 700.256 299.974H736.218C736.084 300.218 736.002 300.354 736.002 300.354L739.126 300.468C740.505 298.524 740.728 294.848 740.645 291.885C740.803 292.082 740.972 292.281 741.164 292.482C744.039 295.493 746.51 293.047 746.51 293.047C746.358 291.766 746.047 290.732 745.632 289.902C748.856 290.664 751.646 289.121 751.646 289.121C751.646 289.121 751.11 287.074 747.001 286.203L747 286.202ZM710.536 297.331C710.525 297.216 710.516 297.106 710.49 296.996C710.589 297.059 710.691 297.119 710.8 297.162C710.711 297.216 710.62 297.271 710.535 297.329L710.536 297.331ZM736.958 298.544C736.675 298.166 736.303 297.859 735.872 297.656C735.921 297.363 735.95 297.064 735.95 296.758C735.95 295.453 735.498 294.256 734.746 293.308C736.912 293.099 738.427 292.177 739.465 291.101C739.002 293.979 737.816 296.79 736.96 298.544H736.958Z" fill="#B9E6EB" fill-opacity="0.56"/>
<path d="M946.852 284.304C946.604 284.331 946.371 284.364 946.15 284.404C947.122 282.501 947.098 280.68 947.098 280.68C947.098 280.68 945.473 280.251 943.224 282.301C943.019 279.128 941.62 276.731 941.62 276.731C941.62 276.731 939.901 277.554 939.767 282.369C939.744 283.175 939.789 283.878 939.885 284.489C937.682 282.096 934.529 281.944 934.529 281.944C934.529 281.944 933.954 283.68 936.169 286.23H936.16C930.739 286.411 929.721 289.042 929.721 289.042C932.494 290.419 935.259 290.411 937.513 289.951C935.2 293.159 936.924 295.065 936.924 295.065C939.221 294.211 940.494 292.749 941.199 291.3C941.934 296.018 940.765 301.173 940.765 301.173L943.771 300.312C944.482 298.036 943.558 294.471 942.562 291.68C942.775 291.818 942.996 291.956 943.241 292.088C946.906 294.061 948.5 290.969 948.5 290.969C947.961 289.797 947.344 288.909 946.692 288.249C949.994 287.975 952.17 285.644 952.17 285.644C952.17 285.644 951.028 283.863 946.852 284.306V284.304Z" fill="#B9E6EB" fill-opacity="0.56"/>
<path d="M278.997 286.202C278.753 286.15 278.523 286.11 278.299 286.079C279.812 284.571 280.352 282.83 280.352 282.83C280.352 282.83 278.94 281.921 276.167 283.173C276.953 280.091 276.362 277.38 276.362 277.38C276.362 277.38 274.473 277.631 272.86 282.166C272.588 282.926 272.415 283.61 272.316 284.219C270.963 281.26 268.01 280.139 268.01 280.139C268.01 280.139 266.926 281.613 268.245 284.724C268.243 284.724 268.239 284.721 268.236 284.721C263.024 283.215 261.244 285.4 261.244 285.4C263.455 287.568 266.086 288.416 268.372 288.678C265.182 291.012 266.232 293.358 266.232 293.358C268.679 293.258 270.341 292.264 271.46 291.103C270.7 295.815 267.996 300.355 267.996 300.355L271.12 300.469C272.499 298.525 272.723 294.849 272.639 291.886C272.798 292.084 272.966 292.284 273.158 292.483C276.033 295.494 278.504 293.049 278.504 293.049C278.353 291.768 278.041 290.734 277.626 289.903C280.85 290.666 283.64 289.122 283.64 289.122C283.64 289.122 283.104 287.075 278.996 286.205L278.997 286.202Z" fill="#B9E6EB" fill-opacity="0.56"/>
<path d="M996.247 304H2.75045C1.23277 304 0 302.823 0 301.369C0 299.915 1.23277 298.74 2.75045 298.74H996.248C997.767 298.74 999.001 299.916 999.001 301.369C999.001 302.822 997.767 304 996.248 304H996.247Z" fill="#007077"/>
</g>
<defs>
<clipPath id="clip0_2_11093">
<rect width="999" height="304" fill="white"/>
</clipPath>
</defs>
</svg>
