<svg width="981" height="304" viewBox="0 0 981 304" fill="none" xmlns="http://www.w3.org/2000/svg">
<g clip-path="url(#clip0_394_16612)">
<path opacity="0.5" d="M948.409 211.44H926.499C924.187 211.44 922.313 213.317 922.313 215.632V293.451C922.313 295.766 924.187 297.643 926.499 297.643H948.409C950.721 297.643 952.595 295.766 952.595 293.451V215.632C952.595 213.317 950.721 211.44 948.409 211.44Z" fill="#7399C6" fill-opacity="0.1"/>
<path opacity="0.5" d="M878.62 161.737H861.7V154.594H834.193V161.737H826.046V297.643H906.127V201.277V161.737V154.594H878.62V161.737Z" fill="#7399C6" fill-opacity="0.1"/>
<path d="M49.4511 198.012H9.91309V280.217H49.4511V198.012Z" fill="#7399C6" fill-opacity="0.1"/>
<path d="M980.627 196.238H979.321V194.916H976.91V176.232H974.499V194.916H947.791V300.873H979.321V220.028H980.627V196.238Z" fill="#7399C6" fill-opacity="0.1"/>
<path d="M166.656 138.706H136.372V300.379H166.656V138.706Z" fill="#7399C6" fill-opacity="0.1"/>
<path d="M372.704 130.832H311.29V300.379H372.704V130.832Z" fill="#7399C6" fill-opacity="0.1"/>
<path d="M437.49 176.232H376.076V301.998H437.49V176.232Z" fill="#7399C6" fill-opacity="0.1"/>
<path d="M566.573 85.4897H531.558V301.997H566.573V85.4897Z" fill="#7399C6" fill-opacity="0.1"/>
<path d="M790.696 141.95H769.411V178.877H756.455V301.997H777.74V265.07H790.696V141.95Z" fill="#7399C6" fill-opacity="0.1"/>
<path d="M921.716 235.487L921.857 226.153L910.704 224.157V210.798H908.712V223.759L898.954 226.153V235.487H895.582V252.737H854.065V300.143H895.582V301.565H926.81V235.487H921.716Z" fill="#C8B18B"/>
<path d="M580.38 271.823V167.887H578.707V153.661H572.155V145.309H557.592V127.083H556.089V145.309H552.664V165.463H551.382V167.887H545.811L543.657 271.823H525.972V301.989H587.915V271.823H580.38Z" fill="#7399C6" fill-opacity="0.1"/>
<path d="M512.04 114.53L512.081 114.166H511.915V114.258L511.977 114.358C512.005 114.404 512.026 114.478 512.041 114.528L512.04 114.53Z" fill="#7399C6"/>
<path d="M137.272 190.64V175.825H134.078V157.831H123.788V147.78H119.53V122.909H116.691V147.78H113.495V157.831H110.303V301.766H130.883V302.297H135.853V302.83H139.401V190.64H137.272Z" fill="#C8B18B"/>
<path d="M61.6829 226.095V221.832H57.07V220.054H54.5858V221.832H53.1667V220.054H51.0366V221.832H49.2633V220.054H46.7791V221.832H45.36V220.054H42.8771V221.832H41.4567V226.095H40.7471V303.895H81.5551V226.095H61.6829Z" fill="#7399C6" fill-opacity="0.1"/>
<path d="M945.774 243.484H912.116V301.856H945.774V243.484Z" fill="#C8B18B"/>
<path d="M236.216 270.049V269.998H232.481L232.478 241.714V124.299H232.39L232.358 124.268C232.346 124.219 232.329 124.169 232.302 124.124L232.039 123.675H232.165V122.739H231.493L230.709 121.399C230.616 121.236 230.444 121.135 230.255 121.135L205.365 121.145V117.747C205.655 117.744 205.891 117.57 205.891 117.279C205.891 116.988 205.655 116.817 205.365 116.814V116.189C205.655 116.183 205.891 115.856 205.891 115.562C205.891 115.269 205.655 114.945 205.365 114.94V87.0916C205.365 86.7957 205.036 86.5598 204.743 86.5598C204.45 86.5598 204.119 86.7957 204.119 87.0916V113.379H203.404C203.11 113.379 202.873 113.618 202.873 113.908V121.144H200.587C200.295 121.144 200.066 121.385 200.066 121.679V265.94H178.473C178.177 265.94 177.942 266.176 177.942 266.47V287.467H173.797C173.505 287.467 173.268 287.705 173.268 287.999V299.007H173.316C173.398 299.193 173.582 299.325 173.797 299.325H231.955C232.095 299.325 232.23 299.242 232.33 299.141C232.366 299.105 232.389 299.055 232.413 299.007H235.998C236.291 299.007 236.529 298.773 236.529 298.478V270.527C236.529 270.313 236.4 270.13 236.218 270.046L236.216 270.049Z" fill="#7399C6"/>
<path d="M434.465 204.676C434.445 204.556 434.395 204.451 434.324 204.361V200.892C434.324 200.502 434.007 200.183 433.616 200.183H433.368C433.398 197.766 433.02 191.451 428.779 185.68C428.29 185.01 427.294 183.819 426.139 182.778H426.165V182.064H425.283C425.222 182.017 425.161 181.971 425.1 181.925V179.934H425.457V179.223H425.1V167.144H425.457V166.435H425.1V165.368H424.415L424.402 147.977L424.037 147.961V139.079H421.909V147.961L421.584 147.982L421.61 165.368H420.844V166.435H420.488V167.144H420.844V179.223H420.488V179.934H420.844V181.276C419.064 182.239 417.02 184.386 416.068 185.681C411.816 191.47 411.462 197.806 411.499 200.209C411.166 200.266 410.906 200.544 410.906 200.894V204.803C410.906 204.896 410.926 204.984 410.959 205.065C410.968 205.091 410.985 205.109 410.997 205.133C411.027 205.186 411.057 205.237 411.099 205.281C411.119 205.302 411.143 205.32 411.165 205.338C411.209 205.374 411.253 205.406 411.305 205.432C411.334 205.446 411.364 205.456 411.394 205.466C411.421 205.476 411.445 205.492 411.474 205.497C412.64 206.086 417.494 210.951 417.073 223.567C417.045 224.397 417.009 225.37 416.966 226.471H415.875C415.485 226.471 415.166 226.788 415.166 227.183V229.67C415.166 230.063 415.484 230.381 415.875 230.381H416.799C416.24 242.893 415.013 266.134 413.251 297.491L413.154 299.261C413.142 299.454 413.213 299.646 413.347 299.79C413.482 299.931 413.668 300.01 413.862 300.01H431.385C431.58 300.01 431.767 299.928 431.903 299.79C432.036 299.643 432.105 299.45 432.093 299.255C431.989 297.525 429.513 251.654 428.586 230.381H430.426C430.818 230.381 431.134 230.064 431.134 229.67V227.183C431.134 226.789 430.818 226.471 430.426 226.471H428.423C428.38 225.391 428.343 224.413 428.315 223.567C427.886 210.651 433 205.874 434.022 205.464C434.343 205.344 434.532 205.013 434.469 204.676H434.465Z" fill="#7399C6"/>
<path d="M948.483 146.395C948.439 146.386 947.316 146.136 945.601 146.136C944.158 146.136 942.369 146.312 940.47 146.907V122.265C940.47 121.815 940.107 121.451 939.657 121.451H937.067C936.621 121.451 936.257 121.815 936.257 122.265V148.951C935.785 149.275 935.317 149.634 934.856 150.031C934.61 150.248 934.368 150.48 934.133 150.738C933.919 150.977 933.707 151.238 933.505 151.511C933.501 151.519 933.496 151.525 933.49 151.53C933.272 151.831 933.06 152.153 932.859 152.496C932.653 152.15 932.44 151.822 932.216 151.517C932.014 151.238 931.798 150.978 931.582 150.738C931.355 150.484 931.11 150.248 930.858 150.031C929.274 148.663 927.597 147.76 925.972 147.169V122.265C925.972 121.815 925.609 121.451 925.159 121.451H922.574C922.122 121.451 921.76 121.815 921.76 122.265V146.232C921.148 146.174 920.567 146.151 920.035 146.151C918.267 146.151 917.102 146.406 917.051 146.419C916.683 146.5 916.42 146.831 916.42 147.211V298.842C916.42 299.293 916.783 299.654 917.234 299.654H932.472C932.641 299.654 932.794 299.604 932.92 299.521H933.492C933.622 299.604 933.776 299.654 933.942 299.654H948.301C948.752 299.654 949.114 299.291 949.114 298.842V147.191C949.114 146.809 948.853 146.479 948.482 146.395H948.483Z" fill="#7399C6"/>
<path d="M889.243 230.854L886.84 218.825L889.077 213.096C889.145 212.943 889.145 212.779 889.097 212.626L887.087 206.209L888.088 199.419C888.094 199.385 888.1 199.35 888.1 199.318V181.419C888.1 181.026 887.784 180.707 887.393 180.707H854.98C854.587 180.707 854.273 181.027 854.273 181.419V199.506L852.998 206.265C852.979 206.378 852.984 206.49 853.01 206.592L854.747 212.546L852.517 218.244C852.461 218.381 852.456 218.53 852.493 218.673L855.531 230.841L853.398 237.867C853.38 237.933 853.369 238.005 853.369 238.075V301.942C853.369 302.133 853.445 302.309 853.578 302.443C853.714 302.576 853.888 302.65 854.079 302.65L864.407 302.591C864.496 302.63 864.591 302.65 864.684 302.65H864.87C864.87 302.65 864.877 302.65 864.879 302.65H864.882L875.217 302.592C875.297 302.628 875.389 302.65 875.49 302.65C875.591 302.65 875.688 302.628 875.775 302.589L887.39 302.523C887.779 302.522 888.097 302.202 888.096 301.813L887.839 237.885L889.239 231.133C889.257 231.041 889.257 230.948 889.239 230.853L889.243 230.854Z" fill="#A8B6C7" fill-opacity="0.56"/>
<path d="M710.508 166.497L705.919 160.441C705.874 160.379 705.821 160.325 705.76 160.287L699.877 156.358C699.765 156.283 699.645 156.236 699.501 156.244L697.511 156.262V156.015H697.723C698.091 156.015 698.391 155.717 698.391 155.349V152.257C698.391 151.885 698.091 151.589 697.723 151.589H695.609V148.232C695.609 147.862 695.309 147.561 694.94 147.561H693.79L693.785 146.794C694.035 146.696 694.209 146.454 694.209 146.171V128.782C694.209 128.451 693.97 128.173 693.654 128.121L693.565 108.487C693.729 108.366 693.835 108.168 693.835 107.95C693.835 107.908 693.831 107.867 693.822 107.826L693.439 90.5463C693.431 90.1812 693.134 89.8906 692.77 89.8906H690.197C689.832 89.8906 689.535 90.1812 689.529 90.5463L689.144 107.935C689.138 108.115 689.208 108.288 689.334 108.419C689.357 108.442 689.379 108.46 689.403 108.48L689.27 128.131C688.976 128.2 688.756 128.463 688.756 128.781V146.17C688.756 146.411 688.883 146.62 689.073 146.738L689.064 147.56H688.276C687.906 147.56 687.609 147.86 687.609 148.23V151.588H685.243C684.873 151.588 684.573 151.885 684.573 152.255V155.347C684.573 155.715 684.873 156.014 685.243 156.014H685.453V156.26L683.749 156.242C683.618 156.243 683.483 156.28 683.371 156.355L677.487 160.284C677.423 160.323 677.371 160.376 677.326 160.439L672.738 166.495C672.584 166.7 672.559 166.976 672.677 167.204L675.852 173.373C675.9 173.468 675.968 173.546 676.052 173.608L681.699 177.758C681.812 177.842 681.952 177.891 682.095 177.891H683.423V179.844C683.423 180.213 683.721 180.512 684.092 180.512H684.335V184.35C684.335 184.636 684.514 184.878 684.765 184.978V188.246H684.688C684.592 188.246 684.503 188.267 684.42 188.304H681.759C681.534 188.304 681.337 188.419 681.215 188.583C681.076 188.705 680.988 188.885 680.988 189.084V192.742C680.988 192.902 681.043 193.049 681.139 193.166C681.24 193.41 681.478 193.583 681.759 193.583H684.765V200.115C684.765 200.238 684.796 200.351 684.853 200.45V296.919C684.853 297.291 685.154 297.591 685.523 297.591H698.454C698.824 297.591 699.122 297.291 699.122 296.919V193.583H702.218C702.586 193.583 702.885 193.282 702.885 192.914V188.977C702.885 188.604 702.586 188.304 702.218 188.304H700.588C700.505 188.267 700.415 188.246 700.317 188.246H699.122V184.958C699.353 184.852 699.513 184.623 699.513 184.35V180.512H699.76C700.128 180.512 700.426 180.212 700.426 179.844V177.891H701.155C701.296 177.891 701.436 177.842 701.549 177.758L707.196 173.608C707.28 173.546 707.348 173.469 707.394 173.373L710.571 167.204C710.688 166.975 710.667 166.7 710.51 166.495L710.508 166.497Z" fill="#7399C6"/>
<path d="M762.857 115.645C763.074 115.552 763.226 115.339 763.226 115.088C763.226 114.824 763.058 114.606 762.823 114.522L762.811 114.114L763.928 70.8426C763.928 70.8039 763.928 70.764 763.925 70.724L758.081 13.2559C758.03 12.7908 757.643 12.4376 757.17 12.4349L751.312 12.4189C751.271 12.4069 751.198 12.4256 751.149 12.4349H739.259C738.845 12.4349 738.475 12.7161 738.379 13.1213L734.286 29.1973H734.043L728.931 13.4372C728.805 13.0627 728.461 12.8068 728.063 12.8068H722.469C721.985 12.8068 721.585 13.1866 721.557 13.6691L715.957 114.162V114.259L715.988 114.89C715.953 114.991 715.935 115.097 715.959 115.209L716.016 115.48L718.194 160.161L716.333 204.58C716.33 204.602 716.33 204.63 716.333 204.655L719.962 298.008L719.823 299.005C719.787 299.271 719.866 299.533 720.039 299.73C720.213 299.928 720.462 300.046 720.722 300.046H761.651C762.142 300.046 762.547 299.65 762.56 299.158L763.926 247.705L764.175 159.816V159.386L762.856 115.641L762.857 115.645Z" fill="#7399C6"/>
<path d="M283.982 295.164C283.855 295.028 283.678 294.94 283.478 294.94H282.583C282.567 294.856 282.533 294.78 282.487 294.705C282.404 294.579 280.415 291.569 275.68 289.815L275.665 289.849C275.239 289.633 274.398 289.357 272.728 288.95C272.293 288.845 271.975 288.466 271.947 288.02L270.492 263.638V263.122C270.492 263.078 270.476 263.038 270.454 263.004L260.532 96.7877C260.526 96.6731 260.491 96.5598 260.427 96.4585L258.599 93.5704C258.513 93.4331 258.46 93.2745 258.445 93.1145C258.217 90.5889 257.979 88.4245 257.731 86.6559C257.725 86.6106 257.722 86.5666 257.722 86.52V58.0065C257.722 57.6853 257.502 57.4067 257.191 57.3294C256.875 57.2575 256.558 57.4041 256.411 57.6893C255.925 58.6369 254.495 58.2984 254.487 57.2322L254.022 0.687713C254.018 0.314536 253.719 0.00932945 253.346 0H253.329C252.963 0 252.658 0.28788 252.636 0.65706L248.645 73.2975L248.572 73.4494C248.528 73.544 248.504 73.6466 248.504 73.7519V75.8391C248.504 75.8577 248.504 75.8764 248.503 75.8951L246.699 108.724C246.694 108.744 246.686 108.765 246.686 108.788C246.686 108.801 246.691 108.812 246.694 108.824L246.658 109.474C246.628 110.014 246.181 110.438 245.641 110.438H244.171C243.862 110.438 243.59 110.642 243.505 110.939C243.42 111.238 243.544 111.556 243.805 111.719C243.815 111.723 244.907 112.408 245.525 112.953C245.724 113.13 245.872 113.274 245.98 113.39C246.17 113.594 246.26 113.87 246.24 114.147L238.144 225.126C238.14 225.142 238.135 225.157 238.135 225.173V225.258L235.454 262.016C235.399 262.057 235.363 262.12 235.363 262.196V263.226C235.363 263.252 235.363 263.276 235.36 263.301L233.58 287.705C233.548 288.147 233.232 288.518 232.802 288.621C231.284 288.986 230.244 289.343 229.613 289.593C229.596 289.599 229.58 289.605 229.561 289.61C224.176 291.267 221.672 294.523 221.571 294.661C221.507 294.745 221.464 294.838 221.446 294.938H220.024C219.819 294.938 219.64 295.032 219.514 295.173C219.325 295.27 219.182 295.424 219.182 295.634V298.186C219.182 298.396 219.321 298.544 219.506 298.637C219.632 298.785 219.814 298.882 220.024 298.882H283.481C283.686 298.882 283.865 298.789 283.992 298.646C284.2 298.554 284.36 298.402 284.36 298.185V295.633C284.36 295.414 284.195 295.257 283.984 295.161L283.982 295.164Z" fill="#7399C6"/>
<path d="M852.681 241.521C852.566 241.161 852.235 240.921 851.86 240.921H848.888V238.125H850.88C851.308 238.125 851.67 237.812 851.733 237.385C851.796 236.965 851.537 236.561 851.13 236.434L823.576 228.102C823.555 228.084 823.531 228.066 823.508 228.045C823.318 227.901 823.077 227.849 822.845 227.886C822.615 227.849 822.374 227.901 822.181 228.045C822.158 228.066 822.136 228.082 822.113 228.102L794.561 236.434C794.152 236.561 793.896 236.964 793.958 237.385C794.02 237.81 794.384 238.125 794.812 238.125H797.599V240.921H792.873C792.492 240.921 792.156 241.166 792.046 241.531C792.003 241.673 791.046 245.015 795.374 247.526C797.355 248.678 801.129 250.484 804.778 252.232C808.12 253.833 811.276 255.346 812.377 256.035C814.32 257.252 814.32 260.278 814.32 266.912V300.851C814.32 301.329 814.706 301.717 815.182 301.717H829.548C830.025 301.717 830.411 301.329 830.411 300.851V266.912C830.411 261.754 830.411 258.644 831.384 257.02C831.635 256.608 831.943 256.292 832.355 256.035C833.733 255.176 837.983 253.107 842.092 251.11C844.877 249.76 847.505 248.486 849.317 247.546C852.909 245.696 853.086 242.796 852.678 241.521H852.681Z" fill="#7399C6"/>
<path d="M178.785 208.937H178.714V192.557H177.28V193.705H173.266V192.557H171.259V193.705H167.531V192.557H165.525V193.705H161.51V192.557H159.502V193.705H155.777V192.557H153.482V193.705H150.041V192.557H147.748V193.705H144.021V192.557H142.014V197.438H140.329L136.332 171.555C136.282 171.219 135.993 171.029 135.653 171.029H105.537C105.196 171.029 104.907 171.261 104.857 171.597L100.928 197.962C100.905 198.112 100.944 198.255 101.011 198.383V298.758C101.011 299.139 101.337 299.629 101.717 299.629H148.506C148.711 299.629 148.89 299.485 149.013 299.293H178.786C179.165 299.293 179.474 298.983 179.474 298.602V209.626C179.474 209.246 179.167 208.937 178.786 208.937H178.785ZM123.146 176.42C123.248 176.42 123.348 176.431 123.451 176.435C124.226 176.569 124.966 176.901 125.638 177.398L125.702 177.81L126.041 177.759L126.035 177.721C127.732 179.199 128.902 181.718 128.902 184.455C128.902 186.157 128.401 187.946 127.53 189.397L127.514 189.4L127.517 189.418C126.462 191.166 124.873 192.42 122.962 192.42C122.878 192.42 122.801 192.44 122.727 192.468C118.276 192.257 114.72 188.749 114.72 184.457C114.72 180.164 118.501 176.42 123.146 176.42ZM177.279 195.715V208.936H173.265V195.715H177.279ZM171.259 195.715V208.936H167.531V195.715H171.259ZM165.524 195.715V208.936H161.508V195.715H165.524ZM159.501 195.715V208.936H155.776V195.715H159.501ZM153.481 195.715V208.936H150.039V195.715H153.481ZM144.019 195.715H147.747V197.436H144.019V195.715Z" fill="#A8B6C7" fill-opacity="0.56"/>
<path d="M81.4698 264.795H0.0255127V301.855H81.4698V264.795Z" fill="#C8B18B"/>
<path d="M409.532 204.74H403.453V197.969C403.453 196.425 402.392 195.508 400.615 195.508H368.633C366.948 195.508 366.193 196.947 366.193 197.969V204.74H361.628C359.881 204.74 359.097 205.978 359.097 206.854V225.682C359.097 226.608 360.17 227.476 361.003 227.476H363.71V299.571C363.71 300.383 364.462 301.368 365.397 301.368H404.92C405.74 301.368 406.294 300.648 406.294 299.571V227.476H409.534C410.356 227.476 410.907 226.756 410.907 225.682V206.854C410.907 205.836 410.477 204.74 409.534 204.74H409.532ZM366.193 224.637C366.098 224.637 366.012 224.664 365.927 224.69C365.841 224.664 365.755 224.637 365.66 224.637H366.191H366.193Z" fill="#7399C6"/>
<path d="M114.926 299.924C113.535 295.12 108.552 271.246 108.502 271.002C108.46 270.802 108.29 270.658 108.088 270.642C108.065 270.533 108.053 270.474 108.053 270.474H107.616C107.616 270.474 107.395 269.65 107.015 267.996H105.766C105.694 267.663 105.617 267.254 105.536 266.821C105.456 266.392 105.369 265.942 105.281 265.516H106.461C106.3 264.692 106.123 263.865 105.938 263.034H104.755C104.749 263.004 104.743 262.976 104.737 262.945C104.586 262.205 104.423 261.41 104.258 260.559H105.44C105.288 259.732 105.131 258.903 104.964 258.078H103.781C103.776 258.047 103.77 258.019 103.764 257.988C103.616 257.227 103.468 256.425 103.316 255.597H104.5C104.357 254.77 104.211 253.946 104.058 253.118H102.874C102.869 253.092 102.865 253.065 102.86 253.038L102.699 252.1C102.617 251.626 102.534 251.142 102.448 250.638H103.633C103.496 249.811 103.36 248.984 103.219 248.159H102.033C102.029 248.135 102.025 248.11 102.021 248.086C101.893 247.305 101.767 246.503 101.636 245.679H102.824C102.695 244.853 102.567 244.028 102.436 243.197H101.25L101.239 243.129C101.148 242.531 101.057 241.923 100.963 241.302L100.879 240.722H102.061L101.696 238.241H100.519L100.16 235.762H101.346C101.232 234.935 101.118 234.11 101.005 233.281H99.8163L99.807 233.216C99.7298 232.651 99.6553 232.078 99.578 231.501L99.4875 230.804H100.672C100.565 229.976 100.457 229.15 100.35 228.322H99.164L99.0495 227.443C98.9843 226.915 98.9151 226.38 98.8485 225.843H100.036C99.9335 225.014 99.8336 224.192 99.7298 223.363H98.5423C98.5396 223.344 98.537 223.326 98.5356 223.307C98.4664 222.736 98.3998 222.167 98.332 221.588L98.2507 220.884H99.4383C99.3424 220.06 99.2439 219.23 99.1494 218.405H97.9632L97.8487 217.411C97.7928 216.918 97.7382 216.422 97.6849 215.929H98.8725C98.8299 215.515 98.7899 215.182 98.7486 214.812C98.6981 214.355 98.6501 213.859 98.6049 213.448H97.416C97.4147 213.434 97.412 213.416 97.4107 213.402C97.3295 212.589 97.2523 211.777 97.1791 210.967H98.3692C98.2947 210.143 98.2281 209.318 98.1669 208.488H96.978C96.978 208.477 96.9767 208.466 96.9754 208.454C96.9141 207.633 96.8556 206.819 96.8076 206.005H97.9991C97.9459 205.181 97.9006 204.356 97.858 203.53H96.6678C96.6678 203.52 96.6678 203.511 96.6665 203.502C96.6252 202.679 96.5893 201.862 96.556 201.051H97.7462C97.7169 200.223 97.6916 199.397 97.6676 198.569H96.4761V198.557C96.4562 197.752 96.4442 196.958 96.4322 196.169V196.089H97.621C97.6091 195.263 97.6051 194.438 97.6011 193.609H96.4096C96.4042 192.776 96.4096 191.945 96.4215 191.134C96.4215 191.132 96.4215 191.131 96.4215 191.128H97.6117C97.6184 190.305 97.629 189.477 97.6477 188.649H96.4562C96.4721 187.818 96.4961 186.997 96.5214 186.184C96.5214 186.18 96.5214 186.176 96.5214 186.172H97.7116C97.7369 185.344 97.7701 184.518 97.8074 183.693H96.6173C96.6505 182.868 96.6891 182.048 96.7344 181.234C96.7344 181.226 96.7344 181.218 96.7357 181.21H97.9259C97.9658 180.383 98.0164 179.558 98.0697 178.731H96.8808C96.9328 177.907 96.99 177.089 97.0513 176.284C97.0513 176.273 97.0526 176.264 97.0539 176.253H98.2441C98.3067 175.428 98.3719 174.597 98.4425 173.774H97.2536C97.3242 172.951 97.4014 172.132 97.4759 171.337C97.4773 171.322 97.4786 171.307 97.4799 171.293H98.6688C98.7473 170.469 98.8325 169.641 98.9204 168.811H97.7329C97.8221 167.99 97.9113 167.182 98.0084 166.391L98.0124 166.353C98.0124 166.353 98.0138 166.343 98.0151 166.337H99.2039C99.3038 165.512 99.4023 164.681 99.5088 163.856H98.3213C98.4318 162.996 98.5396 162.182 98.6488 161.437C98.6515 161.417 98.6541 161.397 98.6568 161.375H99.843C99.9575 160.552 100.081 159.724 100.201 158.9H99.0162C99.1414 158.067 99.2692 157.262 99.3917 156.496L99.397 156.461C99.3996 156.448 99.4023 156.433 99.4036 156.419H100.588C100.627 156.004 100.663 155.99 100.696 155.774C100.804 155.163 100.907 154.352 101.011 153.938H99.8283C99.9748 153.089 100.123 152.295 100.262 151.553C100.269 151.519 100.274 151.49 100.281 151.457H101.46C101.631 150.631 101.795 149.806 101.948 148.979H100.77C100.953 148.073 101.124 147.293 101.273 146.619C101.275 146.61 101.277 146.603 101.279 146.594C101.297 146.564 101.311 146.531 101.322 146.5H102.474C102.494 146.5 102.519 146.296 102.537 146.198C102.745 145.241 102.902 144.598 102.989 144.272C103.03 144.103 103.05 144.021 103.05 144.021H94.3714C94.3674 143.732 94.3647 143.439 94.3634 143.142H94.4166V142.836H94.362C94.362 142.791 94.362 142.746 94.362 142.7C94.366 142.435 94.3714 142.169 94.3754 141.901H94.418V141.593H94.382C94.3873 141.282 94.394 140.972 94.4007 140.66H94.4193V140.355H94.4073C94.5351 134.239 94.7641 127.775 94.9039 124.107C94.9971 122.294 95.065 121.163 95.0676 121.124C95.0809 120.932 94.9704 120.754 94.796 120.676L81.0824 114.575C80.9546 114.519 80.8095 114.523 80.6857 114.584C80.5632 114.649 80.474 114.765 80.4461 114.901C80.4394 114.933 80.3076 115.574 80.0853 116.799H79.9735V117.107H80.0307C79.7578 118.627 79.3677 120.919 78.9071 123.984L76.6173 123.191V122.946H76.3111V123.085L72.9017 121.904V121.708H72.5941V121.797L70.52 121.079C70.3802 121.032 70.2244 121.053 70.1033 121.137C69.9821 121.227 69.9102 121.365 69.9102 121.511C69.9102 121.824 69.8037 150.164 70.5013 176.312H70.4787V176.617H70.5107C70.5186 176.929 70.528 177.239 70.5359 177.551H70.4787V177.859H70.5439C70.5533 178.17 70.5612 178.48 70.5706 178.791H70.4787V179.099H70.5799C70.5892 179.411 70.5985 179.721 70.6078 180.032H70.48V180.339H70.6172C70.6265 180.651 70.6358 180.962 70.6464 181.272H70.48V181.58H70.6558C70.6837 182.463 70.713 183.34 70.7423 184.21C70.8874 188.423 71.0804 192.968 71.3054 197.647V197.695H71.3081C71.3227 198.005 71.3387 198.315 71.3534 198.627H71.3054V198.934H71.368C72.6474 225.026 74.8387 254.775 74.864 255.132C74.8653 255.15 74.8746 255.164 74.8773 255.182L74.8839 255.616C74.8959 256.454 74.9132 257.279 74.9332 258.1L74.9359 258.199C74.9518 258.995 74.9678 259.789 74.9878 260.582C74.9984 261.033 75.0117 261.483 75.0237 261.928L75.254 268.985C75.274 269.52 75.294 270.062 75.3179 270.581C75.7293 280.643 76.3071 288.833 76.7238 293.977V299.418H77.03V297.567C77.1644 299.059 77.2483 299.88 77.251 299.91C77.2763 300.144 77.4706 300.323 77.7063 300.323L114.504 300.595H114.514C114.768 300.595 114.973 300.388 114.973 300.132C114.973 300.062 114.958 299.996 114.929 299.935L114.926 299.924ZM72.3492 200.167H72.3598C72.3771 200.476 72.3944 200.788 72.4131 201.099H72.3971C72.3811 200.788 72.3665 200.478 72.3505 200.167H72.3492ZM72.9363 209.777H72.9003V209.205C72.9123 209.395 72.9243 209.586 72.9363 209.777ZM73.096 212.258H72.9962C72.9789 211.948 72.9602 211.636 72.9429 211.324H73.0348C73.0547 211.636 73.0747 211.946 73.096 212.258ZM72.9003 210.086H72.9562C72.9762 210.396 72.9962 210.707 73.0161 211.017H72.9269C72.9176 210.861 72.9096 210.704 72.9003 210.548V210.086ZM73.0135 212.563H73.116C73.136 212.875 73.1573 213.186 73.1772 213.498H73.0667C73.0494 213.187 73.0308 212.875 73.0135 212.563ZM73.084 213.803H73.1972C73.2172 214.115 73.2385 214.427 73.2598 214.738H73.1386C73.12 214.427 73.1027 214.115 73.084 213.803ZM73.1559 215.044H73.2797C73.301 215.356 73.321 215.666 73.3423 215.977H73.2105C73.1919 215.666 73.1746 215.354 73.1559 215.044ZM72.4104 201.407H72.429C72.4464 201.717 72.465 202.029 72.4823 202.341H72.4583C72.4424 202.029 72.4264 201.719 72.4104 201.407ZM72.4743 202.647H72.5009C72.5196 202.958 72.5369 203.27 72.5555 203.582H72.5222C72.5063 203.27 72.4903 202.959 72.4743 202.647ZM72.5382 203.884H72.5728C72.5795 203.992 72.5861 204.099 72.5915 204.207V204.82H72.5861C72.5702 204.508 72.5529 204.196 72.5369 203.884H72.5382ZM73.3623 216.286C73.5114 218.486 73.6631 220.675 73.8149 222.832C73.8535 224.59 73.8948 226.294 73.9387 227.937C73.7031 224.219 73.4635 220.295 73.2278 216.286H73.3623ZM72.2626 198.44C72.2653 198.5 72.2693 198.559 72.272 198.619C72.2693 198.559 72.2666 198.5 72.2626 198.44ZM72.2893 198.925C72.3066 199.237 72.3239 199.549 72.3412 199.861H72.3332C72.3172 199.547 72.3026 199.237 72.2866 198.925H72.2893Z" fill="#7399C6"/>
<path d="M72.3226 265.484V265.432H60.968V266.496H59.9762V246.3H59.903V246.248H57.492V235.999H57.4175V235.944H56.7079V246.248H46.4916V244.525H46.417V244.47H41.9732L41.9679 244.525H41.9093L41.8787 244.845C41.876 244.887 41.7043 246.517 40.9588 249.091H27.6858V245.236H27.6099V245.184H18.9379L18.9219 245.236H18.874L18.7795 245.44C18.7369 245.535 14.4541 254.908 14.4541 268.445C14.4541 279.919 16.4044 288.048 17.0128 290.3H15.5444V300.957H15.6176V301.009H70.6199V291.064H72.3945V265.485H72.3213L72.3226 265.484ZM58.4839 249.092H47.9121V247.723H58.4839V249.092ZM44.2444 249.092H41.7442C42.1063 248.081 42.33 246.822 42.4658 246.068L44.2444 249.092ZM45.7088 245.238V246.801C45.7088 246.841 45.7141 247.02 45.6968 247.321C45.6369 247.742 45.5397 248.342 45.388 249.092H45.1616L42.8931 245.238H45.7088Z" fill="#A8B6C7" fill-opacity="0.56"/>
<path d="M201.663 278.829V277.564C201.663 277.515 201.653 277.467 201.635 277.424C201.574 277.198 201.377 277.03 201.132 277.03C200.839 277.03 200.6 277.268 200.6 277.564C200.6 277.515 200.59 277.467 200.572 277.424C200.51 277.198 200.313 277.03 200.068 277.03C199.775 277.03 199.537 277.268 199.537 277.564C199.537 277.515 199.526 277.467 199.509 277.424C199.446 277.198 199.249 277.03 199.004 277.03C198.711 277.03 198.472 277.268 198.472 277.564C198.472 277.515 198.461 277.467 198.444 277.424C198.381 277.198 198.185 277.03 197.94 277.03C197.648 277.03 197.408 277.268 197.408 277.564C197.408 277.515 197.397 277.467 197.38 277.424C197.317 277.198 197.12 277.03 196.877 277.03C196.583 277.03 196.343 277.268 196.343 277.564V263.907C196.343 263.859 196.332 263.813 196.315 263.77C196.314 263.766 196.31 263.762 196.307 263.758C196.291 263.722 196.27 263.687 196.243 263.661L196.561 262.412C196.644 262.347 196.698 262.244 196.698 262.132V260.354C196.698 260.156 196.54 260.001 196.342 260.001H195.633V244.013C195.633 243.966 195.623 243.921 195.609 243.882L196.252 241.044C196.306 240.981 196.34 240.904 196.34 240.816C196.34 240.785 196.33 240.758 196.323 240.73L196.563 239.673C196.644 239.608 196.697 239.508 196.697 239.396V236.909C196.697 236.713 196.539 236.553 196.34 236.553H195.632V231.581C195.828 231.581 195.986 231.421 195.986 231.225V228.735C195.986 228.539 195.828 228.382 195.632 228.382H195.488L194.921 228.002V225.502C194.921 225.453 194.913 225.407 194.893 225.363C194.869 225.306 194.329 224.06 193.23 223.837C193.013 219.541 192.67 219.541 192.338 219.541C192.228 219.541 192.123 219.585 192.043 219.666C191.944 219.766 191.647 220.067 191.686 223.843C190.825 224.047 190.416 224.934 190.316 225.434C190.312 225.453 190.31 225.478 190.31 225.502V227.964L189.338 228.412C189.186 228.482 189.103 228.647 189.139 228.813C189.155 228.883 189.194 228.949 189.245 228.997V231.222C189.245 231.418 189.404 231.578 189.599 231.578V236.551H188.889C188.692 236.551 188.535 236.711 188.535 236.907V239.548C188.535 239.578 188.538 239.616 188.548 239.645L189.822 244.108C189.845 244.184 189.892 244.249 189.954 244.292V259.997H189.597C189.403 259.997 189.243 260.152 189.243 260.35V261.814C189.197 261.835 189.158 261.866 189.126 261.911C189.058 261.998 189.035 262.109 189.063 262.217L189.597 264.229V277.061C189.541 277.041 189.483 277.025 189.42 277.025C189.154 277.025 188.942 277.224 188.904 277.483C188.89 277.468 188.877 277.451 188.864 277.435C188.862 277.43 188.862 277.423 188.86 277.418C188.814 277.254 188.701 277.122 188.547 277.062C185.779 273.855 176.97 264.82 165.115 264.143V264.067L164.556 264.091C164.556 264.091 164.359 264.099 164.238 264.105C164.095 264.099 163.899 264.091 163.897 264.091H163.339V264.143C151.272 264.832 142.386 274.184 139.799 277.231C139.702 277.107 139.557 277.023 139.388 277.023C139.093 277.023 138.857 277.262 138.857 277.558C138.857 277.508 138.846 277.46 138.829 277.418C138.766 277.191 138.568 277.023 138.324 277.023C138.03 277.023 137.791 277.262 137.791 277.558C137.791 277.508 137.781 277.46 137.764 277.418C137.701 277.191 137.504 277.023 137.26 277.023C136.965 277.023 136.728 277.262 136.728 277.558C136.728 277.508 136.717 277.46 136.7 277.418C136.637 277.191 136.439 277.023 136.195 277.023C135.901 277.023 135.664 277.262 135.664 277.558C135.664 277.508 135.653 277.46 135.636 277.418C135.574 277.193 135.375 277.023 135.132 277.023C134.839 277.023 134.599 277.262 134.599 277.558C134.599 277.508 134.588 277.46 134.571 277.418C134.509 277.191 134.311 277.023 134.068 277.023C133.774 277.023 133.535 277.262 133.535 277.558C133.535 277.508 133.525 277.46 133.507 277.418C133.445 277.191 133.248 277.023 133.004 277.023C132.709 277.023 132.472 277.262 132.472 277.558C132.472 277.508 132.461 277.46 132.444 277.418C132.381 277.191 132.184 277.023 131.939 277.023C131.646 277.023 131.408 277.262 131.408 277.558C131.408 277.508 131.397 277.46 131.38 277.418C131.317 277.191 131.119 277.023 130.875 277.023C130.583 277.023 130.344 277.262 130.344 277.558C130.344 277.508 130.334 277.46 130.316 277.418C130.254 277.191 130.055 277.023 129.81 277.023C129.519 277.023 129.279 277.262 129.279 277.558C129.279 277.508 129.269 277.46 129.251 277.418C129.189 277.191 128.992 277.023 128.747 277.023C128.454 277.023 128.216 277.262 128.216 277.558C128.216 277.508 128.205 277.46 128.188 277.418C128.125 277.191 127.928 277.023 127.683 277.023C127.39 277.023 127.15 277.262 127.15 277.558C127.15 277.508 127.14 277.46 127.123 277.418C127.061 277.191 126.866 277.023 126.619 277.023C126.325 277.023 126.087 277.262 126.087 277.558C126.087 277.508 126.076 277.46 126.059 277.418C125.996 277.191 125.801 277.023 125.554 277.023C125.261 277.023 125.023 277.262 125.023 277.558V279.532H125.377V299.07H202.025V278.824H201.669L201.663 278.829ZM194.212 236.555H193.502V231.582H194.212V236.555ZM192.794 231.582V236.555H192.438V231.582H192.794ZM191.729 231.582V236.555H191.018V231.582H191.729Z" fill="#7399C6"/>
<path d="M356.568 299.759L356.003 296.92C355.984 296.822 355.947 296.728 355.893 296.647L353.747 293.362V273.57C353.747 273.143 353.399 272.794 352.972 272.794H349.617V270.988C349.617 270.559 349.272 270.213 348.843 270.213H340.785C341.455 267.122 343.36 257.103 342.317 247.479C341.271 237.798 336.626 228.265 332.647 224.71C332.517 224.592 332.386 224.48 332.256 224.374L332.089 219.67C332.177 219.511 332.317 219.251 332.493 218.917C334.591 214.958 342.32 199.004 342.32 178.804C342.32 158.604 335.346 153.837 332.752 152.543C334.507 149.59 340.337 138.993 340.45 128.389C340.58 116.144 338.091 112.618 332.772 107.978C332.686 107.902 332.598 107.823 332.511 107.747C328.388 104.089 324.256 99.8436 323.171 95.3175C323.068 94.8591 322.943 94.4086 322.889 93.9754C322.859 93.6729 322.787 93.369 322.787 93.0691V80.1465C322.787 79.7174 322.441 79.3708 322.014 79.3708C321.587 79.3708 321.239 79.7174 321.239 80.1465V91.5724C321.239 91.5724 321.239 91.5738 321.239 91.5751C321.198 91.6631 321.173 91.7604 321.167 91.863C321.166 91.891 321.11 92.8546 320.905 94.4339C320.218 95.2509 314.829 101.897 311.168 113.191C310.457 113.534 309.948 113.903 309.69 114.266C309.119 115.067 309.119 115.865 309.228 116.43L309.323 116.786C309.364 116.907 309.399 116.981 309.399 116.981C309.443 117.067 309.509 117.144 309.593 117.198L309.897 117.614C309.585 118.852 309.301 120.139 309.046 121.465H305.248C304.963 121.465 304.703 121.623 304.567 121.873C304.494 122.004 297.372 135.358 297.372 150.786C297.372 154.57 297.84 158.349 298.546 161.904C299.634 172.044 302.178 177.25 304.338 179.905C304.642 180.581 304.882 181.088 305.028 181.394C303.926 183.853 297.63 198.452 297.63 211.301V212.114C297.626 225.254 297.625 235.662 305.792 245.896C305.687 246.175 305.519 246.605 305.325 247.105C304.725 248.642 303.722 251.21 302.322 255.023C301.262 257.903 298.792 267.496 298.156 269.999H291.207C290.787 269.999 290.444 270.333 290.433 270.751L290.396 272.254L287.318 272.213C287.108 272.201 286.912 272.293 286.763 272.438C286.616 272.584 286.535 272.782 286.535 272.992L286.528 295.228L285.392 296.659C285.332 296.734 285.289 296.82 285.26 296.912L284.389 299.684C284.315 299.919 284.354 300.176 284.502 300.375C284.647 300.572 284.88 300.689 285.125 300.689H355.805C356.036 300.689 356.255 300.591 356.403 300.408C356.552 300.232 356.609 299.994 356.562 299.764L356.568 299.759ZM320.33 98.0217C319.71 101.222 318.65 105.301 316.854 109.337C316.381 110.402 315.997 111.242 315.66 111.949C314.789 112.077 313.994 112.242 313.285 112.433C315.592 105.743 318.465 100.815 320.33 98.0217ZM311.276 119.501L311.396 119.666C311.312 119.818 311.227 119.969 311.137 120.13C311.183 119.921 311.228 119.709 311.276 119.501ZM332.005 114.264C331.804 113.982 331.449 113.697 330.971 113.423C329.329 112.468 326.14 111.653 322.035 111.653H319.833C319.065 111.653 318.333 111.684 317.63 111.735C317.866 111.214 318.125 110.64 318.419 109.967C320.42 105.416 321.52 100.894 322.12 97.5153C323.237 100.579 325.596 104.155 330.477 108.245C330.723 108.452 330.962 108.659 331.193 108.867C331.213 108.885 331.236 108.904 331.256 108.923C331.455 109.104 331.649 109.284 331.839 109.466C337.003 114.46 338.253 119.682 338.551 121.982H329.621V120.591L332.338 116.591C332.373 116.542 332.398 116.483 332.411 116.425C332.547 115.892 332.584 115.08 332.004 114.263L332.005 114.264Z" fill="#7399C6"/>
<path d="M674.875 204.381C674.372 202.204 673.869 200.022 673.359 197.854C679.818 170.206 679.271 138.574 679.263 138.264C679.263 138.205 679.256 138.145 679.247 138.085V135.649C679.247 135.325 678.985 135.058 678.66 135.058H676.801C676.474 135.058 676.209 135.325 676.209 135.649V136.815L639.82 136.804V135.649C639.82 135.325 639.557 135.058 639.23 135.058H637.397C637.071 135.058 636.807 135.325 636.807 135.649V139.167C636.807 139.237 636.822 139.306 636.848 139.373C636.868 144.873 637.248 170.476 641.92 196.782C641.906 196.855 641.906 196.933 641.92 197.01C641.927 197.043 642.03 197.536 642.212 198.4C642.235 198.519 642.255 198.639 642.277 198.758C642.265 198.797 642.255 198.836 642.248 198.873C634.747 231.505 637.136 279.444 640.077 297.859C640.194 298.577 640.809 299.101 641.54 299.101H641.552L674.231 298.902C674.959 298.902 675.569 298.38 675.685 297.665C676.55 292.246 683.884 243.601 674.872 204.384L674.875 204.381Z" fill="#A8B6C7" fill-opacity="0.56"/>
<path d="M624.329 83.8491C624.178 83.7519 623.987 83.7385 623.821 83.8105L613.223 88.5872C613.031 88.6738 612.912 88.8631 612.912 89.0696V93.5504H609.305V76.3376C609.305 76.0457 609.068 75.8045 608.775 75.8045H608.643V70.5014C608.643 70.2681 608.489 70.0682 608.28 69.9989V57.7707C608.28 57.4775 608.042 57.2402 607.748 57.2402H607.151C606.859 57.2402 606.621 57.4775 606.621 57.7707V69.9989C606.408 70.0696 606.256 70.2695 606.256 70.5014V75.8045H606.125C605.83 75.8045 605.595 76.0457 605.595 76.3376V93.5504H602.35V76.3376C602.35 76.0457 602.113 75.8045 601.818 75.8045H601.689V70.5014C601.689 70.2681 601.534 70.0682 601.324 69.9989V57.7707C601.324 57.4775 601.086 57.2402 600.794 57.2402H600.199C599.905 57.2402 599.667 57.4775 599.667 57.7707V69.9989C599.456 70.0696 599.303 70.2695 599.303 70.5014V75.8045H599.173C598.878 75.8045 598.64 76.0457 598.64 76.3376V93.5504H594.634V89.0696C594.634 88.8631 594.513 88.6738 594.321 88.5872L583.723 83.8105C583.558 83.7372 583.366 83.7519 583.216 83.8491C583.065 83.9478 582.975 84.1157 582.975 84.2943V299.946C582.975 300.238 583.21 300.476 583.506 300.476H585.869C585.96 300.55 586.067 300.598 586.191 300.598H621.405C621.53 300.598 621.639 300.55 621.73 300.476H624.041C624.334 300.476 624.572 300.238 624.572 299.946V84.2943C624.572 84.1157 624.48 83.9478 624.33 83.8491H624.329ZM612.912 121.28H611.727V118.216C611.727 117.924 611.487 117.684 611.192 117.684H609.606V106.282H612.912V121.28ZM604.745 106.282V117.684H602.673V106.282H604.745ZM597.815 106.282V117.684H595.738C595.446 117.684 595.208 117.924 595.208 118.216V121.28H594.632V106.282H597.815Z" fill="#7399C6"/>
<path d="M401.557 293.686H401.599V293.716C401.587 293.703 401.571 293.696 401.557 293.686ZM590.438 293.715V293.686H590.478C590.465 293.696 590.45 293.703 590.438 293.715ZM593.785 291.974C593.781 291.622 593.496 291.341 593.149 291.341H593.146L572.342 291.401V285.942C572.342 285.589 572.058 285.306 571.705 285.306H557.197V280.964H558.783C559.133 280.964 559.419 280.679 559.419 280.327V278.901C559.419 278.552 559.131 278.267 558.783 278.267H530.157V33.8965C530.157 33.3661 529.73 32.9396 529.204 32.9396H528.861C528.861 32.9396 528.851 32.9382 528.847 32.9382H464.188C464.188 32.9382 464.178 32.9396 464.173 32.9396H463.903C463.373 32.9396 462.95 33.3661 462.95 33.8965V278.268H433.253C432.901 278.268 432.615 278.553 432.615 278.902V280.329C432.615 280.68 432.901 280.966 433.253 280.966H434.837V285.308H420.331C419.98 285.308 419.693 285.59 419.693 285.943V291.403L398.892 291.343H398.889C398.541 291.343 398.256 291.624 398.253 291.976L398.232 294.155C398.23 294.323 398.294 294.492 398.417 294.613C398.535 294.73 398.698 294.8 398.867 294.8H400.508V298.137C400.508 298.489 400.793 298.778 401.143 298.781L486.482 298.891C486.522 298.891 486.557 298.877 486.595 298.87H505.442C505.48 298.878 505.515 298.891 505.555 298.891H505.558L590.895 298.781C591.243 298.778 591.526 298.489 591.526 298.137V294.8H593.171C593.339 294.8 593.501 294.73 593.622 294.613C593.744 294.492 593.808 294.324 593.808 294.155L593.786 291.976L593.785 291.974ZM511.019 90.9701C506.048 110.293 498.271 118.475 496.016 118.475C493.619 118.475 488.62 114.975 482.08 91.5245C475.709 68.6793 473.981 51.5345 473.588 46.5606C478.286 45.1838 487.629 42.8421 496.84 42.8421C506.628 42.8421 515.598 44.9999 519.475 46.0808C518.723 51.3066 515.295 74.3676 511.02 90.9714L511.019 90.9701Z" fill="#7399C6"/>
<path d="M616.752 271.408H614.777C614.753 264.815 613.565 260.293 612.571 257.67C611.057 253.264 607.522 245.035 600.862 239.455C600.781 239.387 600.678 239.35 600.576 239.35H599.768V233.048C599.768 232.883 599.636 232.751 599.473 232.751H599.358V227.76C599.358 227.597 599.223 227.465 599.058 227.465H598.728C598.563 227.465 598.432 227.598 598.432 227.76V232.751H598.318C598.153 232.751 598.021 232.883 598.021 233.048V239.35H596.947C596.699 239.35 596.501 239.551 596.501 239.796V241.529H596.155C595.432 240.786 594.689 240.087 593.931 239.455C593.851 239.387 593.75 239.35 593.645 239.35H592.838V233.048C592.838 232.883 592.705 232.751 592.539 232.751H592.423V227.76C592.423 227.597 592.29 227.465 592.129 227.465H591.796C591.635 227.465 591.5 227.598 591.5 227.76V232.751H591.385C591.221 232.751 591.088 232.883 591.088 233.048V239.35H590.015C589.767 239.35 589.569 239.553 589.569 239.799V245.19H586.712C586.609 245.19 586.511 245.223 586.432 245.287L586.105 245.55C586.083 245.564 586.061 245.587 586.045 245.606C585.17 246.62 583.056 249.192 581.003 252.663C580.464 250.512 579.983 249.098 579.76 248.482C579.781 248.404 579.781 248.322 579.758 248.245C578.045 242.23 575.064 236.848 572.611 233.082C572.607 233.064 572.599 233.051 572.584 233.04C571.077 230.732 569.772 229.034 569.088 228.181C569.072 228.16 569.054 228.138 569.032 228.121L568.63 227.776C568.549 227.709 568.448 227.669 568.339 227.669H564.764V225.004C564.78 224.99 564.792 224.972 564.792 224.948C564.792 224.925 564.78 224.906 564.763 224.892V220.481C564.771 220.355 564.727 220.236 564.644 220.144C564.559 220.056 564.439 220.003 564.318 220.003H562.944V211.589C562.944 211.424 562.81 211.292 562.646 211.292H562.44V204.645C562.44 204.481 562.308 204.351 562.145 204.351H561.741C561.577 204.351 561.445 204.483 561.445 204.645V211.292H561.24C561.075 211.292 560.942 211.423 560.942 211.589V220.003H559.893C559.784 220.003 559.677 220.043 559.596 220.118C558.703 220.927 557.827 221.806 556.973 222.747H556.318V220.449C556.318 220.202 556.119 220.003 555.872 220.003H554.5V211.589C554.5 211.424 554.367 211.292 554.202 211.292H553.997V204.645C553.997 204.481 553.865 204.351 553.701 204.351H553.298C553.134 204.351 553.001 204.483 553.001 204.645V211.292H552.794C552.631 211.292 552.498 211.423 552.498 211.589V220.003H551.45C551.339 220.003 551.233 220.043 551.152 220.118C548.783 222.258 546.742 224.696 544.992 227.217H544.943C544.901 227.217 544.867 227.248 544.867 227.289C544.867 227.315 544.883 227.333 544.901 227.347C540.726 233.399 538.225 239.913 536.936 243.954C535.717 247.429 534.264 253.384 534.251 262.096H531.749C531.502 262.096 531.302 262.297 531.302 262.544V302.247C531.302 302.493 531.502 302.693 531.749 302.693H534.455C534.525 302.735 534.606 302.763 534.696 302.763H582.948C583.039 302.763 583.12 302.735 583.189 302.693H588.107C588.208 302.693 588.296 302.653 588.371 302.597H614.332C614.408 302.597 614.481 302.574 614.545 302.538H616.752C617 302.538 617.2 302.341 617.2 302.093V271.851C617.2 271.607 617 271.404 616.752 271.404V271.408ZM596.499 241.679V241.886C596.433 241.817 596.365 241.749 596.3 241.679H596.499ZM556.836 222.903C556.663 223.096 556.489 223.288 556.318 223.487V222.903H556.836Z" fill="#7399C6"/>
<path d="M847.142 288.572C847.142 288.572 847.147 288.572 847.158 288.569C847.083 288.515 847.142 288.572 847.142 288.572Z" fill="#7399C6"/>
<path d="M847.142 288.498H847.158C847.083 288.44 847.142 288.498 847.142 288.498Z" fill="#7399C6"/>
<path d="M966.224 285.903C966.098 285.666 965.851 285.518 965.581 285.518C965.556 285.518 965.536 285.526 965.512 285.53C964.412 285.265 958.25 283.416 951.14 274.079L950.84 269.308C950.818 268.927 950.504 268.629 950.125 268.625C950.122 268.625 950.119 268.627 950.118 268.627C949.74 268.651 949.426 268.916 949.392 269.289L949.028 273.695C948.851 273.839 948.562 274.06 948.17 274.332C947.638 273.71 947.117 273.062 946.619 272.4L946.333 267.894C946.312 267.512 945.998 267.215 945.616 267.213H945.61C945.231 267.213 944.918 267.5 944.886 267.88L944.533 272.108C944.105 272.393 943.191 272.999 941.538 274.07C940.7 272.822 939.958 271.469 939.319 270.049L939.008 265.073C938.983 264.691 938.67 264.395 938.292 264.392C938.29 264.392 938.288 264.392 938.284 264.392C937.891 264.392 937.592 264.68 937.557 265.057L937.143 270.006C936.584 270.93 934.883 273.435 931.702 275.952C930.133 273.758 929.033 271.4 928.429 268.939C928.425 268.921 928.421 268.908 928.418 268.895L928.132 264.283C928.108 263.903 927.792 263.606 927.41 263.601H927.405C927.028 263.601 926.713 263.89 926.679 264.268L926.264 269.242C925.392 270.652 922.033 275.901 918.765 278.746C916.49 274.977 915.164 270.165 914.694 268.252C914.714 268.188 914.722 268.122 914.722 268.052C914.722 267.996 914.714 267.942 914.704 267.886L914.377 262.645C914.353 262.264 914.04 261.965 913.659 261.964H913.651C913.276 261.964 912.959 262.255 912.927 262.629L912.521 267.499C911.702 271.266 909.426 278.185 905.905 281.287C901.691 277.564 899.971 268.805 899.751 267.596L899.44 262.645C899.417 262.264 899.104 261.965 898.722 261.964H898.714C898.339 261.964 898.022 262.252 897.99 262.629L897.544 267.992C897.536 268.076 897.544 268.159 897.565 268.239C897.098 270.142 895.772 274.971 893.489 278.746C890.087 275.781 886.581 270.207 885.861 269.028L885.576 264.452C885.552 264.073 885.236 263.773 884.856 263.77C884.854 263.77 884.85 263.771 884.848 263.773C884.489 263.782 884.157 264.062 884.123 264.436L883.712 269.358C883.089 271.675 882.027 273.887 880.553 275.952C877.218 273.313 875.514 270.688 875.041 269.894L874.751 265.241C874.726 264.86 874.414 264.563 874.034 264.56H874.026C873.649 264.56 873.333 264.847 873.301 265.227L872.89 270.147C872.264 271.535 871.533 272.852 870.719 274.068C869.145 273.05 868.25 272.457 867.806 272.159L867.539 267.892C867.513 267.511 867.2 267.214 866.819 267.211H866.813C866.437 267.211 866.122 267.499 866.09 267.879L865.721 272.296C865.191 272.998 864.641 273.681 864.089 274.331C863.749 274.102 863.487 273.902 863.31 273.763L863.028 269.246C863.004 268.868 862.692 268.568 862.311 268.565H862.302C861.924 268.565 861.609 268.853 861.578 269.232L861.179 273.986C854.054 283.389 847.842 285.26 846.737 285.528C846.715 285.525 846.699 285.518 846.676 285.518C846.676 285.518 846.673 285.518 846.67 285.518C846.401 285.518 846.154 285.666 846.03 285.903C845.954 286.045 845.942 286.214 845.971 286.377C845.967 286.483 845.982 286.591 846.027 286.695L851.949 299.892C852.07 300.164 852.331 300.325 852.609 300.325C852.712 300.325 852.811 300.301 852.907 300.26C853.271 300.096 853.436 299.667 853.271 299.297L849.799 291.552C849.953 291.758 850.11 291.968 850.278 292.192C852.613 295.31 854.027 297.708 854.812 299.19L854.907 299.45V299.538C854.907 299.742 854.992 299.926 855.128 300.058L855.421 300.864C855.526 301.157 855.804 301.341 856.102 301.341C856.122 301.341 856.144 301.334 856.166 301.333C856.295 301.358 856.429 301.365 856.562 301.316C856.933 301.18 857.127 300.768 856.998 300.393C856.997 300.389 856.98 300.339 856.954 300.265H858.435V300.271C858.561 300.531 858.821 300.685 859.092 300.685C859.198 300.685 859.304 300.66 859.405 300.612C859.561 300.537 859.668 300.409 859.737 300.265H861.123L861.341 300.864C861.431 301.11 861.641 301.273 861.884 301.321C861.952 301.344 862.025 301.358 862.097 301.358C862.494 301.38 862.855 301.044 862.855 300.635C862.855 300.508 862.823 300.391 862.769 300.291C862.767 300.284 862.763 300.272 862.76 300.265H865.692C865.819 300.512 866.074 300.66 866.336 300.66C866.441 300.66 866.548 300.637 866.649 300.589C866.794 300.519 866.895 300.4 866.964 300.265H871.717L871.935 300.864C872.042 301.154 872.316 301.341 872.617 301.341C872.624 301.341 872.632 301.341 872.638 301.341C872.682 301.35 872.725 301.361 872.77 301.361H872.787C873.185 301.357 873.506 301.033 873.506 300.635C873.506 300.543 873.49 300.457 873.46 300.377C873.453 300.347 873.446 300.307 873.438 300.265H880.618C880.757 300.443 880.966 300.545 881.19 300.545C881.282 300.545 881.378 300.528 881.473 300.491C881.587 300.441 881.675 300.359 881.748 300.267H886.98C887 300.333 887.02 300.395 887.035 300.448C887.035 300.576 887.073 300.7 887.132 300.807C887.219 301.157 887.539 301.393 887.907 301.357C887.934 301.354 887.959 301.344 887.985 301.338C887.992 301.338 888 301.341 888.007 301.341H888.052C888.373 301.322 888.64 301.092 888.714 300.776C888.718 300.761 888.76 300.575 888.837 300.265H897.403C897.529 300.504 897.77 300.66 898.038 300.66C898.099 300.66 898.158 300.652 898.216 300.64C898.427 300.587 898.586 300.445 898.68 300.267H905.336V300.636C905.336 301.024 905.644 301.345 906.031 301.36C906.043 301.362 906.052 301.362 906.064 301.362C906.091 301.362 906.114 301.352 906.14 301.349C906.158 301.349 906.172 301.358 906.189 301.358H906.235C906.626 301.334 906.928 301.009 906.919 300.615L906.912 300.375C906.912 300.343 906.914 300.303 906.914 300.265H913.581C913.673 300.444 913.83 300.587 914.04 300.639C914.101 300.652 914.163 300.659 914.218 300.659C914.489 300.659 914.73 300.503 914.855 300.264H923.414C923.491 300.573 923.535 300.76 923.539 300.775C923.613 301.09 923.881 301.321 924.202 301.34H924.251C924.251 301.34 924.264 301.337 924.271 301.337C924.296 301.342 924.322 301.353 924.348 301.356C924.7 301.39 925.019 301.166 925.115 300.835C925.186 300.721 925.228 300.587 925.228 300.445V300.412C925.243 300.368 925.258 300.315 925.275 300.263H930.509C930.583 300.355 930.669 300.437 930.785 300.487C930.878 300.525 930.974 300.541 931.07 300.541C931.292 300.541 931.501 300.439 931.64 300.261H938.815C938.793 300.392 938.775 300.472 938.774 300.481C938.696 300.863 938.93 301.237 939.303 301.332C939.412 301.36 939.518 301.356 939.622 301.336C939.626 301.336 939.632 301.336 939.635 301.336C939.936 301.336 940.211 301.149 940.32 300.859L940.537 300.26H945.292C945.361 300.393 945.463 300.513 945.61 300.584C945.711 300.632 945.819 300.655 945.922 300.655C946.187 300.655 946.438 300.508 946.566 300.26H949.496C949.468 300.337 949.454 300.383 949.451 300.388C949.321 300.763 949.514 301.174 949.885 301.31C950.013 301.357 950.142 301.353 950.267 301.33C950.555 301.316 950.814 301.138 950.914 300.859L951.134 300.26H952.522C952.592 300.404 952.699 300.532 952.854 300.607C952.952 300.655 953.06 300.68 953.165 300.68C953.436 300.68 953.697 300.527 953.822 300.265L953.824 300.26H955.299C955.274 300.332 955.257 300.384 955.255 300.388C955.126 300.763 955.318 301.174 955.692 301.31C955.824 301.358 955.958 301.353 956.086 301.328C956.108 301.329 956.129 301.336 956.15 301.336C956.448 301.336 956.727 301.152 956.832 300.859L957.094 300.139C957.298 300.01 957.441 299.792 957.441 299.532V299.178C958.227 297.695 959.639 295.301 961.972 292.185C962.148 291.953 962.309 291.737 962.467 291.522L958.986 299.289C958.821 299.658 958.983 300.088 959.348 300.252C959.448 300.293 959.549 300.317 959.65 300.317C959.924 300.317 960.191 300.155 960.309 299.884L966.228 286.687C966.277 286.581 966.288 286.469 966.284 286.358C966.311 286.199 966.296 286.034 966.223 285.895L966.224 285.903ZM932.223 291.737C932.312 291.67 932.401 291.605 932.489 291.541C932.753 291.348 933.012 291.164 933.265 290.991C933.321 290.952 933.377 290.912 933.433 290.875C933.699 290.695 933.958 290.527 934.209 290.368C934.26 290.335 934.31 290.304 934.361 290.272L933.735 291.737H932.22H932.223ZM936.078 290.699C936.133 290.765 936.189 290.831 936.242 290.899C936.458 291.171 936.66 291.453 936.854 291.738H935.317L935.863 290.462C935.933 290.543 936.009 290.617 936.08 290.7L936.078 290.699ZM911.749 291.71C911.77 291.692 911.793 291.672 911.817 291.653C912.088 291.428 912.36 291.215 912.633 291.012C912.67 290.983 912.71 290.953 912.75 290.924C913.015 290.729 913.279 290.546 913.54 290.374C913.575 290.351 913.61 290.328 913.645 290.306C913.914 290.131 914.176 289.964 914.433 289.814C914.436 289.814 914.437 289.814 914.438 289.811C914.696 289.659 914.947 289.521 915.189 289.39C915.217 289.374 915.248 289.358 915.277 289.342C915.506 289.221 915.724 289.111 915.935 289.009C915.973 288.99 916.012 288.972 916.049 288.953C916.117 288.92 916.179 288.893 916.246 288.862L915.524 291.738H911.718C911.728 291.73 911.737 291.72 911.749 291.712V291.71ZM917.894 288.957C917.95 289.001 918.005 289.048 918.059 289.094C918.242 289.249 918.421 289.411 918.598 289.579C918.636 289.615 918.674 289.649 918.712 289.686C918.921 289.89 919.124 290.102 919.324 290.32C919.363 290.363 919.401 290.408 919.44 290.452C919.6 290.632 919.757 290.816 919.91 291.003C919.962 291.065 920.012 291.127 920.063 291.189C920.207 291.369 920.346 291.552 920.484 291.737H917.022L917.749 288.846C917.797 288.884 917.846 288.917 917.894 288.957ZM878.71 290.219C878.785 290.264 878.859 290.311 878.937 290.362C879.211 290.534 879.489 290.715 879.779 290.912C879.798 290.923 879.815 290.936 879.831 290.949C880.109 291.137 880.396 291.341 880.686 291.553C880.764 291.61 880.843 291.668 880.922 291.726C880.926 291.729 880.931 291.733 880.935 291.736H878.523L877.76 289.948C877.822 289.884 877.874 289.813 877.938 289.75C878.184 289.894 878.447 290.051 878.712 290.216L878.71 290.219ZM876.301 291.737C876.428 291.549 876.567 291.367 876.704 291.183L876.941 291.737H876.301ZM896.436 288.646C896.47 288.661 896.502 288.674 896.535 288.689C896.712 288.766 896.901 288.854 897.098 288.949C897.141 288.968 897.183 288.989 897.225 289.009C897.432 289.11 897.647 289.218 897.873 289.337C897.906 289.355 897.938 289.374 897.973 289.391C898.208 289.518 898.449 289.651 898.7 289.799C898.709 289.803 898.717 289.809 898.725 289.814C898.977 289.962 899.236 290.126 899.498 290.295C899.538 290.324 899.58 290.35 899.621 290.376C899.875 290.544 900.132 290.724 900.393 290.915C900.44 290.951 900.488 290.985 900.535 291.02C900.798 291.216 901.061 291.422 901.325 291.641C901.36 291.67 901.394 291.7 901.43 291.729C901.431 291.73 901.434 291.733 901.437 291.736H896.731L895.909 288.461C895.919 288.454 895.928 288.445 895.939 288.437C896.088 288.496 896.258 288.569 896.435 288.645L896.436 288.646ZM892.672 291.737C892.684 291.722 892.693 291.708 892.705 291.694C892.821 291.538 892.939 291.385 893.06 291.233C893.134 291.14 893.209 291.048 893.284 290.956C893.408 290.805 893.534 290.66 893.661 290.516C893.723 290.444 893.787 290.37 893.851 290.299C894.04 290.092 894.233 289.892 894.432 289.699C894.483 289.647 894.535 289.599 894.589 289.551C894.615 289.526 894.642 289.505 894.667 289.479L895.233 291.737H892.672Z" fill="#7399C6"/>
<path d="M847.142 287.842C847.142 287.842 847.147 287.842 847.158 287.842C847.083 287.787 847.142 287.842 847.142 287.842Z" fill="#7399C6"/>
<path d="M847.142 287.769C847.142 287.769 847.147 287.766 847.158 287.766C847.083 287.709 847.142 287.769 847.142 287.769Z" fill="#7399C6"/>
<path d="M814.993 262.38L815.196 261.963L816.064 262.38H814.993ZM815.664 260.999L816.857 258.543H818.047C818.15 259.731 818.256 260.935 818.364 262.164C818.368 262.215 818.373 262.271 818.377 262.323L815.664 260.999ZM821.62 261.027C821.178 255.901 820.782 251.201 820.393 246.525C818.372 222.277 816.913 204.759 811.339 168.007C803.82 118.375 800.316 106.043 799.104 103.004L798.298 86.8373C798.286 86.704 798.272 86.5707 798.246 86.4428L798.01 85.2259C797.725 83.7532 796.447 82.6843 794.972 82.6843C794.856 82.6843 794.73 82.6923 794.673 82.7017C794.585 82.707 794.497 82.7203 794.41 82.7376C794.334 82.723 794.268 82.7136 794.216 82.7096C794.109 82.6937 793.982 82.6843 793.847 82.6843C792.375 82.6843 791.098 83.7519 790.813 85.2259L790.572 86.4854C790.551 86.6267 790.531 86.7666 790.527 86.8906L789.719 103.004C788.51 106.039 785.007 118.368 777.487 168.007C771.911 204.757 770.452 222.277 768.425 246.608C768.067 250.928 767.658 255.823 767.208 261.027C766.252 272.077 765.915 296.914 766.092 299.337C766.203 300.971 767.559 302.252 769.18 302.252H819.648C821.265 302.252 822.622 300.972 822.736 299.341C822.912 296.888 822.572 272.016 821.62 261.027ZM812.726 227.264L812.831 226.956L813.358 227.264H812.726ZM779.786 192.628H778.906L779.6 192.119L779.786 192.628ZM775.711 227.264H775.254L775.624 227.081L775.711 227.264ZM815.316 227.157L813.188 225.911L813.996 223.544H814.967C815.085 224.753 815.201 225.957 815.316 227.157ZM809.349 192.628L809.498 192.056L810.21 192.628H809.347H809.349ZM792.96 135.97H786.717L792.96 132.829V135.97ZM792.96 141.197H786.187L792.96 137.785V141.197ZM792.96 146.254H785.998L792.96 142.747V146.254ZM792.96 147.387V151.741H784.086L792.737 147.387H792.96ZM787.976 125.072L788.204 125.459L788.467 125.964L788.477 125.922L791.366 130.831H786.903C787.28 128.76 787.637 126.847 787.976 125.071V125.072ZM792.96 131.965V132.02L786.07 135.489C786.291 134.235 786.506 133.03 786.715 131.87V131.965H792.959H792.96ZM785.834 136.831V137.102H792.713L785.126 140.921C785.368 139.507 785.604 138.143 785.834 136.831ZM784.886 142.333H792.18L784.443 146.23C784.431 146.237 784.423 146.247 784.411 146.255H784.227C784.452 144.906 784.672 143.6 784.888 142.334L784.886 142.333ZM784.037 147.388H791.129L783.396 151.28C783.613 149.946 783.828 148.649 784.037 147.388ZM783.136 152.874H792.96V153.283C790.098 153.535 787.498 154.693 785.447 156.472H782.555C782.752 155.246 782.945 154.045 783.134 152.874H783.136ZM782.374 157.604H784.29C783.609 158.354 783.009 159.179 782.514 160.071C782.563 160.051 782.619 160.029 782.67 160.008C782.241 160.768 781.887 161.573 781.613 162.415C781.871 160.766 782.125 159.163 782.374 157.604ZM777.902 187.491L779.242 191.142L777.215 192.629H777.159C777.387 190.941 777.624 189.211 777.873 187.43L777.902 187.491ZM773.544 223.546H773.935L775.165 226.119L773.203 227.095C773.313 225.915 773.428 224.734 773.545 223.546H773.544ZM809.775 191.001L810.66 187.618C810.88 189.189 811.09 190.719 811.294 192.219L809.775 191.001ZM795.55 147.388H796.186L804.834 151.742H795.55V147.388ZM795.55 146.255V142.541L802.925 146.255H795.55ZM795.55 141.199V137.579L802.737 141.199H795.55ZM795.55 132.621L802.209 135.971H795.55V132.621ZM780.962 166.584C780.962 166.608 780.96 166.632 780.96 166.656C780.96 172.17 784.31 176.901 789.085 178.919H779.095C779.589 175.56 780.118 172.042 780.691 168.319C780.782 167.734 780.871 167.158 780.96 166.584H780.962ZM799.421 178.919C804.198 176.9 807.547 172.168 807.547 166.656C807.547 166.64 807.546 166.624 807.546 166.607V166.595C807.635 167.166 807.723 167.737 807.814 168.319C808.387 172.042 808.917 175.56 809.411 178.919H799.421ZM804.11 157.604H806.134C806.383 159.16 806.635 160.761 806.894 162.406C806.308 160.607 805.352 158.975 804.111 157.604H804.11ZM802.949 156.471C800.924 154.716 798.367 153.561 795.55 153.288V152.872H805.372C805.562 154.043 805.755 155.245 805.953 156.471H802.949ZM797.794 147.387H804.472C804.669 148.577 804.872 149.796 805.075 151.051L797.794 147.387ZM796.745 142.331H803.623C803.832 143.555 804.043 144.817 804.262 146.118L796.747 142.331H796.745ZM796.213 137.103H802.723C802.925 138.26 803.133 139.457 803.343 140.692L796.213 137.103ZM795.852 131.964H801.81C802.001 133.025 802.197 134.12 802.399 135.26L795.853 131.964H795.852ZM796.938 130.831L800.522 125.013C800.863 126.805 801.224 128.738 801.605 130.831H796.938ZM796.05 85.6071L796.287 86.8186L797.119 103.276L797.195 103.612C798.066 105.696 801.519 116.522 809.367 168.309C811.744 183.991 813.369 196.161 814.613 206.863C813.337 196.101 811.669 183.85 809.238 168.095C800.803 113.398 797.344 103.994 796.641 102.536L795.787 85.7897C795.787 85.755 795.783 85.7217 795.775 85.6884L795.622 84.9141C795.836 85.0793 795.993 85.3206 796.049 85.6084L796.05 85.6071ZM792.713 85.9376L791.87 102.536C791.817 102.647 791.748 102.804 791.662 103.02L792.541 86.8239L792.713 85.9376ZM773.606 262.38H772.463L773.414 261.968L773.606 262.38ZM770.145 262.164C770.253 260.935 770.358 259.731 770.46 258.543H771.82L772.964 261.005L770.135 262.249C770.138 262.223 770.141 262.192 770.143 262.164H770.145Z" fill="#7399C6"/>
<path d="M340.595 277.149C340.595 277.022 340.594 276.889 340.591 276.753C340.601 277.005 340.595 277.149 340.595 277.149ZM369.897 251.86C368.512 251.45 366.303 251.085 363.822 250.858C362.015 250.084 358.928 248.395 357.225 245.385C357.112 245.183 357.004 244.977 356.904 244.765C356.34 243.571 355.823 242.484 355.354 241.497C354.975 240.702 354.629 239.975 354.315 239.308C353.373 237.309 352.712 235.858 352.322 234.765C352.256 234.584 352.19 234.357 352.122 234.113C351.807 233.032 351.362 231.501 350.233 230.964C349.972 230.84 349.676 230.769 349.335 230.769C349.317 230.769 349.299 230.769 349.282 230.772C347.633 230.937 347.085 232.542 346.507 234.236C346.43 234.464 346.353 234.694 346.269 234.925C345.674 236.595 344.591 239.428 342.075 244.762C340.492 248.117 337.147 249.979 335.236 250.808C332.129 251.071 329.91 251.421 328.643 251.85C327.98 252.075 327.431 252.468 327.041 252.995C327.03 253.005 327.02 253.021 327.012 253.035C326.269 254.04 326.205 255.252 326.209 255.687C326.206 255.695 326.204 255.7 326.201 255.706C326.184 255.752 326.169 255.787 326.154 255.826C326.138 255.872 326.092 255.967 326.092 255.967C326.06 256.037 326.044 256.113 326.044 256.189V258.676C326.044 258.774 326.041 258.875 326.037 258.98C325.972 260.902 326.461 262.816 333.098 266.73C333.25 266.822 333.402 266.88 333.536 266.934C333.655 266.981 333.757 267.024 333.833 267.073C333.928 267.135 334.016 267.165 334.08 267.178C334.154 267.233 334.233 267.278 334.311 267.325C334.379 267.362 334.447 267.403 334.511 267.45C334.556 267.479 334.601 267.513 334.647 267.542C334.685 267.569 334.725 267.594 334.762 267.621L334.909 267.73C334.979 267.782 335.051 267.833 335.118 267.887L335.149 267.911C335.222 267.966 335.292 268.024 335.36 268.082L335.401 268.112C335.492 268.188 335.585 268.267 335.674 268.343C335.753 268.411 335.827 268.476 335.902 268.544C336.001 268.634 336.096 268.72 336.188 268.811C336.259 268.876 336.328 268.949 336.397 269.017C336.488 269.104 336.577 269.2 336.665 269.289C336.727 269.357 336.79 269.42 336.851 269.488C336.935 269.585 337.02 269.678 337.102 269.776L337.155 269.836C337.189 269.876 337.228 269.917 337.261 269.961C337.349 270.066 337.432 270.173 337.516 270.278L337.634 270.43C337.738 270.566 337.838 270.705 337.936 270.849C337.936 270.849 337.97 270.897 337.975 270.901C338.184 271.204 338.384 271.527 338.569 271.856L338.589 271.891C338.589 271.891 338.606 271.923 338.609 271.928C338.68 272.056 338.75 272.187 338.815 272.316L338.862 272.405C338.921 272.528 338.981 272.647 339.035 272.769L339.077 272.856C339.133 272.981 339.184 273.106 339.234 273.225L339.261 273.293C339.277 273.334 339.294 273.377 339.311 273.424C339.295 273.505 339.298 273.597 339.322 273.678C339.367 273.911 339.527 275.595 339.527 277.15V298.288C339.527 298.584 339.765 298.822 340.06 298.822H358.352C358.646 298.822 358.883 298.584 358.883 298.288V298.205C358.883 296.719 358.889 276.073 359.012 274.073C359.017 274.043 359.051 273.959 359.072 273.913C359.093 273.861 359.113 273.813 359.129 273.769L359.16 273.682C359.202 273.562 359.246 273.436 359.305 273.294L359.334 273.224C359.381 273.109 359.43 272.99 359.483 272.873L359.53 272.764C359.583 272.646 359.639 272.536 359.698 272.416L359.752 272.307C359.812 272.188 359.877 272.063 359.946 271.943L359.998 271.845C360.08 271.699 360.165 271.555 360.254 271.411L360.275 271.376C360.373 271.219 360.479 271.059 360.587 270.902L360.652 270.807C360.741 270.682 360.829 270.558 360.925 270.433L361.063 270.257C361.139 270.162 361.217 270.061 361.298 269.964C361.336 269.917 361.376 269.872 361.419 269.822L361.468 269.762C361.547 269.673 361.627 269.586 361.709 269.49C361.766 269.428 361.826 269.365 361.907 269.281C361.989 269.192 362.071 269.108 362.159 269.023C362.232 268.949 362.306 268.876 362.38 268.805C362.469 268.721 362.558 268.638 362.652 268.554C362.732 268.48 362.81 268.41 362.891 268.339C362.987 268.252 363.09 268.171 363.188 268.087L363.216 268.066C363.291 268 363.368 267.94 363.444 267.878C363.552 267.794 363.665 267.71 363.777 267.623L363.855 267.566C363.916 267.519 363.978 267.471 364.043 267.425C364.165 267.338 364.292 267.251 364.436 267.155L364.537 267.085C364.586 267.05 364.635 267.017 364.686 266.982C364.886 266.854 365.096 266.725 365.306 266.597L365.375 266.553C370.502 263.529 371.631 261.963 372.052 260.73C372.102 260.62 372.142 260.393 372.176 259.387V255.834C372.176 254.922 371.766 252.419 369.895 251.862L369.897 251.86Z" fill="#7399C6"/>
<path d="M57.4254 299.934C57.2803 299.858 43.7424 292.631 39.7712 290.396C39.4743 290.228 39.2254 290.086 39.0443 289.979C36.7372 288.62 35.9198 286.675 35.9198 282.561C35.9198 278.894 35.9491 255.072 35.9544 250.929C35.989 250.911 36.0223 250.891 36.0569 250.874C36.2846 250.762 36.5095 250.642 36.7305 250.518C36.8197 250.468 36.9089 250.417 36.9968 250.365C37.2138 250.237 37.4281 250.104 37.6371 249.965C37.6744 249.94 37.713 249.917 37.7503 249.893C38.0006 249.724 38.2442 249.544 38.4838 249.36C38.5344 249.321 38.5837 249.281 38.6329 249.243C39.9429 248.205 41.0692 246.945 41.9505 245.516H41.9905V245.454C42.0144 245.415 42.0357 245.376 42.0597 245.338C43.0022 243.853 43.5973 242.196 43.8769 240.431C43.8995 240.303 43.9208 240.175 43.9395 240.047C43.9448 240.011 43.9488 239.975 43.9528 239.939C44.0407 239.298 44.0899 238.646 44.0899 237.981C44.0899 236.871 43.9594 235.791 43.7198 234.753C43.7158 234.733 43.7105 234.712 43.7052 234.692C43.6439 234.429 43.576 234.17 43.5002 233.913C42.3632 229.954 39.5875 226.706 35.8199 224.974C35.6509 224.894 35.4805 224.816 35.3074 224.742C35.2874 224.734 35.2675 224.724 35.2475 224.716V218.165H33.8283V216.74H34.8934V209.995H33.8283V206.798H25.3121V209.995H24.247V216.74H25.3121V218.165H24.6038V224.576C19.2254 226.65 15.398 231.874 15.398 237.981C15.398 243.631 18.6716 248.524 23.4203 250.869C23.4256 254.831 23.4549 278.873 23.4549 282.561C23.4549 286.677 22.6348 288.62 20.3224 289.979C17.7384 291.501 2.09437 299.851 1.93728 299.932L0.0574951 300.935H59.3052L57.4254 299.932V299.934ZM16.5309 237.982C16.5309 237.882 16.5362 237.786 16.5389 237.686C16.7585 236.731 17.4907 233.857 18.4546 233.064C18.7808 234.837 18.4173 238.058 18.4173 238.058H16.5335C16.5335 238.034 16.5309 238.006 16.5309 237.982ZM17.958 231.99C17.958 231.99 17.9607 231.99 17.962 231.99L17.95 232.006C17.95 232.006 17.9554 231.994 17.958 231.989V231.99ZM21.9306 233.152C22.4045 234.906 22.3207 238.058 22.3207 238.058H19.4131V237.86L20.1866 237.821C20.1866 237.821 20.9135 234.216 21.9319 233.151L21.9306 233.152ZM34.1918 233.849C34.6058 234.895 34.8494 236.162 34.9786 237.031C35.0638 237.641 35.0931 238.058 35.0931 238.058H34.1838V233.832C34.1838 233.832 34.1891 233.843 34.1918 233.849ZM39.3439 237.99C39.3492 238.032 39.3519 238.058 39.3519 238.058H36.0809C36.0809 238.058 35.9624 234.578 36.5082 232.892C37.721 233.607 38.5611 237.822 38.5611 237.822L39.3266 237.857C39.3332 237.906 39.3399 237.96 39.3439 237.99ZM42.7387 238.058H40.1187C40.128 236.936 40.0561 235.986 39.9842 235.33C39.9882 235.241 39.9922 235.151 39.9989 235.062C40.0002 235.039 40.0015 235.018 40.0028 234.995C40.0135 234.829 40.0268 234.662 40.0428 234.497C40.0455 234.465 40.0494 234.434 40.0534 234.402C40.0694 234.242 40.0881 234.085 40.1094 233.932C40.1133 233.908 40.1173 233.885 40.1213 233.86C40.1719 233.516 40.2372 233.196 40.3197 232.923C40.4036 232.878 40.4954 232.851 40.6019 232.851C41.6536 232.851 42.5243 235.305 42.965 236.823C42.9969 237.208 43.0169 237.594 43.0169 237.982C43.0169 238.006 43.0156 238.034 43.0156 238.058H42.7387ZM24.6052 232.735V238.058H23.1514C23.1514 237.812 23.1327 237.572 23.1354 237.346C23.2872 236.19 23.8836 233.935 24.5852 232.759C24.5918 232.751 24.5985 232.743 24.6052 232.735ZM29.2167 252.331C29.2447 252.331 29.2727 252.331 29.3019 252.334C29.5602 252.34 29.5868 252.346 29.7479 252.346C29.925 252.346 30.2831 252.34 30.2831 252.332V290.991H29.2181V252.332L29.2167 252.331Z" fill="#7399C6"/>
<path d="M35.2755 294.932C34.1825 294.932 33.2719 295.67 32.9897 296.672C32.8073 296.651 32.6222 296.634 32.4332 296.634C31.4068 296.634 30.4655 296.974 29.7 297.543C29.6881 297.527 29.6774 297.513 29.6654 297.499C29.7906 297.239 29.8665 296.946 29.8665 296.632C29.8665 295.514 28.9598 294.608 27.8416 294.608C27.7244 294.608 27.6152 294.621 27.5047 294.64C27.5047 294.626 27.5074 294.619 27.5074 294.608C27.5074 293.671 26.7499 292.914 25.8153 292.914C25.6729 292.914 25.5384 292.938 25.4053 292.971C25.4346 292.849 25.4546 292.725 25.4546 292.594C25.4546 291.714 24.7397 291 23.861 291C22.9824 291 22.2674 291.714 22.2674 292.594C22.2674 292.99 22.4192 293.354 22.6588 293.631C22.6375 293.631 22.6202 293.626 22.5989 293.626C21.1745 293.626 20.0189 294.777 20.0136 296.205C19.9989 296.205 19.9869 296.199 19.9723 296.199C18.5745 296.199 17.3683 297 16.7905 298.162C15.9718 297.717 14.992 297.456 13.9349 297.456C11.1924 297.456 8.95455 299.21 8.78015 301.421H37.0128C37.0155 301.358 37.0208 301.293 37.0208 301.232C37.0208 300.543 36.8677 299.891 36.5961 299.307C37.2365 298.878 37.6598 298.145 37.6598 297.317C37.6598 296.001 36.5908 294.932 35.2742 294.932H35.2755ZM24.1858 294.183C24.1752 294.177 24.1685 294.167 24.1592 294.161C24.1699 294.159 24.1832 294.156 24.1938 294.156C24.1912 294.164 24.1885 294.175 24.1858 294.183Z" fill="#B9E6EB" fill-opacity="0.56"/>
<path d="M197.349 294.163C196.258 294.163 195.347 294.904 195.065 295.903C194.881 295.885 194.697 295.871 194.51 295.871C193.485 295.871 192.542 296.209 191.779 296.775C191.765 296.764 191.754 296.751 191.741 296.739C191.867 296.475 191.943 296.182 191.943 295.87C191.943 294.749 191.036 293.843 189.918 293.843C189.805 293.843 189.692 293.859 189.58 293.872C189.581 293.864 189.587 293.854 189.587 293.843C189.587 292.909 188.828 292.149 187.895 292.149C187.751 292.149 187.615 292.173 187.483 292.204C187.512 292.086 187.534 291.96 187.534 291.832C187.534 290.949 186.82 290.235 185.939 290.235C185.058 290.235 184.348 290.949 184.348 291.832C184.348 292.228 184.498 292.589 184.738 292.869C184.718 292.869 184.698 292.861 184.678 292.861C183.252 292.861 182.098 294.011 182.091 295.437H182.052C180.652 295.437 179.446 296.238 178.868 297.397C178.05 296.955 177.07 296.695 176.017 296.695C173.272 296.695 171.034 298.449 170.861 300.661H199.093C199.096 300.596 199.103 300.533 199.103 300.468C199.103 299.779 198.947 299.13 198.675 298.541C199.316 298.114 199.738 297.384 199.738 296.556C199.738 295.237 198.67 294.165 197.351 294.165L197.349 294.163ZM186.258 293.416C186.252 293.411 186.242 293.403 186.234 293.392C186.246 293.392 186.257 293.39 186.27 293.39C186.268 293.4 186.265 293.408 186.26 293.416H186.258ZM187.927 295.536C187.687 295.585 187.455 295.661 187.23 295.75C187.244 295.648 187.262 295.549 187.262 295.446C187.262 295.433 187.258 295.422 187.258 295.412C187.457 295.49 187.67 295.537 187.896 295.537C187.905 295.537 187.916 295.534 187.928 295.534V295.537L187.927 295.536Z" fill="#B9E6EB" fill-opacity="0.56"/>
<path d="M132.181 295.094C131.092 295.094 130.183 295.83 129.9 296.828C129.719 296.81 129.531 296.799 129.343 296.799C128.321 296.799 127.381 297.135 126.615 297.703C126.603 297.689 126.593 297.676 126.578 297.659C126.705 297.399 126.779 297.108 126.779 296.799C126.779 295.678 125.874 294.772 124.757 294.772C124.641 294.772 124.532 294.788 124.42 294.804C124.42 294.793 124.425 294.785 124.425 294.772C124.425 293.835 123.668 293.078 122.736 293.078C122.592 293.078 122.456 293.104 122.325 293.135C122.354 293.013 122.374 292.889 122.374 292.761C122.374 291.881 121.66 291.168 120.783 291.168C119.906 291.168 119.192 291.882 119.192 292.761C119.192 293.159 119.342 293.518 119.583 293.798C119.562 293.795 119.543 293.79 119.522 293.79C118.099 293.79 116.946 294.941 116.938 296.366H116.9C115.503 296.366 114.297 297.164 113.72 298.322C112.904 297.88 111.925 297.62 110.87 297.62C108.13 297.62 105.892 299.374 105.722 301.581H133.915C133.92 301.516 133.927 301.453 133.927 301.388C133.927 300.701 133.771 300.052 133.499 299.463C134.14 299.034 134.559 298.309 134.559 297.481C134.559 296.159 133.493 295.096 132.176 295.096L132.181 295.094ZM121.108 294.345C121.098 294.337 121.089 294.332 121.081 294.324C121.092 294.321 121.104 294.321 121.117 294.321C121.114 294.327 121.109 294.335 121.109 294.345H121.108ZM122.771 296.46C122.531 296.515 122.298 296.586 122.077 296.68C122.089 296.578 122.105 296.482 122.105 296.374C122.105 296.366 122.102 296.352 122.102 296.336C122.299 296.42 122.512 296.462 122.739 296.462C122.749 296.462 122.759 296.462 122.771 296.459V296.462V296.46Z" fill="#B9E6EB" fill-opacity="0.56"/>
<path d="M323.336 292.963C322.046 292.963 320.97 293.835 320.635 295.021C320.419 294.997 320.201 294.977 319.979 294.977C318.767 294.977 317.654 295.376 316.749 296.049C316.736 296.033 316.722 296.014 316.708 295.999C316.854 295.688 316.945 295.345 316.945 294.976C316.945 293.651 315.873 292.579 314.554 292.579C314.415 292.579 314.285 292.598 314.153 292.617C314.154 292.603 314.157 292.593 314.157 292.579C314.157 291.475 313.263 290.582 312.159 290.582C311.991 290.582 311.83 290.606 311.673 290.647C311.709 290.5 311.733 290.356 311.733 290.202C311.733 289.162 310.89 288.319 309.85 288.319C308.81 288.319 307.969 289.162 307.969 290.202C307.969 290.668 308.145 291.095 308.431 291.429C308.406 291.427 308.38 291.419 308.358 291.419C306.676 291.419 305.31 292.783 305.304 294.464C305.286 294.464 305.274 294.461 305.256 294.461C303.604 294.461 302.178 295.409 301.494 296.779C300.527 296.258 299.369 295.949 298.123 295.949C294.88 295.949 292.234 298.02 292.031 300.633H325.39C325.393 300.56 325.402 300.484 325.402 300.408C325.402 299.594 325.216 298.825 324.896 298.13C325.654 297.623 326.152 296.76 326.152 295.785C326.152 294.227 324.891 292.962 323.333 292.962L323.336 292.963ZM310.233 292.078C310.222 292.07 310.212 292.06 310.202 292.052C310.214 292.049 310.231 292.049 310.244 292.049C310.24 292.057 310.235 292.065 310.235 292.078H310.233ZM312.201 294.581C311.916 294.641 311.643 294.728 311.38 294.833C311.393 294.715 311.417 294.603 311.417 294.477C311.417 294.459 311.413 294.447 311.413 294.433C311.645 294.523 311.895 294.58 312.161 294.58C312.175 294.58 312.186 294.577 312.201 294.575V294.58V294.581Z" fill="#B9E6EB" fill-opacity="0.56"/>
<path d="M466.138 298.52C465.538 298.52 464.975 298.629 464.465 298.808C464.483 298.713 464.503 298.624 464.503 298.52C464.503 297.428 463.297 296.54 461.805 296.54C460.643 296.54 459.663 297.083 459.283 297.839C458.974 297.907 458.674 297.993 458.39 298.096C458.321 298.052 458.25 298.007 458.173 297.963C458.216 297.824 458.241 297.68 458.241 297.528C458.241 296.831 457.762 296.225 457.039 295.861C457.039 295.855 457.041 295.842 457.041 295.829C457.041 294.279 455.329 293.017 453.211 293.017C451.093 293.017 449.381 294.279 449.381 295.829C449.381 296.279 449.541 296.703 449.795 297.078C447.431 297.268 445.567 298.636 445.261 300.359H469.779C469.212 299.283 467.801 298.518 466.137 298.518L466.138 298.52Z" fill="#B9E6EB" fill-opacity="0.56"/>
<path d="M391.929 298.998C391.977 298.699 392.009 298.393 392.009 298.081C392.009 294.946 389.471 292.405 386.337 292.405C383.834 292.405 381.714 294.033 380.964 296.281C380.787 296.33 380.612 296.39 380.444 296.454C379.863 294.671 378.187 293.379 376.21 293.379C374.363 293.379 372.78 294.505 372.101 296.11C371.819 296.042 371.526 296.001 371.224 296.001C370.838 296.001 370.468 296.061 370.116 296.166C370.119 296.109 370.132 296.061 370.132 296.001C370.132 294.495 368.911 293.267 367.402 293.267C365.892 293.267 364.673 294.495 364.673 296.001C364.673 296.169 364.69 296.333 364.721 296.49C364.243 296.17 363.667 295.982 363.047 295.982C361.829 295.982 360.788 296.707 360.314 297.749C359.917 297.277 359.333 296.974 358.671 296.974C357.478 296.974 356.513 297.945 356.513 299.137C356.513 299.49 356.604 299.815 356.75 300.106C356.195 300.352 355.757 300.812 355.515 301.37H393.616C393.506 300.315 392.844 299.433 391.927 298.998H391.929ZM366.028 298.664C366.016 298.553 366.005 298.436 365.98 298.328C366.082 298.388 366.186 298.446 366.294 298.498C366.204 298.553 366.113 298.604 366.027 298.664H366.028Z" fill="#B9E6EB" fill-opacity="0.56"/>
<path d="M869.174 298.998C869.222 298.699 869.254 298.393 869.254 298.081C869.254 294.946 866.715 292.405 863.581 292.405C861.079 292.405 858.959 294.033 858.208 296.281C858.031 296.33 857.857 296.39 857.689 296.454C857.107 294.671 855.433 293.379 853.454 293.379C851.608 293.379 850.025 294.505 849.346 296.11C849.064 296.042 848.771 296.001 848.469 296.001C848.083 296.001 847.713 296.061 847.361 296.166C847.364 296.109 847.377 296.061 847.377 296.001C847.377 294.495 846.156 293.267 844.647 293.267C843.137 293.267 841.917 294.495 841.917 296.001C841.917 296.169 841.935 296.333 841.965 296.49C841.487 296.17 840.912 295.982 840.293 295.982C839.075 295.982 838.034 296.707 837.56 297.749C837.163 297.277 836.579 296.974 835.917 296.974C834.724 296.974 833.759 297.945 833.759 299.137C833.759 299.49 833.85 299.815 833.996 300.106C833.442 300.352 833.003 300.812 832.761 301.37H870.862C870.752 300.315 870.09 299.433 869.173 298.998H869.174ZM843.273 298.664C843.261 298.553 843.25 298.436 843.225 298.328C843.327 298.388 843.431 298.446 843.539 298.498C843.448 298.553 843.358 298.604 843.271 298.664H843.273Z" fill="#B9E6EB" fill-opacity="0.56"/>
<path d="M706.593 298.213C706.463 298.213 706.34 298.24 706.215 298.255C706.025 298.121 705.796 298.04 705.547 298.04C705.378 298.04 705.218 298.079 705.075 298.143C705.086 298.053 705.102 297.961 705.102 297.868C705.102 296.633 704.104 295.634 702.872 295.634C702.53 295.634 702.208 295.716 701.919 295.857C701.518 295.713 701.092 295.634 700.642 295.634C698.789 295.634 697.245 296.948 696.884 298.696C696.537 298.4 696.092 298.212 695.603 298.212C694.633 298.212 693.829 298.913 693.657 299.835H709.503C708.896 298.866 707.825 298.212 706.596 298.212L706.593 298.213Z" fill="#B9E6EB" fill-opacity="0.56"/>
<path d="M912.734 297.697C912.562 297.697 912.4 297.732 912.235 297.752C911.986 297.576 911.684 297.47 911.355 297.47C911.131 297.47 910.921 297.519 910.732 297.605C910.746 297.486 910.769 297.364 910.769 297.244C910.769 295.616 909.454 294.299 907.83 294.299C907.38 294.299 906.954 294.408 906.574 294.592C906.046 294.404 905.484 294.299 904.891 294.299C902.45 294.299 900.414 296.031 899.939 298.336C899.482 297.945 898.897 297.697 898.251 297.697C896.973 297.697 895.912 298.62 895.685 299.837H916.563C915.763 298.561 914.352 297.697 912.731 297.697H912.734Z" fill="#B9E6EB" fill-opacity="0.56"/>
<path d="M476.245 299.25C476.241 299.209 476.237 299.166 476.227 299.122C476.265 299.143 476.305 299.166 476.346 299.19C476.313 299.209 476.277 299.225 476.247 299.25H476.245Z" fill="#B9E6EB" fill-opacity="0.56"/>
<path d="M450.748 291.269C450.748 291.269 450.016 288.547 444.646 287.79H444.635C447.109 285.491 446.723 283.702 446.723 283.702C446.723 283.702 443.569 283.518 441.126 285.662C441.283 285.068 441.404 284.374 441.468 283.567C441.845 278.768 440.225 277.767 440.225 277.767C440.225 277.767 438.578 280.001 438.037 283.134C436.018 280.859 434.356 281.112 434.356 281.112C434.356 281.112 434.139 282.92 434.903 284.915C434.686 284.852 434.459 284.795 434.216 284.741C430.112 283.857 428.786 285.504 428.786 285.504C428.786 285.504 430.703 288.056 433.957 288.68C433.239 289.269 432.534 290.083 431.872 291.191C431.872 291.191 433.129 294.435 436.982 292.863C437.241 292.757 437.479 292.644 437.708 292.526C437.675 295.361 437.959 298.664 439.241 300.472L442.364 300.358C442.364 300.358 440.183 296.697 439.188 292.537C439.765 293.979 440.869 295.46 442.947 296.495C442.947 296.495 444.863 294.785 442.904 291.348C445.098 292.042 447.846 292.348 450.748 291.272V291.269Z" fill="#B9E6EB" fill-opacity="0.56"/>
<path d="M670.663 284.719C670.663 284.719 670.656 284.721 670.654 284.721C671.973 281.611 670.889 280.137 670.889 280.137C670.889 280.137 667.936 281.257 666.583 284.216C666.484 283.608 666.31 282.923 666.039 282.164C664.425 277.628 662.535 277.378 662.535 277.378C662.535 277.378 661.944 280.09 662.731 283.17C659.958 281.918 658.546 282.827 658.546 282.827C658.546 282.827 659.085 284.567 660.598 286.077C660.375 286.106 660.144 286.147 659.899 286.199C655.791 287.071 655.255 289.117 655.255 289.117C655.255 289.117 658.046 290.661 661.269 289.898C660.854 290.728 660.542 291.762 660.391 293.043C660.391 293.043 662.862 295.489 665.737 292.478C665.929 292.277 666.097 292.078 666.256 291.881C666.173 294.844 666.396 298.52 667.775 300.464L670.899 300.349C670.899 300.349 668.195 295.81 667.435 291.096C668.554 292.257 670.217 293.251 672.664 293.351C672.664 293.351 673.714 291.005 670.524 288.672C672.81 288.408 675.442 287.561 677.654 285.393C677.654 285.393 675.874 283.209 670.662 284.715L670.663 284.719Z" fill="#B9E6EB" fill-opacity="0.56"/>
<path d="M735 286.202C734.757 286.15 734.526 286.11 734.301 286.079C735.815 284.571 736.354 282.83 736.354 282.83C736.354 282.83 734.942 281.921 732.169 283.173C732.955 280.091 732.364 277.38 732.364 277.38C732.364 277.38 730.475 277.631 728.862 282.166C728.59 282.926 728.417 283.61 728.318 284.219C726.965 281.26 724.012 280.139 724.012 280.139C724.012 280.139 722.928 281.613 724.247 284.724C724.245 284.724 724.241 284.721 724.238 284.721C719.027 283.215 717.247 285.4 717.247 285.4C719.459 287.568 722.089 288.416 724.375 288.678C722.288 290.206 722.019 291.733 722.08 292.61C721.101 291.741 719.817 291.208 718.406 291.208C715.956 291.208 713.882 292.797 713.148 294.997C712.974 295.046 712.804 295.102 712.641 295.17C712.069 293.422 710.431 292.16 708.498 292.16C706.692 292.16 705.142 293.262 704.48 294.828C704.203 294.762 703.92 294.726 703.623 294.726C703.245 294.726 702.881 294.781 702.541 294.884C702.543 294.829 702.555 294.781 702.555 294.726C702.555 293.247 701.36 292.05 699.883 292.05C698.407 292.05 697.214 293.247 697.214 294.726C697.214 294.886 697.233 295.046 697.263 295.201C696.795 294.886 696.233 294.704 695.626 294.704C694.436 294.704 693.416 295.416 692.954 296.43C692.565 295.974 691.996 295.673 691.347 295.673C690.181 295.673 689.234 296.62 689.234 297.791C689.234 298.133 689.322 298.453 689.467 298.738C688.926 298.979 688.493 299.427 688.256 299.974H724.218C724.084 300.218 724.002 300.353 724.002 300.353L727.126 300.468C728.505 298.524 728.728 294.848 728.645 291.885C728.803 292.082 728.972 292.281 729.164 292.482C732.039 295.493 734.51 293.047 734.51 293.047C734.358 291.766 734.047 290.732 733.632 289.902C736.856 290.664 739.646 289.121 739.646 289.121C739.646 289.121 739.11 287.074 735.001 286.203L735 286.202ZM698.536 297.331C698.526 297.216 698.516 297.105 698.49 296.996C698.589 297.059 698.691 297.119 698.8 297.161C698.711 297.216 698.62 297.271 698.535 297.329L698.536 297.331ZM724.958 298.544C724.675 298.166 724.303 297.859 723.872 297.656C723.921 297.363 723.95 297.064 723.95 296.758C723.95 295.453 723.498 294.256 722.746 293.308C724.912 293.099 726.427 292.177 727.465 291.101C727.002 293.979 725.816 296.79 724.96 298.544H724.958Z" fill="#B9E6EB" fill-opacity="0.56"/>
<path d="M934.852 284.304C934.605 284.331 934.372 284.364 934.151 284.404C935.122 282.501 935.098 280.68 935.098 280.68C935.098 280.68 933.473 280.251 931.224 282.301C931.019 279.128 929.62 276.731 929.62 276.731C929.62 276.731 927.901 277.554 927.767 282.369C927.744 283.175 927.79 283.878 927.885 284.49C925.682 282.096 922.53 281.944 922.53 281.944C922.53 281.944 921.955 283.681 924.17 286.23H924.161C918.74 286.411 917.721 289.042 917.721 289.042C920.494 290.419 923.259 290.411 925.513 289.951C923.201 293.159 924.925 295.065 924.925 295.065C927.221 294.211 928.494 292.749 929.199 291.3C929.934 296.018 928.765 301.173 928.765 301.173L931.772 300.312C932.482 298.036 931.558 294.471 930.563 291.68C930.776 291.818 930.997 291.956 931.242 292.088C934.907 294.062 936.5 290.969 936.5 290.969C935.961 289.797 935.345 288.909 934.692 288.249C937.994 287.975 940.171 285.644 940.171 285.644C940.171 285.644 939.028 283.863 934.852 284.306V284.304Z" fill="#B9E6EB" fill-opacity="0.56"/>
<path d="M266.997 286.202C266.754 286.15 266.523 286.11 266.3 286.079C267.812 284.571 268.352 282.83 268.352 282.83C268.352 282.83 266.94 281.921 264.167 283.173C264.954 280.091 264.363 277.38 264.363 277.38C264.363 277.38 262.473 277.631 260.86 282.166C260.588 282.926 260.415 283.61 260.317 284.219C258.963 281.26 256.01 280.139 256.01 280.139C256.01 280.139 254.926 281.613 256.246 284.724C256.243 284.724 256.239 284.721 256.236 284.721C251.024 283.215 249.244 285.4 249.244 285.4C251.456 287.568 254.086 288.416 256.372 288.678C253.182 291.012 254.233 293.358 254.233 293.358C256.68 293.258 258.341 292.263 259.461 291.103C258.701 295.815 255.997 300.355 255.997 300.355L259.12 300.469C260.499 298.525 260.723 294.849 260.639 291.886C260.799 292.084 260.966 292.284 261.158 292.483C264.034 295.494 266.505 293.049 266.505 293.049C266.353 291.768 266.041 290.733 265.626 289.903C268.85 290.665 271.641 289.122 271.641 289.122C271.641 289.122 271.104 287.075 266.996 286.205L266.997 286.202Z" fill="#B9E6EB" fill-opacity="0.56"/>
<path d="M984.247 304H-9.24955C-10.7672 304 -12 302.823 -12 301.369C-12 299.915 -10.7672 298.74 -9.24955 298.74H984.248C985.767 298.74 987.001 299.916 987.001 301.369C987.001 302.822 985.767 304 984.248 304H984.247Z" fill="#7399C6"/>
</g>
<defs>
<clipPath id="clip0_394_16612">
<rect width="981" height="304" fill="white"/>
</clipPath>
</defs>
</svg>
