<svg width="22" height="22" viewBox="0 0 22 22" fill="none" xmlns="http://www.w3.org/2000/svg">
<path d="M15.3542 3.26325V1.83325C15.3542 1.45742 15.0425 1.14575 14.6667 1.14575C14.2909 1.14575 13.9792 1.45742 13.9792 1.83325V3.20825H8.02087V1.83325C8.02087 1.45742 7.70921 1.14575 7.33337 1.14575C6.95754 1.14575 6.64587 1.45742 6.64587 1.83325V3.26325C4.17087 3.49242 2.97005 4.96825 2.78671 7.15908C2.76838 7.42492 2.98838 7.64492 3.24505 7.64492H18.755C19.0209 7.64492 19.2409 7.41575 19.2134 7.15908C19.03 4.96825 17.8292 3.49242 15.3542 3.26325Z" fill="url(#paint0_linear_115_455)"/>
<path opacity="0.4" d="M18.3333 9.02002C18.8375 9.02002 19.25 9.43252 19.25 9.93669V15.5834C19.25 18.3334 17.875 20.1667 14.6667 20.1667H7.33333C4.125 20.1667 2.75 18.3334 2.75 15.5834V9.93669C2.75 9.43252 3.1625 9.02002 3.66667 9.02002H18.3333Z" fill="url(#paint1_linear_115_455)"/>
<path d="M7.79167 13.7499C7.6725 13.7499 7.55333 13.7224 7.44333 13.6766C7.33333 13.6308 7.23251 13.5666 7.14084 13.4841C7.05834 13.3924 6.99415 13.2916 6.94832 13.1816C6.90249 13.0716 6.875 12.9524 6.875 12.8332C6.875 12.7141 6.90249 12.5949 6.94832 12.4849C6.99415 12.3749 7.05834 12.2741 7.14084 12.1824C7.23251 12.0999 7.33333 12.0357 7.44333 11.9899C7.66333 11.8982 7.92 11.8982 8.14 11.9899C8.25 12.0357 8.35083 12.0999 8.44249 12.1824C8.52499 12.2741 8.58918 12.3749 8.63501 12.4849C8.68085 12.5949 8.70833 12.7141 8.70833 12.8332C8.70833 12.9524 8.68085 13.0716 8.63501 13.1816C8.58918 13.2916 8.52499 13.3924 8.44249 13.4841C8.35083 13.5666 8.25 13.6308 8.14 13.6766C8.03 13.7224 7.91083 13.7499 7.79167 13.7499Z" fill="url(#paint2_linear_115_455)"/>
<path d="M10.9999 13.7499C10.8808 13.7499 10.7616 13.7225 10.6516 13.6766C10.5416 13.6308 10.4408 13.5666 10.3491 13.4841C10.1841 13.3099 10.0833 13.0716 10.0833 12.8333C10.0833 12.5949 10.1841 12.3566 10.3491 12.1825C10.4408 12.1 10.5416 12.0358 10.6516 11.9899C10.8716 11.8891 11.1283 11.8891 11.3483 11.9899C11.4583 12.0358 11.5591 12.1 11.6507 12.1825C11.8157 12.3566 11.9166 12.5949 11.9166 12.8333C11.9166 13.0716 11.8157 13.3099 11.6507 13.4841C11.5591 13.5666 11.4583 13.6308 11.3483 13.6766C11.2383 13.7225 11.1191 13.7499 10.9999 13.7499Z" fill="url(#paint3_linear_115_455)"/>
<path d="M7.79167 16.9584C7.6725 16.9584 7.55333 16.9309 7.44333 16.8851C7.33333 16.8392 7.23251 16.7751 7.14084 16.6926C6.97584 16.5184 6.875 16.2801 6.875 16.0417C6.875 15.8034 6.97584 15.5651 7.14084 15.3909C7.23251 15.3084 7.33333 15.2442 7.44333 15.1984C7.66333 15.1067 7.92 15.1067 8.14 15.1984C8.25 15.2442 8.35083 15.3084 8.44249 15.3909C8.60749 15.5651 8.70833 15.8034 8.70833 16.0417C8.70833 16.2801 8.60749 16.5184 8.44249 16.6926C8.35083 16.7751 8.25 16.8392 8.14 16.8851C8.03 16.9309 7.91083 16.9584 7.79167 16.9584Z" fill="url(#paint4_linear_115_455)"/>
<defs>
<linearGradient id="paint0_linear_115_455" x1="19.2157" y1="4.62894" x2="2.79138" y2="4.96307" gradientUnits="userSpaceOnUse">
<stop stop-color="#57A2A7"/>
<stop offset="1" stop-color="#88B388"/>
</linearGradient>
<linearGradient id="paint1_linear_115_455" x1="19.25" y1="14.994" x2="2.75127" y2="15.1905" gradientUnits="userSpaceOnUse">
<stop stop-color="#57A2A7"/>
<stop offset="1" stop-color="#88B388"/>
</linearGradient>
<linearGradient id="paint2_linear_115_455" x1="8.70833" y1="12.9013" x2="6.875" y2="12.916" gradientUnits="userSpaceOnUse">
<stop stop-color="#57A2A7"/>
<stop offset="1" stop-color="#88B388"/>
</linearGradient>
<linearGradient id="paint3_linear_115_455" x1="11.9166" y1="12.8981" x2="10.0833" y2="12.9128" gradientUnits="userSpaceOnUse">
<stop stop-color="#57A2A7"/>
<stop offset="1" stop-color="#88B388"/>
</linearGradient>
<linearGradient id="paint4_linear_115_455" x1="8.70833" y1="16.1098" x2="6.875" y2="16.1245" gradientUnits="userSpaceOnUse">
<stop stop-color="#57A2A7"/>
<stop offset="1" stop-color="#88B388"/>
</linearGradient>
</defs>
</svg>
