<svg width="22" height="22" viewBox="0 0 22 22" fill="none" xmlns="http://www.w3.org/2000/svg">
<path d="M15.3537 3.26301V1.83301C15.3537 1.45717 15.0421 1.14551 14.6662 1.14551C14.2904 1.14551 13.9787 1.45717 13.9787 1.83301V3.20801H8.02038V1.83301C8.02038 1.45717 7.70872 1.14551 7.33288 1.14551C6.95705 1.14551 6.64538 1.45717 6.64538 1.83301V3.26301C4.17038 3.49217 2.96956 4.96801 2.78623 7.15884C2.76789 7.42467 2.98789 7.64467 3.24456 7.64467H18.7545C19.0204 7.64467 19.2404 7.41551 19.2129 7.15884C19.0295 4.96801 17.8287 3.49217 15.3537 3.26301Z" fill="#57A2A7"/>
<path opacity="0.4" d="M18.3333 9.01965C18.8375 9.01965 19.25 9.43215 19.25 9.93632V15.583C19.25 18.333 17.875 20.1663 14.6667 20.1663H7.33333C4.125 20.1663 2.75 18.333 2.75 15.583V9.93632C2.75 9.43215 3.1625 9.01965 3.66667 9.01965H18.3333Z" fill="#57A2A7"/>
<path d="M7.79167 13.7497C7.6725 13.7497 7.55333 13.7222 7.44333 13.6763C7.33333 13.6305 7.23251 13.5663 7.14084 13.4838C7.05834 13.3922 6.99415 13.2913 6.94832 13.1813C6.90249 13.0713 6.875 12.9522 6.875 12.833C6.875 12.7138 6.90249 12.5947 6.94832 12.4847C6.99415 12.3747 7.05834 12.2738 7.14084 12.1822C7.23251 12.0997 7.33333 12.0355 7.44333 11.9896C7.66333 11.898 7.92 11.898 8.14 11.9896C8.25 12.0355 8.35083 12.0997 8.44249 12.1822C8.52499 12.2738 8.58918 12.3747 8.63501 12.4847C8.68085 12.5947 8.70833 12.7138 8.70833 12.833C8.70833 12.9522 8.68085 13.0713 8.63501 13.1813C8.58918 13.2913 8.52499 13.3922 8.44249 13.4838C8.35083 13.5663 8.25 13.6305 8.14 13.6763C8.03 13.7222 7.91083 13.7497 7.79167 13.7497Z" fill="#57A2A7"/>
<path d="M11.0007 13.7497C10.8815 13.7497 10.7623 13.7222 10.6523 13.6764C10.5423 13.6305 10.4415 13.5664 10.3498 13.4839C10.1848 13.3097 10.084 13.0714 10.084 12.833C10.084 12.5947 10.1848 12.3564 10.3498 12.1822C10.4415 12.0997 10.5423 12.0355 10.6523 11.9897C10.8723 11.8889 11.129 11.8889 11.349 11.9897C11.459 12.0355 11.5598 12.0997 11.6515 12.1822C11.8165 12.3564 11.9173 12.5947 11.9173 12.833C11.9173 13.0714 11.8165 13.3097 11.6515 13.4839C11.5598 13.5664 11.459 13.6305 11.349 13.6764C11.239 13.7222 11.1198 13.7497 11.0007 13.7497Z" fill="#57A2A7"/>
<path d="M7.79167 16.9586C7.6725 16.9586 7.55333 16.9312 7.44333 16.8853C7.33333 16.8395 7.23251 16.7753 7.14084 16.6928C6.97584 16.5186 6.875 16.2803 6.875 16.042C6.875 15.8036 6.97584 15.5653 7.14084 15.3912C7.23251 15.3087 7.33333 15.2445 7.44333 15.1986C7.66333 15.107 7.92 15.107 8.14 15.1986C8.25 15.2445 8.35083 15.3087 8.44249 15.3912C8.60749 15.5653 8.70833 15.8036 8.70833 16.042C8.70833 16.2803 8.60749 16.5186 8.44249 16.6928C8.35083 16.7753 8.25 16.8395 8.14 16.8853C8.03 16.9312 7.91083 16.9586 7.79167 16.9586Z" fill="#57A2A7"/>
</svg>
