<svg width="66" height="49" viewBox="0 0 66 49" fill="none" xmlns="http://www.w3.org/2000/svg">
<path d="M42.9795 28C42.9795 33.5219 38.5038 37.9987 32.9818 38C27.4599 38.0013 22.9821 33.5266 22.9795 28.0047C22.9769 22.4828 27.4505 18.0039 32.9724 18C35.6258 17.9981 38.1712 19.0509 40.0481 20.9264C41.925 22.802 42.9795 25.3466 42.9795 28V28Z" fill="white"/>
<path fill-rule="evenodd" clip-rule="evenodd" d="M60.1213 8.1682H50.8566C50.0768 8.16271 49.3356 7.82807 48.8157 7.2468C43.9784 1.83819 42.1655 0 40.1914 0H25.6494C23.6592 0 21.7036 1.8428 16.857 7.26293C16.3415 7.83835 15.6048 8.16609 14.8322 8.1636H14.1412V6.80223C14.1399 6.05089 13.5311 5.44213 12.7798 5.44086H8.35248C7.60115 5.44213 6.99238 6.05089 6.99112 6.80223V8.1636H5.71498C2.70405 8.05752 0.16258 10.3818 0 13.3902V43.3357C0.115912 46.428 2.60587 48.9029 5.69885 49H60.1213C63.1126 48.8569 65.4286 46.328 65.3088 43.3357V13.3902C65.3516 11.9986 64.82 10.6507 63.8387 9.66294C62.8575 8.67519 61.5132 8.13464 60.1213 8.1682ZM33.3307 42.2596C27.3316 42.5403 21.777 39.1043 19.3497 33.6111C16.9223 28.1178 18.1216 21.6974 22.3682 17.4508C26.6149 13.2041 33.0352 12.0049 38.5285 14.4323C44.0218 16.8596 47.4578 22.4142 47.177 28.4133C46.8177 35.904 40.826 41.8957 33.3353 42.255L33.3307 42.2596ZM46.774 15.8186C46.774 17.0399 47.7641 18.03 48.9854 18.03C49.5723 18.0312 50.1354 17.7986 50.5504 17.3837C50.9654 16.9687 51.198 16.4055 51.1968 15.8186C51.1968 14.5973 50.2067 13.6073 48.9854 13.6073C47.7641 13.6073 46.774 14.5973 46.774 15.8186Z" fill="white"/>
</svg>
