<svg width="19" height="19" viewBox="0 0 19 19" fill="none" xmlns="http://www.w3.org/2000/svg">
<path d="M11.9167 0.916667V9.16667C11.9167 10.175 11.0917 11 10.0833 11H0V3.66667C0 1.64083 1.64083 0 3.66667 0H11C11.5042 0 11.9167 0.4125 11.9167 0.916667Z" fill="#73A8AE"/>
<path opacity="0.4" d="M18.3333 11V13.75C18.3333 15.2717 17.105 16.5 15.5833 16.5H14.6667C14.6667 15.4917 13.8417 14.6667 12.8333 14.6667C11.825 14.6667 11 15.4917 11 16.5H7.33333C7.33333 15.4917 6.50833 14.6667 5.5 14.6667C4.49167 14.6667 3.66667 15.4917 3.66667 16.5H2.75C1.22833 16.5 0 15.2717 0 13.75V11H10.0833C11.0917 11 11.9167 10.175 11.9167 9.16667V2.75H13.6033C14.2633 2.75 14.8683 3.10751 15.1983 3.67584L16.7658 6.41667H15.5833C15.0792 6.41667 14.6667 6.82917 14.6667 7.33333V10.0833C14.6667 10.5875 15.0792 11 15.5833 11H18.3333Z" fill="#73A8AE"/>
<path d="M5.49935 18.3337C6.51187 18.3337 7.33268 17.5128 7.33268 16.5003C7.33268 15.4878 6.51187 14.667 5.49935 14.667C4.48683 14.667 3.66602 15.4878 3.66602 16.5003C3.66602 17.5128 4.48683 18.3337 5.49935 18.3337Z" fill="#73A8AE"/>
<path d="M12.8333 18.3337C13.8459 18.3337 14.6667 17.5128 14.6667 16.5003C14.6667 15.4878 13.8459 14.667 12.8333 14.667C11.8208 14.667 11 15.4878 11 16.5003C11 17.5128 11.8208 18.3337 12.8333 18.3337Z" fill="#73A8AE"/>
<path d="M18.3327 9.65285V11.0003H15.5827C15.0785 11.0003 14.666 10.5878 14.666 10.0837V7.33366C14.666 6.82949 15.0785 6.41699 15.5827 6.41699H16.7652L18.0943 8.74531C18.2502 9.02031 18.3327 9.33202 18.3327 9.65285Z" fill="#73A8AE"/>
</svg>
