<svg width="22" height="22" viewBox="0 0 22 22" fill="none" xmlns="http://www.w3.org/2000/svg">
    <path opacity="0.4"
        d="M11 20.1666C16.0626 20.1666 20.1666 16.0625 20.1666 10.9999C20.1666 5.93731 16.0626 1.83325 11 1.83325C5.93737 1.83325 1.83331 5.93731 1.83331 10.9999C1.83331 16.0625 5.93737 20.1666 11 20.1666Z"
        fill="#155D5A" />
    <path
        d="M14.4008 14.6026C14.2816 14.6026 14.1625 14.5751 14.0525 14.5018L11.2108 12.8059C10.505 12.3843 9.98248 11.4584 9.98248 10.6426V6.88428C9.98248 6.50844 10.2941 6.19678 10.67 6.19678C11.0458 6.19678 11.3575 6.50844 11.3575 6.88428V10.6426C11.3575 10.9726 11.6325 11.4584 11.9166 11.6234L14.7583 13.3193C15.0883 13.5118 15.1891 13.9334 14.9966 14.2634C14.8591 14.4834 14.63 14.6026 14.4008 14.6026Z"
        fill="#155D5A" />
</svg>
