<svg width="22" height="22" viewBox="0 0 22 22" fill="none" xmlns="http://www.w3.org/2000/svg">
<path opacity="0.4" d="M10.9999 20.1666C16.0625 20.1666 20.1666 16.0625 20.1666 10.9999C20.1666 5.93731 16.0625 1.83325 10.9999 1.83325C5.93731 1.83325 1.83325 5.93731 1.83325 10.9999C1.83325 16.0625 5.93731 20.1666 10.9999 20.1666Z" fill="url(#paint0_linear_115_474)"/>
<path d="M14.4008 14.6026C14.2816 14.6026 14.1624 14.5751 14.0524 14.5018L11.2108 12.8059C10.5049 12.3843 9.98242 11.4584 9.98242 10.6426V6.88428C9.98242 6.50844 10.2941 6.19678 10.6699 6.19678C11.0458 6.19678 11.3574 6.50844 11.3574 6.88428V10.6426C11.3574 10.9726 11.6324 11.4584 11.9166 11.6234L14.7583 13.3193C15.0883 13.5118 15.1891 13.9334 14.9966 14.2634C14.8591 14.4834 14.6299 14.6026 14.4008 14.6026Z" fill="url(#paint1_linear_115_474)"/>
<defs>
<linearGradient id="paint0_linear_115_474" x1="20.1666" y1="11.6589" x2="1.83325" y2="11.8064" gradientUnits="userSpaceOnUse">
<stop stop-color="#57A2A7"/>
<stop offset="1" stop-color="#88B388"/>
</linearGradient>
<linearGradient id="paint1_linear_115_474" x1="15.0937" y1="10.7018" x2="9.98221" y2="10.7268" gradientUnits="userSpaceOnUse">
<stop stop-color="#57A2A7"/>
<stop offset="1" stop-color="#88B388"/>
</linearGradient>
</defs>
</svg>
