<svg width="22" height="22" viewBox="0 0 22 22" fill="none" xmlns="http://www.w3.org/2000/svg">
<path opacity="0.4" d="M10.9999 20.1667C16.0625 20.1667 20.1666 16.0627 20.1666 11C20.1666 5.93743 16.0625 1.83337 10.9999 1.83337C5.93731 1.83337 1.83325 5.93743 1.83325 11C1.83325 16.0627 5.93731 20.1667 10.9999 20.1667Z" fill="url(#paint0_linear_180_360)"/>
<path d="M14.4008 14.6025C14.2816 14.6025 14.1624 14.575 14.0524 14.5017L11.2108 12.8058C10.5049 12.3842 9.98242 11.4583 9.98242 10.6425V6.88416C9.98242 6.50832 10.2941 6.19666 10.6699 6.19666C11.0458 6.19666 11.3574 6.50832 11.3574 6.88416V10.6425C11.3574 10.9725 11.6324 11.4583 11.9166 11.6233L14.7583 13.3192C15.0883 13.5117 15.1891 13.9333 14.9966 14.2633C14.8591 14.4833 14.6299 14.6025 14.4008 14.6025Z" fill="url(#paint1_linear_180_360)"/>
<defs>
<linearGradient id="paint0_linear_180_360" x1="20.1666" y1="11.659" x2="1.83325" y2="11.8065" gradientUnits="userSpaceOnUse">
<stop stop-color="#57A2A7"/>
<stop offset="1" stop-color="#88B388"/>
</linearGradient>
<linearGradient id="paint1_linear_180_360" x1="15.0937" y1="10.7017" x2="9.98221" y2="10.7267" gradientUnits="userSpaceOnUse">
<stop stop-color="#57A2A7"/>
<stop offset="1" stop-color="#88B388"/>
</linearGradient>
</defs>
</svg>
