<svg width="22" height="22" viewBox="0 0 22 22" fill="none" xmlns="http://www.w3.org/2000/svg">
<path opacity="0.4" d="M20.1666 8.93754C19.7908 8.93754 19.4791 8.62587 19.4791 8.25004V6.41671C19.4791 4.05171 17.9483 2.52087 15.5833 2.52087H6.41658C4.05159 2.52087 2.52075 4.05171 2.52075 6.41671V8.25004C2.52075 8.62587 2.20909 8.93754 1.83325 8.93754C1.45742 8.93754 1.14575 8.62587 1.14575 8.25004V6.41671C1.14575 3.26337 3.26325 1.14587 6.41658 1.14587H15.5833C18.7366 1.14587 20.8541 3.26337 20.8541 6.41671V8.25004C20.8541 8.62587 20.5424 8.93754 20.1666 8.93754Z" fill="url(#paint0_linear_9_2490)"/>
<path opacity="0.4" d="M15.5833 20.8542H6.41658C3.26325 20.8542 1.14575 18.7367 1.14575 15.5833V13.75C1.14575 13.3742 1.45742 13.0625 1.83325 13.0625C2.20909 13.0625 2.52075 13.3742 2.52075 13.75V15.5833C2.52075 17.9483 4.05159 19.4792 6.41658 19.4792H15.5833C17.9483 19.4792 19.4791 17.9483 19.4791 15.5833V13.75C19.4791 13.3742 19.7908 13.0625 20.1666 13.0625C20.5424 13.0625 20.8541 13.3742 20.8541 13.75V15.5833C20.8541 18.7367 18.7366 20.8542 15.5833 20.8542Z" fill="url(#paint1_linear_9_2490)"/>
<path d="M15.0333 7.52587L11.5867 5.665C11.22 5.4725 10.7892 5.4725 10.4225 5.665L6.97585 7.52587C6.72835 7.66337 6.57251 7.92916 6.57251 8.23166C6.57251 8.53416 6.72835 8.80001 6.97585 8.93751L10.4225 10.7984C10.6058 10.8992 10.8075 10.945 11.0092 10.945C11.2108 10.945 11.4125 10.8992 11.5958 10.7984L15.0425 8.93751C15.29 8.80001 15.4459 8.53416 15.4459 8.23166C15.4367 7.92916 15.2808 7.66337 15.0333 7.52587Z" fill="url(#paint2_linear_9_2490)"/>
<path d="M9.84489 11.4308L6.63656 9.82659C6.38906 9.70742 6.10488 9.71662 5.86655 9.86329C5.62821 10.01 5.49072 10.2574 5.49072 10.5324V13.5666C5.49072 14.0891 5.78406 14.5658 6.25156 14.795L9.45989 16.3991C9.56989 16.4541 9.68906 16.4816 9.81739 16.4816C9.96406 16.4816 10.1016 16.4449 10.2299 16.3624C10.4682 16.2158 10.6057 15.9683 10.6057 15.6933V12.6591C10.6057 12.1366 10.3216 11.6691 9.84489 11.4308Z" fill="url(#paint3_linear_9_2490)"/>
<path d="M16.1242 9.86329C15.8858 9.71662 15.6017 9.70742 15.3542 9.82659L12.1458 11.4308C11.6783 11.6691 11.385 12.1366 11.385 12.6591V15.6933C11.385 15.9683 11.5225 16.2158 11.7608 16.3624C11.8892 16.4449 12.0267 16.4816 12.1733 16.4816C12.2925 16.4816 12.4117 16.4541 12.5308 16.3991L15.7392 14.795C16.2067 14.5566 16.5 14.0891 16.5 13.5666V10.5324C16.5 10.2574 16.3625 10.01 16.1242 9.86329Z" fill="url(#paint4_linear_9_2490)"/>
<defs>
<linearGradient id="paint0_linear_9_2490" x1="20.8541" y1="5.32177" x2="1.15264" y2="5.72279" gradientUnits="userSpaceOnUse">
<stop stop-color="#57A2A7"/>
<stop offset="1" stop-color="#88B388"/>
</linearGradient>
<linearGradient id="paint1_linear_9_2490" x1="20.8541" y1="17.2384" x2="1.15264" y2="17.6394" gradientUnits="userSpaceOnUse">
<stop stop-color="#57A2A7"/>
<stop offset="1" stop-color="#88B388"/>
</linearGradient>
<linearGradient id="paint2_linear_9_2490" x1="15.4459" y1="8.4278" x2="6.57347" y2="8.54459" gradientUnits="userSpaceOnUse">
<stop stop-color="#57A2A7"/>
<stop offset="1" stop-color="#88B388"/>
</linearGradient>
<linearGradient id="paint3_linear_9_2490" x1="10.6057" y1="13.3552" x2="5.49058" y2="13.3865" gradientUnits="userSpaceOnUse">
<stop stop-color="#57A2A7"/>
<stop offset="1" stop-color="#88B388"/>
</linearGradient>
<linearGradient id="paint4_linear_9_2490" x1="16.5" y1="13.3552" x2="11.3849" y2="13.3865" gradientUnits="userSpaceOnUse">
<stop stop-color="#57A2A7"/>
<stop offset="1" stop-color="#88B388"/>
</linearGradient>
</defs>
</svg>
