<svg width="22" height="22" viewBox="0 0 22 22" fill="none" xmlns="http://www.w3.org/2000/svg">
<path opacity="0.4" d="M20.1668 8.93754C19.791 8.93754 19.4793 8.62587 19.4793 8.25004V6.41671C19.4793 4.05171 17.9485 2.52087 15.5835 2.52087H6.41683C4.05183 2.52087 2.521 4.05171 2.521 6.41671V8.25004C2.521 8.62587 2.20933 8.93754 1.8335 8.93754C1.45766 8.93754 1.146 8.62587 1.146 8.25004V6.41671C1.146 3.26337 3.2635 1.14587 6.41683 1.14587H15.5835C18.7368 1.14587 20.8543 3.26337 20.8543 6.41671V8.25004C20.8543 8.62587 20.5427 8.93754 20.1668 8.93754Z" fill="#155D5A"/>
<path opacity="0.4" d="M15.5835 20.8542H6.41683C3.2635 20.8542 1.146 18.7367 1.146 15.5833V13.75C1.146 13.3742 1.45766 13.0625 1.8335 13.0625C2.20933 13.0625 2.521 13.3742 2.521 13.75V15.5833C2.521 17.9483 4.05183 19.4792 6.41683 19.4792H15.5835C17.9485 19.4792 19.4793 17.9483 19.4793 15.5833V13.75C19.4793 13.3742 19.791 13.0625 20.1668 13.0625C20.5427 13.0625 20.8543 13.3742 20.8543 13.75V15.5833C20.8543 18.7367 18.7368 20.8542 15.5835 20.8542Z" fill="#155D5A"/>
<path d="M15.0331 7.52587L11.5864 5.665C11.2198 5.4725 10.7889 5.4725 10.4223 5.665L6.9756 7.52587C6.7281 7.66337 6.57227 7.92916 6.57227 8.23166C6.57227 8.53416 6.7281 8.80001 6.9756 8.93751L10.4223 10.7984C10.6056 10.8992 10.8073 10.945 11.0089 10.945C11.2106 10.945 11.4123 10.8992 11.5956 10.7984L15.0423 8.93751C15.2898 8.80001 15.4456 8.53416 15.4456 8.23166C15.4364 7.92916 15.2806 7.66337 15.0331 7.52587Z" fill="#155D5A"/>
<path d="M9.84489 11.4308L6.63656 9.82659C6.38906 9.70742 6.10488 9.71662 5.86655 9.86329C5.62821 10.01 5.49072 10.2574 5.49072 10.5324V13.5666C5.49072 14.0891 5.78406 14.5658 6.25156 14.795L9.45989 16.3991C9.56989 16.4541 9.68906 16.4816 9.81739 16.4816C9.96406 16.4816 10.1016 16.4449 10.2299 16.3624C10.4682 16.2158 10.6057 15.9683 10.6057 15.6933V12.6591C10.6057 12.1366 10.3216 11.6691 9.84489 11.4308Z" fill="#155D5A"/>
<path d="M16.1239 9.86329C15.8856 9.71662 15.6014 9.70742 15.3539 9.82659L12.1456 11.4308C11.6781 11.6691 11.3848 12.1366 11.3848 12.6591V15.6933C11.3848 15.9683 11.5223 16.2158 11.7606 16.3624C11.8889 16.4449 12.0264 16.4816 12.1731 16.4816C12.2923 16.4816 12.4114 16.4541 12.5306 16.3991L15.7389 14.795C16.2064 14.5566 16.4998 14.0891 16.4998 13.5666V10.5324C16.4998 10.2574 16.3623 10.01 16.1239 9.86329Z" fill="#155D5A"/>
</svg>
