<svg width="72" height="14" viewBox="0 0 72 14" fill="none" xmlns="http://www.w3.org/2000/svg">
<path fill-rule="evenodd" clip-rule="evenodd" d="M7 13C10.3137 13 13 10.3137 13 7C13 3.68629 10.3137 1 7 1C3.68629 1 1 3.68629 1 7C1 10.3137 3.68629 13 7 13Z" stroke="black"/>
<path fill-rule="evenodd" clip-rule="evenodd" d="M36 13C39.3137 13 42 10.3137 42 7C42 3.68629 39.3137 1 36 1C32.6863 1 30 3.68629 30 7C30 10.3137 32.6863 13 36 13Z" fill="#57A2A7"/>
<path fill-rule="evenodd" clip-rule="evenodd" d="M65 13C68.3137 13 71 10.3137 71 7C71 3.68629 68.3137 1 65 1C61.6863 1 59 3.68629 59 7C59 10.3137 61.6863 13 65 13Z" stroke="black"/>
</svg>
