<svg width="14" height="33" viewBox="0 0 14 33" fill="none" xmlns="http://www.w3.org/2000/svg">
<path d="M0.314453 3.93311V3.55371C0.314453 1.6875 1.22705 0.754395 3.05225 0.754395H10.9478C12.7729 0.754395 13.6855 1.6875 13.6855 3.55371V3.93311H0.314453ZM5.75928 32.439C4.86377 32.439 4.18359 32.1997 3.71875 31.7212C3.25391 31.2427 3.02148 30.5454 3.02148 29.6294V14.2588C3.02148 13.541 2.94629 12.9326 2.7959 12.4336C2.64551 11.9277 2.44385 11.4766 2.19092 11.0801L1.42188 9.90088C1.10059 9.38818 0.833984 8.88574 0.62207 8.39355C0.416992 7.89453 0.314453 7.34082 0.314453 6.73242V5.67627H13.6855V6.73242C13.6855 7.34082 13.5796 7.89453 13.3677 8.39355C13.1626 8.88574 12.896 9.38818 12.5679 9.90088L11.8091 11.0801C11.5562 11.4766 11.3545 11.9277 11.2041 12.4336C11.0537 12.9326 10.9785 13.541 10.9785 14.2588V29.6294C10.9785 30.5454 10.7427 31.2427 10.271 31.7212C9.80615 32.1997 9.12939 32.439 8.24072 32.439H5.75928ZM4.56982 15.4277V19.6421C4.56982 20.3257 4.80225 20.8999 5.26709 21.3647C5.73877 21.8296 6.31982 22.062 7.01025 22.062C7.46143 22.062 7.86816 21.9561 8.23047 21.7441C8.59961 21.5322 8.89014 21.2451 9.10205 20.8828C9.3208 20.5137 9.43018 20.1001 9.43018 19.6421V15.4277C9.43018 14.9766 9.3208 14.5698 9.10205 14.2075C8.89014 13.8384 8.59961 13.5479 8.23047 13.3359C7.86816 13.1172 7.46143 13.0078 7.01025 13.0078C6.31982 13.0078 5.73877 13.2437 5.26709 13.7153C4.80225 14.1802 4.56982 14.751 4.56982 15.4277ZM7.01025 21.2109C6.55908 21.2109 6.18311 21.064 5.88232 20.77C5.58154 20.4692 5.43115 20.0933 5.43115 19.6421C5.43115 19.2114 5.58154 18.8457 5.88232 18.5449C6.18994 18.2373 6.56592 18.0835 7.01025 18.0835C7.44092 18.0835 7.81006 18.2373 8.11768 18.5449C8.42529 18.8457 8.5791 19.2114 8.5791 19.6421C8.5791 20.0933 8.42871 20.4692 8.12793 20.77C7.82715 21.064 7.45459 21.2109 7.01025 21.2109Z" fill="white"/>
</svg>
