<svg width="36" height="36" viewBox="0 0 36 36" fill="none" xmlns="http://www.w3.org/2000/svg">
<path d="M32.9998 20.85V24.285C32.9998 29.745 29.7448 33 24.2848 33H11.7148C7.88984 33 5.12984 31.395 3.83984 28.545L4.00484 28.425L11.3848 23.475C12.5848 22.665 14.2798 22.755 15.3448 23.685L15.8548 24.105C17.0248 25.11 18.9148 25.11 20.0848 24.105L26.3248 18.75C27.4948 17.745 29.3848 17.745 30.5548 18.75L32.9998 20.85Z" fill="#57A2A7"/>
<path opacity="0.4" d="M31.455 12H27.045C25.14 12 24 10.86 24 8.955V4.545C24 3.945 24.12 3.435 24.33 3C24.315 3 24.3 3 24.285 3H11.715C6.255 3 3 6.255 3 11.715V24.285C3 25.92 3.285 27.345 3.84 28.545L4.005 28.425L11.385 23.475C12.585 22.665 14.28 22.755 15.345 23.685L15.855 24.105C17.025 25.11 18.915 25.11 20.085 24.105L26.325 18.75C27.495 17.745 29.385 17.745 30.555 18.75L33 20.85V11.715C33 11.7 33 11.685 33 11.67C32.565 11.88 32.055 12 31.455 12Z" fill="#57A2A7"/>
<path d="M13.5002 15.57C15.4718 15.57 17.0702 13.9716 17.0702 12C17.0702 10.0283 15.4718 8.42999 13.5002 8.42999C11.5285 8.42999 9.93018 10.0283 9.93018 12C9.93018 13.9716 11.5285 15.57 13.5002 15.57Z" fill="#57A2A7"/>
<path d="M31.455 1.5H27.045C25.14 1.5 24 2.64 24 4.545V8.955C24 10.86 25.14 12 27.045 12H31.455C33.36 12 34.5 10.86 34.5 8.955V4.545C34.5 2.64 33.36 1.5 31.455 1.5ZM32.865 7.395C32.715 7.545 32.49 7.65 32.25 7.665H30.135L30.15 9.75C30.135 10.005 30.045 10.215 29.865 10.395C29.715 10.545 29.49 10.65 29.25 10.65C28.755 10.65 28.35 10.245 28.35 9.75V7.65L26.25 7.665C25.755 7.665 25.35 7.245 25.35 6.75C25.35 6.255 25.755 5.85 26.25 5.85L28.35 5.865V3.765C28.35 3.27 28.755 2.85 29.25 2.85C29.745 2.85 30.15 3.27 30.15 3.765L30.135 5.85H32.25C32.745 5.85 33.15 6.255 33.15 6.75C33.135 7.005 33.03 7.215 32.865 7.395Z" fill="#57A2A7"/>
</svg>
