<svg width="22" height="22" viewBox="0 0 22 22" fill="none" xmlns="http://www.w3.org/2000/svg">
<path opacity="0.4" d="M20.1667 7.15909V12.7416L18.6725 11.4583C17.9575 10.8441 16.8025 10.8441 16.0875 11.4583L12.2742 14.7308C11.5592 15.3449 10.4042 15.3449 9.68918 14.7308L9.37751 14.4741C8.72668 13.9058 7.69084 13.8508 6.95751 14.3458L2.44751 17.3708L2.34668 17.4441C2.00751 16.7108 1.83334 15.8399 1.83334 14.8408V7.15909C1.83334 3.82242 3.82251 1.83325 7.15918 1.83325H14.8408C18.1775 1.83325 20.1667 3.82242 20.1667 7.15909Z" fill="url(#paint0_linear_9_2789)"/>
<path d="M8.25 9.51495C9.4549 9.51495 10.4317 8.53818 10.4317 7.33328C10.4317 6.12838 9.4549 5.15161 8.25 5.15161C7.04509 5.15161 6.06833 6.12838 6.06833 7.33328C6.06833 8.53818 7.04509 9.51495 8.25 9.51495Z" fill="url(#paint1_linear_9_2789)"/>
<path d="M20.1667 12.7418V14.8409C20.1667 18.1776 18.1775 20.1668 14.8408 20.1668H7.15918C4.82168 20.1668 3.13501 19.1859 2.34668 17.4443L2.44751 17.3709L6.95751 14.3459C7.69085 13.8509 8.72668 13.9059 9.37751 14.4743L9.68918 14.7309C10.4042 15.3451 11.5592 15.3451 12.2742 14.7309L16.0875 11.4584C16.8025 10.8443 17.9575 10.8443 18.6725 11.4584L20.1667 12.7418Z" fill="url(#paint2_linear_9_2789)"/>
<defs>
<linearGradient id="paint0_linear_9_2789" x1="20.1667" y1="10.1998" x2="1.83379" y2="10.373" gradientUnits="userSpaceOnUse">
<stop stop-color="#57A2A7"/>
<stop offset="1" stop-color="#88B388"/>
</linearGradient>
<linearGradient id="paint1_linear_9_2789" x1="10.4317" y1="7.49011" x2="6.06833" y2="7.52523" gradientUnits="userSpaceOnUse">
<stop stop-color="#57A2A7"/>
<stop offset="1" stop-color="#88B388"/>
</linearGradient>
<linearGradient id="paint2_linear_9_2789" x1="20.1667" y1="15.9119" x2="2.34988" y2="16.1905" gradientUnits="userSpaceOnUse">
<stop stop-color="#57A2A7"/>
<stop offset="1" stop-color="#88B388"/>
</linearGradient>
</defs>
</svg>
