<svg width="22" height="22" viewBox="0 0 22 22" fill="none" xmlns="http://www.w3.org/2000/svg">
<path opacity="0.4" d="M11.0001 18.3334C15.0502 18.3334 18.3334 15.0502 18.3334 11.0001C18.3334 6.94999 15.0502 3.66675 11.0001 3.66675C6.94999 3.66675 3.66675 6.94999 3.66675 11.0001C3.66675 15.0502 6.94999 18.3334 11.0001 18.3334Z" fill="url(#paint0_linear_115_149)"/>
<path d="M10.9999 13.8599C12.5794 13.8599 13.8599 12.5794 13.8599 10.9999C13.8599 9.42036 12.5794 8.13989 10.9999 8.13989C9.42036 8.13989 8.13989 9.42036 8.13989 10.9999C8.13989 12.5794 9.42036 13.8599 10.9999 13.8599Z" fill="url(#paint1_linear_115_149)"/>
<path d="M11.6875 1.83325V3.70325H11.6783C11.4583 3.67575 11.2292 3.66659 11 3.66659C10.7708 3.66659 10.5417 3.67575 10.3217 3.70325H10.3125V1.83325C10.3125 1.45742 10.6242 1.14575 11 1.14575C11.3758 1.14575 11.6875 1.45742 11.6875 1.83325Z" fill="url(#paint2_linear_115_149)"/>
<path d="M3.66659 11C3.66659 11.2292 3.67575 11.4675 3.70325 11.6875H1.83325C1.45742 11.6875 1.14575 11.3758 1.14575 11C1.14575 10.6242 1.45742 10.3125 1.83325 10.3125H3.70325C3.67575 10.5325 3.66659 10.7708 3.66659 11Z" fill="url(#paint3_linear_115_149)"/>
<path d="M11.6875 18.2966V20.1666C11.6875 20.5425 11.3758 20.8541 11 20.8541C10.6242 20.8541 10.3125 20.5425 10.3125 20.1666V18.2966H10.3217C10.5417 18.3241 10.7708 18.3333 11 18.3333C11.2292 18.3333 11.4583 18.3241 11.6783 18.2966H11.6875Z" fill="url(#paint4_linear_115_149)"/>
<path d="M20.8541 11C20.8541 11.3758 20.5425 11.6875 20.1666 11.6875H18.2966C18.3241 11.4675 18.3333 11.2292 18.3333 11C18.3333 10.7708 18.3241 10.5325 18.2966 10.3125H20.1666C20.5425 10.3125 20.8541 10.6242 20.8541 11Z" fill="url(#paint5_linear_115_149)"/>
<defs>
<linearGradient id="paint0_linear_115_149" x1="18.3334" y1="11.5273" x2="3.66675" y2="11.6453" gradientUnits="userSpaceOnUse">
<stop stop-color="#57A2A7"/>
<stop offset="1" stop-color="#88B388"/>
</linearGradient>
<linearGradient id="paint1_linear_115_149" x1="13.8599" y1="11.2055" x2="8.13989" y2="11.2515" gradientUnits="userSpaceOnUse">
<stop stop-color="#57A2A7"/>
<stop offset="1" stop-color="#88B388"/>
</linearGradient>
<linearGradient id="paint2_linear_115_149" x1="11.6875" y1="2.51643" x2="10.3124" y2="2.52238" gradientUnits="userSpaceOnUse">
<stop stop-color="#57A2A7"/>
<stop offset="1" stop-color="#88B388"/>
</linearGradient>
<linearGradient id="paint3_linear_115_149" x1="3.70325" y1="11.0494" x2="1.14616" y2="11.0877" gradientUnits="userSpaceOnUse">
<stop stop-color="#57A2A7"/>
<stop offset="1" stop-color="#88B388"/>
</linearGradient>
<linearGradient id="paint4_linear_115_149" x1="11.6875" y1="19.6673" x2="10.3124" y2="19.6733" gradientUnits="userSpaceOnUse">
<stop stop-color="#57A2A7"/>
<stop offset="1" stop-color="#88B388"/>
</linearGradient>
<linearGradient id="paint5_linear_115_149" x1="20.8541" y1="11.0494" x2="18.297" y2="11.0877" gradientUnits="userSpaceOnUse">
<stop stop-color="#57A2A7"/>
<stop offset="1" stop-color="#88B388"/>
</linearGradient>
</defs>
</svg>
