<svg width="22" height="22" viewBox="0 0 22 22" fill="none" xmlns="http://www.w3.org/2000/svg">
<path opacity="0.4" d="M11 18.3334C15.0501 18.3334 18.3334 15.0502 18.3334 11.0001C18.3334 6.94999 15.0501 3.66675 11 3.66675C6.94993 3.66675 3.66669 6.94999 3.66669 11.0001C3.66669 15.0502 6.94993 18.3334 11 18.3334Z" fill="#155D5A"/>
<path d="M11 13.8599C12.5795 13.8599 13.86 12.5794 13.86 10.9999C13.86 9.42036 12.5795 8.13989 11 8.13989C9.42048 8.13989 8.14001 9.42036 8.14001 10.9999C8.14001 12.5794 9.42048 13.8599 11 13.8599Z" fill="#155D5A"/>
<path d="M11.6875 1.83325V3.70325H11.6783C11.4583 3.67575 11.2292 3.66659 11 3.66659C10.7708 3.66659 10.5417 3.67575 10.3217 3.70325H10.3125V1.83325C10.3125 1.45742 10.6242 1.14575 11 1.14575C11.3758 1.14575 11.6875 1.45742 11.6875 1.83325Z" fill="#155D5A"/>
<path d="M3.66665 11C3.66665 11.2292 3.67581 11.4675 3.70331 11.6875H1.83331C1.45748 11.6875 1.14581 11.3758 1.14581 11C1.14581 10.6242 1.45748 10.3125 1.83331 10.3125H3.70331C3.67581 10.5325 3.66665 10.7708 3.66665 11Z" fill="#155D5A"/>
<path d="M11.6875 18.2966V20.1666C11.6875 20.5425 11.3758 20.8541 11 20.8541C10.6242 20.8541 10.3125 20.5425 10.3125 20.1666V18.2966H10.3217C10.5417 18.3241 10.7708 18.3333 11 18.3333C11.2292 18.3333 11.4583 18.3241 11.6783 18.2966H11.6875Z" fill="#155D5A"/>
<path d="M20.8542 11C20.8542 11.3758 20.5425 11.6875 20.1667 11.6875H18.2967C18.3242 11.4675 18.3334 11.2292 18.3334 11C18.3334 10.7708 18.3242 10.5325 18.2967 10.3125H20.1667C20.5425 10.3125 20.8542 10.6242 20.8542 11Z" fill="#155D5A"/>
</svg>
