<svg width="46" height="46" viewBox="0 0 46 46" fill="none" xmlns="http://www.w3.org/2000/svg">
<path d="M35.8224 22.099C34.7299 21.8115 33.4457 21.6582 31.9124 21.6582C29.7849 21.6582 28.9991 22.1757 27.9066 22.9999C27.8491 23.0382 27.7916 23.0957 27.7341 23.1532L25.9132 25.089C24.3991 26.7182 21.6199 26.7182 20.0866 25.089L18.2657 23.1724C18.2082 23.0957 18.1507 23.0382 18.0932 22.9999C16.9816 22.1757 16.1957 21.6582 14.0874 21.6582C12.5541 21.6582 11.2699 21.7924 10.1774 22.099C5.61572 23.3257 5.61572 26.9482 5.61572 30.1299V31.9124C5.61572 36.7232 5.61572 42.1665 15.8699 42.1665H30.1299C36.9341 42.1665 40.3841 38.7165 40.3841 31.9124V30.1299C40.3841 26.9482 40.3841 23.3257 35.8224 22.099Z" fill="white"/>
<path opacity="0.4" d="M28.3476 3.83301H17.6526C9.18091 3.83301 9.18091 8.33718 9.18091 12.3047V23.4022C9.18091 23.8238 9.37257 24.2072 9.69841 24.4563C10.0242 24.7055 10.4651 24.8013 10.8676 24.6863C11.7301 24.4563 12.8034 24.3413 14.0876 24.3413C15.3717 24.3413 15.6401 24.4947 16.4067 25.0697L18.1509 26.9097C19.3967 28.2513 21.1792 29.018 23.0192 29.018C24.8592 29.018 26.6226 28.2513 27.8876 26.9097L29.6317 25.0697C30.3984 24.4947 30.6667 24.3413 31.9509 24.3413C33.2351 24.3413 34.3084 24.4563 35.1709 24.6863C35.5734 24.8013 35.9951 24.7055 36.3401 24.4563C36.6659 24.2072 36.8576 23.8047 36.8576 23.4022V12.3047C36.8192 8.33718 36.8192 3.83301 28.3476 3.83301Z" fill="white"/>
<path d="M25.9708 18.9939H20.0292C19.2817 18.9939 18.6875 18.3997 18.6875 17.6522C18.6875 16.9047 19.2817 16.3105 20.0292 16.3105H25.9708C26.7183 16.3105 27.3125 16.9047 27.3125 17.6522C27.3125 18.3805 26.6992 18.9939 25.9708 18.9939Z" fill="white"/>
<path d="M27.4657 13.6462H18.534C17.7865 13.6462 17.1924 13.0521 17.1924 12.3046C17.1924 11.5571 17.7865 10.9629 18.534 10.9629H27.4465C28.194 10.9629 28.7882 11.5571 28.7882 12.3046C28.7882 13.0329 28.194 13.6462 27.4657 13.6462Z" fill="white"/>
</svg>
