<svg width="22" height="22" viewBox="0 0 22 22" fill="none" xmlns="http://www.w3.org/2000/svg">
<path opacity="0.4" d="M9.85417 2.24571C10.4958 1.70488 11.5317 1.70488 12.155 2.24571L13.6033 3.48321C13.8783 3.71238 14.4008 3.90488 14.7675 3.90488H16.3258C17.2975 3.90488 18.095 4.70238 18.095 5.67405V7.23238C18.095 7.59905 18.2875 8.11238 18.5167 8.38738L19.7542 9.83571C20.295 10.4774 20.295 11.5132 19.7542 12.1365L18.5167 13.5849C18.2875 13.8599 18.095 14.3732 18.095 14.7399V16.2982C18.095 17.2699 17.2975 18.0674 16.3258 18.0674H14.7675C14.4008 18.0674 13.8875 18.2599 13.6125 18.489L12.1642 19.7265C11.5225 20.2674 10.4867 20.2674 9.86334 19.7265L8.415 18.489C8.14 18.2599 7.6175 18.0674 7.26 18.0674H5.65584C4.68417 18.0674 3.88667 17.2699 3.88667 16.2982V14.7307C3.88667 14.3732 3.70334 13.8507 3.47417 13.5849L2.23667 12.1274C1.705 11.4949 1.705 10.4682 2.23667 9.83571L3.47417 8.37821C3.70334 8.10321 3.88667 7.58988 3.88667 7.23238V5.68321C3.88667 4.71155 4.68417 3.91405 5.65584 3.91405H7.24167C7.60834 3.91405 8.12167 3.72155 8.39667 3.49238L9.85417 2.24571Z" fill="url(#paint0_linear_9_2777)"/>
<path d="M11 15.4642C10.4958 15.4642 10.0833 15.0517 10.0833 14.5475C10.0833 14.0434 10.4867 13.6309 11 13.6309C11.5042 13.6309 11.9167 14.0434 11.9167 14.5475C11.9167 15.0517 11.5133 15.4642 11 15.4642Z" fill="url(#paint1_linear_9_2777)"/>
<path d="M11 12.5766C10.6242 12.5766 10.3125 12.2649 10.3125 11.8891V7.45239C10.3125 7.07656 10.6242 6.76489 11 6.76489C11.3758 6.76489 11.6875 7.07656 11.6875 7.45239V11.8799C11.6875 12.2649 11.385 12.5766 11 12.5766Z" fill="url(#paint2_linear_9_2777)"/>
<defs>
<linearGradient id="paint0_linear_9_2777" x1="20.1598" y1="11.6436" x2="1.83793" y2="11.7913" gradientUnits="userSpaceOnUse">
<stop stop-color="#57A2A7"/>
<stop offset="1" stop-color="#88B388"/>
</linearGradient>
<linearGradient id="paint1_linear_9_2777" x1="11.9167" y1="14.6134" x2="10.0833" y2="14.6282" gradientUnits="userSpaceOnUse">
<stop stop-color="#57A2A7"/>
<stop offset="1" stop-color="#88B388"/>
</linearGradient>
<linearGradient id="paint2_linear_9_2777" x1="11.6875" y1="9.87962" x2="10.3124" y2="9.88224" gradientUnits="userSpaceOnUse">
<stop stop-color="#57A2A7"/>
<stop offset="1" stop-color="#88B388"/>
</linearGradient>
</defs>
</svg>
