<svg width="22" height="22" viewBox="0 0 22 22" fill="none" xmlns="http://www.w3.org/2000/svg">
<path opacity="0.4" d="M10.9999 20.1667C16.0625 20.1667 20.1666 16.0626 20.1666 11C20.1666 5.9374 16.0625 1.83334 10.9999 1.83334C5.93731 1.83334 1.83325 5.9374 1.83325 11C1.83325 16.0626 5.93731 20.1667 10.9999 20.1667Z" fill="#155D5A"/>
<path d="M11 12.6042C11.3758 12.6042 11.6875 12.2925 11.6875 11.9167V7.33334C11.6875 6.95751 11.3758 6.64584 11 6.64584C10.6242 6.64584 10.3125 6.95751 10.3125 7.33334V11.9167C10.3125 12.2925 10.6242 12.6042 11 12.6042Z" fill="#155D5A"/>
<path d="M11.8433 14.3183C11.7974 14.2083 11.7333 14.1075 11.6508 14.0158C11.5591 13.9333 11.4583 13.8692 11.3483 13.8233C11.1283 13.7317 10.8716 13.7317 10.6516 13.8233C10.5416 13.8692 10.4408 13.9333 10.3491 14.0158C10.2666 14.1075 10.2024 14.2083 10.1566 14.3183C10.1108 14.4283 10.0833 14.5475 10.0833 14.6667C10.0833 14.7858 10.1108 14.905 10.1566 15.015C10.2024 15.1342 10.2666 15.2258 10.3491 15.3175C10.4408 15.4 10.5416 15.4642 10.6516 15.51C10.7616 15.5558 10.8808 15.5833 10.9999 15.5833C11.1191 15.5833 11.2383 15.5558 11.3483 15.51C11.4583 15.4642 11.5591 15.4 11.6508 15.3175C11.7333 15.2258 11.7974 15.1342 11.8433 15.015C11.8891 14.905 11.9166 14.7858 11.9166 14.6667C11.9166 14.5475 11.8891 14.4283 11.8433 14.3183Z" fill="#155D5A"/>
</svg>
