<svg width="22" height="22" viewBox="0 0 22 22" fill="none" xmlns="http://www.w3.org/2000/svg">
<path opacity="0.4" d="M18.9018 7.74591C17.9393 3.51091 14.2451 1.60425 11.0001 1.60425C11.0001 1.60425 11.0001 1.60425 10.9909 1.60425C7.75509 1.60425 4.05175 3.50175 3.08925 7.73675C2.01675 12.4667 4.91342 16.4726 7.53509 18.9934C8.50675 19.9284 9.75342 20.3959 11.0001 20.3959C12.2468 20.3959 13.4934 19.9284 14.4559 18.9934C17.0776 16.4726 19.9743 12.4759 18.9018 7.74591Z" fill="url(#paint0_linear_115_762)"/>
<path d="M11 12.3382C12.5948 12.3382 13.8875 11.0455 13.8875 9.45073C13.8875 7.85601 12.5948 6.56323 11 6.56323C9.40533 6.56323 8.11255 7.85601 8.11255 9.45073C8.11255 11.0455 9.40533 12.3382 11 12.3382Z" fill="url(#paint1_linear_115_762)"/>
<defs>
<linearGradient id="paint0_linear_115_762" x1="19.1309" y1="11.6755" x2="2.85984" y2="11.7889" gradientUnits="userSpaceOnUse">
<stop stop-color="#57A2A7"/>
<stop offset="1" stop-color="#88B388"/>
</linearGradient>
<linearGradient id="paint1_linear_115_762" x1="13.8875" y1="9.65831" x2="8.11255" y2="9.70478" gradientUnits="userSpaceOnUse">
<stop stop-color="#57A2A7"/>
<stop offset="1" stop-color="#88B388"/>
</linearGradient>
</defs>
</svg>
