<svg width="22" height="22" viewBox="0 0 22 22" fill="none" xmlns="http://www.w3.org/2000/svg">
<path opacity="0.4" d="M18.9017 7.97492C17.9483 3.73075 14.245 1.83325 11 1.83325C11 1.83325 11 1.83325 10.9908 1.83325C7.75501 1.83325 4.06085 3.73075 3.09835 7.96575C2.01668 12.6958 4.91335 16.7016 7.53502 19.2316C8.50668 20.1666 9.75335 20.6341 11 20.6341C12.2467 20.6341 13.4933 20.1666 14.4558 19.2316C17.0775 16.7016 19.9742 12.7049 18.9017 7.97492Z" fill="url(#paint0_linear_115_433)"/>
<path d="M9.85415 12.6041C9.67999 12.6041 9.50582 12.5399 9.36832 12.4024L7.99332 11.0274C7.72749 10.7616 7.72749 10.3216 7.99332 10.0557C8.25915 9.78991 8.69915 9.78991 8.96499 10.0557L9.85415 10.9449L13.035 7.76407C13.3008 7.49824 13.7408 7.49824 14.0067 7.76407C14.2725 8.02991 14.2725 8.46991 14.0067 8.73574L10.34 12.4024C10.2025 12.5399 10.0283 12.6041 9.85415 12.6041Z" fill="url(#paint1_linear_115_433)"/>
<defs>
<linearGradient id="paint0_linear_115_433" x1="19.1308" y1="11.9094" x2="2.86546" y2="12.0227" gradientUnits="userSpaceOnUse">
<stop stop-color="#57A2A7"/>
<stop offset="1" stop-color="#88B388"/>
</linearGradient>
<linearGradient id="paint1_linear_115_433" x1="14.206" y1="10.2655" x2="7.7942" y2="10.3312" gradientUnits="userSpaceOnUse">
<stop stop-color="#57A2A7"/>
<stop offset="1" stop-color="#88B388"/>
</linearGradient>
</defs>
</svg>
