<svg width="22" height="22" viewBox="0 0 22 22" fill="none" xmlns="http://www.w3.org/2000/svg">
<path opacity="0.4" d="M18.9017 7.97504C17.9483 3.73087 14.245 1.83337 11 1.83337C11 1.83337 11 1.83337 10.9908 1.83337C7.75501 1.83337 4.06085 3.73087 3.09835 7.96587C2.01668 12.6959 4.91335 16.7017 7.53502 19.2317C8.50668 20.1667 9.75335 20.6342 11 20.6342C12.2467 20.6342 13.4933 20.1667 14.4558 19.2317C17.0775 16.7017 19.9742 12.705 18.9017 7.97504Z" fill="url(#paint0_linear_180_394)"/>
<path d="M9.85415 12.6042C9.67999 12.6042 9.50582 12.54 9.36832 12.4025L7.99332 11.0275C7.72749 10.7617 7.72749 10.3217 7.99332 10.0559C8.25915 9.79003 8.69915 9.79003 8.96499 10.0559L9.85415 10.945L13.035 7.76419C13.3008 7.49836 13.7408 7.49836 14.0067 7.76419C14.2725 8.03003 14.2725 8.47003 14.0067 8.73586L10.34 12.4025C10.2025 12.54 10.0283 12.6042 9.85415 12.6042Z" fill="url(#paint1_linear_180_394)"/>
<defs>
<linearGradient id="paint0_linear_180_394" x1="19.1308" y1="11.9096" x2="2.86546" y2="12.0228" gradientUnits="userSpaceOnUse">
<stop stop-color="#57A2A7"/>
<stop offset="1" stop-color="#88B388"/>
</linearGradient>
<linearGradient id="paint1_linear_180_394" x1="14.206" y1="10.2656" x2="7.7942" y2="10.3313" gradientUnits="userSpaceOnUse">
<stop stop-color="#57A2A7"/>
<stop offset="1" stop-color="#88B388"/>
</linearGradient>
</defs>
</svg>
