<svg width="29" height="29" viewBox="0 0 29 29" fill="none" xmlns="http://www.w3.org/2000/svg">
<path opacity="0.4" d="M10.0886 3.93652V20.8255C9.6879 20.8372 9.28719 20.9315 8.99255 21.1083L6.2229 22.6876C4.29005 23.7955 2.69897 22.8762 2.69897 20.6369V9.16938C2.69897 8.42688 3.22933 7.5076 3.88933 7.13045L8.99255 4.20759C9.28719 4.04259 9.6879 3.94831 10.0886 3.93652Z" fill="white"/>
<path d="M18.539 7.46025V24.3492C18.1265 24.361 17.7258 24.2903 17.4076 24.137L11.2201 21.0374C10.9018 20.8842 10.5011 20.8135 10.0886 20.8253V3.93632C10.5011 3.92454 10.9018 3.99525 11.2201 4.14846L17.4076 7.24811C17.7258 7.40132 18.1265 7.47204 18.539 7.46025Z" fill="white"/>
<path opacity="0.4" d="M25.9285 7.64904V19.1165C25.9285 19.859 25.3981 20.7783 24.7381 21.1555L19.6349 24.0783C19.3402 24.2433 18.9395 24.3376 18.5388 24.3494V7.46047C18.9395 7.44868 19.3402 7.3544 19.6349 7.17761L22.4045 5.59833C24.3374 4.49047 25.9285 5.40975 25.9285 7.64904Z" fill="white"/>
</svg>
