<svg width="22" height="22" viewBox="0 0 22 22" fill="none" xmlns="http://www.w3.org/2000/svg">
<path opacity="0.4" d="M1.83334 8.25V7.33333C1.83334 4.80333 3.88668 2.75 6.41668 2.75H15.5833C18.1133 2.75 20.1667 4.80333 20.1667 7.33333V14.6667C20.1667 17.1967 18.1133 19.25 15.5833 19.25H14.6667H6.41668C3.88668 19.25 1.83334 17.1967 1.83334 14.6667V8.25Z" fill="url(#paint0_linear_9_2752)"/>
<path d="M14.795 14.1533C14.4558 14.1533 14.1625 13.8966 14.1167 13.5574C13.7225 10.4591 11.4675 8.20411 8.36917 7.80994C7.99334 7.76411 7.72749 7.41576 7.77333 7.03993C7.81916 6.6641 8.1675 6.39827 8.54334 6.4441C12.2742 6.92077 14.9967 9.64328 15.4825 13.3833C15.5283 13.7591 15.2625 14.1074 14.8867 14.1533C14.8592 14.1533 14.8317 14.1533 14.795 14.1533Z" fill="url(#paint1_linear_9_2752)"/>
<path d="M12.32 14.9417C11.9808 14.9417 11.6875 14.685 11.6417 14.3459C11.3575 12.1642 9.77167 10.5692 7.58084 10.285C7.205 10.2392 6.93916 9.89088 6.985 9.51504C7.03083 9.13921 7.37917 8.87337 7.75501 8.9192C10.5783 9.28587 12.6408 11.3392 13.0075 14.1717C13.0533 14.5475 12.7875 14.8959 12.4117 14.9417C12.3842 14.9417 12.3475 14.9417 12.32 14.9417Z" fill="url(#paint2_linear_9_2752)"/>
<path d="M9.52416 15.409C9.185 15.409 8.89166 15.1524 8.84582 14.8132C8.72666 13.8782 8.04833 13.1999 7.11333 13.0807C6.73749 13.0349 6.47166 12.6865 6.5175 12.3107C6.56333 11.9348 6.91166 11.669 7.28749 11.7149C8.83666 11.9165 10.01 13.0899 10.2117 14.639C10.2575 15.0149 9.99167 15.3632 9.61584 15.409C9.58834 15.409 9.55166 15.409 9.52416 15.409Z" fill="url(#paint3_linear_9_2752)"/>
<defs>
<linearGradient id="paint0_linear_9_2752" x1="20.1667" y1="11.5931" x2="1.83362" y2="11.757" gradientUnits="userSpaceOnUse">
<stop stop-color="#57A2A7"/>
<stop offset="1" stop-color="#88B388"/>
</linearGradient>
<linearGradient id="paint1_linear_9_2752" x1="15.4876" y1="10.5734" x2="7.76819" y2="10.6356" gradientUnits="userSpaceOnUse">
<stop stop-color="#57A2A7"/>
<stop offset="1" stop-color="#88B388"/>
</linearGradient>
<linearGradient id="paint2_linear_9_2752" x1="13.0126" y1="12.1445" x2="6.97986" y2="12.1931" gradientUnits="userSpaceOnUse">
<stop stop-color="#57A2A7"/>
<stop offset="1" stop-color="#88B388"/>
</linearGradient>
<linearGradient id="paint3_linear_9_2752" x1="10.2168" y1="13.6923" x2="6.51236" y2="13.7222" gradientUnits="userSpaceOnUse">
<stop stop-color="#57A2A7"/>
<stop offset="1" stop-color="#88B388"/>
</linearGradient>
</defs>
</svg>
