<svg width="20" height="19" viewBox="0 0 20 19" fill="none" xmlns="http://www.w3.org/2000/svg">
<path opacity="0.4" d="M13.8415 0H6.16898C2.82315 0 0.833984 1.98916 0.833984 5.32583V12.9983C0.833984 16.335 2.82315 18.3242 6.15982 18.3242H13.8323C17.169 18.3242 19.1581 16.335 19.1581 12.9983V5.32583C19.1673 1.98916 17.1781 0 13.8415 0Z" fill="#57A2A7"/>
<path d="M14.9034 6.46288L12.7584 13.3745C12.2451 15.0154 9.94424 15.0429 9.40341 13.4112L8.76174 11.5137C8.58758 10.9912 8.17508 10.5695 7.65258 10.4045L5.74591 9.76288C4.12341 9.22205 4.15091 6.90288 5.79174 6.40788L12.7034 4.25371C14.0601 3.84121 15.3342 5.11538 14.9034 6.46288Z" fill="#73A8AE"/>
</svg>
