<svg width="31" height="38" viewBox="0 0 31 38" fill="none" xmlns="http://www.w3.org/2000/svg">
<g clip-path="url(#clip0_1_11342)">
<path d="M20.6858 26.7944C20.7659 29.356 18.7575 31.4968 16.2 31.5761C13.6426 31.6554 11.504 29.6438 11.4239 27.0822L16.1676 26.0019L20.6858 26.7944Z" fill="#73A8AE"/>
<path d="M29.4786 24.4192L29.512 25.4788C29.5301 26.0529 29.0797 26.5333 28.5061 26.5509L3.60356 27.325C3.03036 27.343 2.55056 26.8918 2.5328 26.3173L2.49947 25.2576C2.48771 24.8881 2.67292 24.5405 2.98545 24.3442L5.43908 22.8022L5.61862 22.6895C5.68339 22.649 5.74666 22.606 5.80762 22.5609C6.65519 21.9397 7.14843 20.9364 7.11537 19.8754L6.89324 12.7757C6.76574 8.70973 9.43695 5.20722 13.1658 4.12384C13.1516 4.03456 13.143 3.94342 13.14 3.85085C13.1019 2.6399 14.0517 1.62744 15.2609 1.59011C16.4701 1.55236 17.4813 2.5039 17.519 3.71489C17.522 3.80747 17.519 3.89902 17.5105 3.9891C19.0551 4.3352 20.4493 5.094 21.5679 6.14633C23.1932 7.67556 24.2366 9.82583 24.3118 12.2346L24.5339 19.3342C24.567 20.3952 25.1224 21.3661 26.0072 21.9332C26.0713 21.9744 26.1368 22.0129 26.2041 22.0496L26.3902 22.151L28.9358 23.5373C29.26 23.7142 29.4664 24.0493 29.4778 24.4188L29.4786 24.4192Z" fill="#73A8AE"/>
<path d="M16.1597 3.73246C16.1642 3.29902 16.0306 2.86351 15.7761 2.51157C15.4889 2.11463 15.0524 1.83044 14.5753 1.72233C14.7896 1.64361 15.0202 1.59754 15.2607 1.5898C16.4699 1.55206 17.4812 2.50359 17.5188 3.71459C17.5218 3.80716 17.5188 3.89871 17.5104 3.98879L16.1593 3.73209L16.1597 3.73246Z" fill="white" fill-opacity="0.21"/>
<path d="M26.391 22.1515L5.43949 22.8027L5.61903 22.69C5.68379 22.6494 5.74707 22.6065 5.80802 22.5614L26.0081 21.9337C26.0721 21.9748 26.1376 22.0134 26.2049 22.0501L26.391 22.1515Z" fill="white" fill-opacity="0.21"/>
<path d="M20.6857 26.7947C20.7658 29.3564 18.7574 31.4971 16.2 31.5765C15.7234 31.5915 15.2608 31.5332 14.8238 31.4129C14.8238 31.4129 16.4346 31.5635 17.9386 30.3344C18.6692 29.7376 19.1637 28.5773 19.0844 27.6362L11.5056 27.8193C11.4594 27.58 11.4316 27.3338 11.4239 27.0825L20.6857 26.7947Z" fill="white" fill-opacity="0.21"/>
<path d="M4.97322 24.4265C5.04812 24.2575 4.85824 24.0943 4.70252 24.1936L4.24469 24.4861C4.01732 24.6314 3.78216 24.7849 3.6436 25.0164C3.45009 25.3408 3.4853 25.7472 3.52673 26.123C3.53071 26.1598 3.53606 26.1978 3.54263 26.2357C3.58456 26.4704 3.79166 26.6397 4.02977 26.6322C4.27574 26.6247 4.47765 26.4316 4.4929 26.1857C4.53331 25.5402 4.77074 24.8826 4.97322 24.4265Z" fill="white" fill-opacity="0.21"/>
<path d="M13.647 3.96181C13.6002 3.33362 13.8403 2.67734 14.1708 2.34097C14.2943 2.21566 14.5001 2.28011 14.5407 2.45653C14.5579 2.53139 14.5327 2.60502 14.4922 2.66745C14.0973 3.27743 14.1902 3.8235 14.1902 3.8235L14.1755 3.82509C14.0068 3.85077 13.8411 3.89231 13.6809 3.94944L13.647 3.96181Z" fill="white" fill-opacity="0.21"/>
</g>
<defs>
<clipPath id="clip0_1_11342">
<rect width="27" height="35" fill="white" transform="translate(0 2.90039) rotate(-6.16632)"/>
</clipPath>
</defs>
</svg>
