<svg width="26" height="24" viewBox="0 0 26 24" fill="none" xmlns="http://www.w3.org/2000/svg">
<path d="M13.0199 2.03125C9.57197 2.03125 6.76989 4.83333 6.76989 8.28125V11.2917C6.76989 11.9271 6.49905 12.8958 6.17614 13.4375L4.97822 15.4271C4.23864 16.6563 4.74905 18.0208 6.10322 18.4792C10.5928 19.9792 15.4366 19.9792 19.9261 18.4792C21.1866 18.0625 21.7386 16.5729 21.0511 15.4271L19.8532 13.4375C19.5407 12.8958 19.2699 11.9271 19.2699 11.2917V8.28125C19.2699 4.84375 16.4574 2.03125 13.0199 2.03125Z" stroke="#A7A9B7" stroke-width="1.5" stroke-miterlimit="10" stroke-linecap="round"/>
<path d="M14.9479 2.33301C14.625 2.23926 14.2917 2.16634 13.9479 2.12467C12.9479 1.99967 11.9896 2.07259 11.0938 2.33301C11.3958 1.56217 12.1458 1.02051 13.0208 1.02051C13.8958 1.02051 14.6458 1.56217 14.9479 2.33301Z" stroke="#A7A9B7" stroke-width="1.5" stroke-miterlimit="10" stroke-linecap="round" stroke-linejoin="round"/>
<path d="M16.1465 18.8545C16.1465 20.5732 14.7402 21.9795 13.0215 21.9795C12.1673 21.9795 11.3757 21.6253 10.8132 21.0628C10.2507 20.5003 9.89648 19.7087 9.89648 18.8545" stroke="#A7A9B7" stroke-width="1.5" stroke-miterlimit="10"/>
</svg>
