<svg width="19" height="18" viewBox="0 0 19 18" fill="none" xmlns="http://www.w3.org/2000/svg">
<path d="M1.97891 11.0059C1.97895 11.2779 2.01912 11.5498 2.11563 11.873L2.14297 11.9648C2.55237 13.1863 3.68026 14.0068 4.94766 14.0068H16.4408L15.727 16.2998C15.525 17.0795 14.8045 17.6084 14.016 17.6084C13.8622 17.6083 13.7088 17.589 13.56 17.5498L1.31875 14.2354C0.374441 13.972 -0.188778 12.9835 0.0580079 12.0303L1.97891 5.54785V11.0059ZM17.0209 0C18.1117 0.000150747 19.0003 0.898148 19.0004 2.00098V10.8057C19.0003 11.9085 18.1117 12.8065 17.0209 12.8066H5.14492C4.05435 12.8064 3.16652 11.9085 3.16641 10.8057V2.00098C3.16648 0.89819 4.05433 0.000218189 5.14492 0H17.0209ZM5.14492 1.60059C4.9267 1.6008 4.74947 1.78017 4.74941 2.00098V9.55566L6.93496 7.34766C7.47569 6.80049 8.35647 6.8004 8.89785 7.34766L9.85586 8.31348L12.7963 4.74609C13.0591 4.42749 13.4438 4.24257 13.8539 4.24023C14.2662 4.24972 14.6501 4.41812 14.9154 4.73242L17.4164 7.68359V2.00098C17.4163 1.78014 17.2393 1.60074 17.0209 1.60059H5.14492ZM7.12441 2.40137C7.99769 2.40137 8.7084 3.1191 8.7084 4.00195C8.70836 4.88478 7.99767 5.60254 7.12441 5.60254C6.2513 5.60241 5.54145 4.88466 5.54141 4.00195C5.54141 3.11921 6.25124 2.40149 7.12441 2.40137Z" fill="#73A8AE"/>
</svg>
