<svg width="22" height="22" viewBox="0 0 22 22" fill="none" xmlns="http://www.w3.org/2000/svg">
<path opacity="0.4" d="M14.8407 1.83325H7.16825C3.82242 1.83325 1.83325 3.82242 1.83325 7.15908V14.8316C1.83325 18.1683 3.82242 20.1574 7.15909 20.1574H14.8316C18.1683 20.1574 20.1574 18.1683 20.1574 14.8316V7.15908C20.1666 3.82242 18.1774 1.83325 14.8407 1.83325Z" fill="url(#paint0_linear_115_619)"/>
<path d="M15.9041 8.29589L13.7591 15.2075C13.2458 16.8484 10.945 16.8759 10.4041 15.2442L9.76248 13.3467C9.58831 12.8242 9.17581 12.4026 8.65331 12.2376L6.74664 11.5959C5.12414 11.0551 5.15164 8.73588 6.79248 8.24088L13.7041 6.08672C15.0608 5.67422 16.335 6.94839 15.9041 8.29589Z" fill="url(#paint1_linear_115_619)"/>
<defs>
<linearGradient id="paint0_linear_115_619" x1="20.1574" y1="11.654" x2="1.83325" y2="11.8014" gradientUnits="userSpaceOnUse">
<stop stop-color="#57A2A7"/>
<stop offset="1" stop-color="#88B388"/>
</linearGradient>
<linearGradient id="paint1_linear_115_619" x1="15.9894" y1="11.606" x2="5.54565" y2="11.69" gradientUnits="userSpaceOnUse">
<stop stop-color="#57A2A7"/>
<stop offset="1" stop-color="#88B388"/>
</linearGradient>
</defs>
</svg>
