<svg width="22" height="22" viewBox="0 0 22 22" fill="none" xmlns="http://www.w3.org/2000/svg">
<path opacity="0.4" d="M14.8407 1.83337H7.16825C3.82242 1.83337 1.83325 3.82254 1.83325 7.15921V14.8317C1.83325 18.1684 3.82242 20.1575 7.15909 20.1575H14.8316C18.1683 20.1575 20.1574 18.1684 20.1574 14.8317V7.15921C20.1666 3.82254 18.1774 1.83337 14.8407 1.83337Z" fill="#155D5A"/>
<path d="M15.9041 8.29589L13.7591 15.2075C13.2458 16.8484 10.945 16.8759 10.4041 15.2442L9.76248 13.3467C9.58831 12.8242 9.17581 12.4026 8.65331 12.2376L6.74664 11.5959C5.12414 11.0551 5.15164 8.73588 6.79248 8.24088L13.7041 6.08672C15.0608 5.67422 16.335 6.94839 15.9041 8.29589Z" fill="#155D5A"/>
</svg>
