<svg width="26" height="26" viewBox="0 0 26 26" fill="none" xmlns="http://www.w3.org/2000/svg">
<path d="M2.16797 9.74984V7.0415C2.16797 4.344 4.34547 2.1665 7.04297 2.1665H9.7513" stroke="#73A8AE" stroke-width="1.5" stroke-linecap="round" stroke-linejoin="round"/>
<path d="M16.25 2.1665H18.9583C21.6558 2.1665 23.8333 4.344 23.8333 7.0415V9.74984" stroke="#73A8AE" stroke-width="1.5" stroke-linecap="round" stroke-linejoin="round"/>
<path d="M23.832 17.3335V18.9585C23.832 21.656 21.6545 23.8335 18.957 23.8335H17.332" stroke="#73A8AE" stroke-width="1.5" stroke-linecap="round" stroke-linejoin="round"/>
<path d="M9.7513 23.8333H7.04297C4.34547 23.8333 2.16797 21.6558 2.16797 18.9583V16.25" stroke="#73A8AE" stroke-width="1.5" stroke-linecap="round" stroke-linejoin="round"/>
<path d="M18.4154 10.2915V15.7082C18.4154 17.8748 17.332 18.9582 15.1654 18.9582H10.832C8.66536 18.9582 7.58203 17.8748 7.58203 15.7082V10.2915C7.58203 8.12484 8.66536 7.0415 10.832 7.0415H15.1654C17.332 7.0415 18.4154 8.12484 18.4154 10.2915Z" stroke="#73A8AE" stroke-width="1.5" stroke-linecap="round" stroke-linejoin="round"/>
<path d="M20.5846 13H5.41797" stroke="#73A8AE" stroke-width="1.5" stroke-linecap="round" stroke-linejoin="round"/>
</svg>
