<svg width="25" height="24" viewBox="0 0 25 24" fill="none" xmlns="http://www.w3.org/2000/svg">
    <path opacity="0.4"
        d="M16.69 2H8.31C4.67 2 2.5 4.17 2.5 7.81V16.18C2.5 19.83 4.67 22 8.31 22H16.68C20.32 22 22.49 19.83 22.49 16.19V7.81C22.5 4.17 20.33 2 16.69 2Z"
        fill="#57A2A7" />
    <path
        d="M12.5 13C11.94 13 11.5 12.55 11.5 12C11.5 11.45 11.95 11 12.5 11C13.05 11 13.5 11.45 13.5 12C13.5 12.55 13.06 13 12.5 13Z"
        fill="#57A2A7" />
    <path
        d="M16.5 13C15.94 13 15.5 12.55 15.5 12C15.5 11.45 15.95 11 16.5 11C17.05 11 17.5 11.45 17.5 12C17.5 12.55 17.06 13 16.5 13Z"
        fill="#57A2A7" />
    <path
        d="M8.5 13C7.94 13 7.5 12.55 7.5 12C7.5 11.45 7.95 11 8.5 11C9.05 11 9.5 11.45 9.5 12C9.5 12.55 9.06 13 8.5 13Z"
        fill="#57A2A7" />
</svg>
