<svg width="25" height="24" viewBox="0 0 25 24" fill="none" xmlns="http://www.w3.org/2000/svg">
    <path opacity="0.4"
        d="M22.51 15.92L16.11 4.4C15.25 2.85 14.06 2 12.75 2C11.44 2 10.25 2.85 9.38998 4.4L2.98998 15.92C2.17998 17.39 2.08998 18.8 2.73998 19.91C3.38998 21.02 4.66998 21.63 6.34998 21.63H19.15C20.83 21.63 22.11 21.02 22.76 19.91C23.41 18.8 23.32 17.38 22.51 15.92Z"
        fill="#57A2A7" />
    <path
        d="M12.75 14.75C12.34 14.75 12 14.41 12 14V9C12 8.59 12.34 8.25 12.75 8.25C13.16 8.25 13.5 8.59 13.5 9V14C13.5 14.41 13.16 14.75 12.75 14.75Z"
        fill="#57A2A7" />
    <path
        d="M12.75 18.0001C12.69 18.0001 12.62 17.9901 12.55 17.9801C12.49 17.9701 12.43 17.9501 12.37 17.9201C12.31 17.9001 12.25 17.8701 12.19 17.8301C12.14 17.7901 12.09 17.7501 12.04 17.7101C11.86 17.5201 11.75 17.2601 11.75 17.0001C11.75 16.7401 11.86 16.4801 12.04 16.2901C12.09 16.2501 12.14 16.2101 12.19 16.1701C12.25 16.1301 12.31 16.1001 12.37 16.0801C12.43 16.0501 12.49 16.0301 12.55 16.0201C12.68 15.9901 12.82 15.9901 12.94 16.0201C13.01 16.0301 13.07 16.0501 13.13 16.0801C13.19 16.1001 13.25 16.1301 13.31 16.1701C13.36 16.2101 13.41 16.2501 13.46 16.2901C13.64 16.4801 13.75 16.7401 13.75 17.0001C13.75 17.2601 13.64 17.5201 13.46 17.7101C13.41 17.7501 13.36 17.7901 13.31 17.8301C13.25 17.8701 13.19 17.9001 13.13 17.9201C13.07 17.9501 13.01 17.9701 12.94 17.9801C12.88 17.9901 12.81 18.0001 12.75 18.0001Z"
        fill="#57A2A7" />
</svg>
