<svg width="25" height="24" viewBox="0 0 25 24" fill="none" xmlns="http://www.w3.org/2000/svg">
    <path opacity="0.4"
        d="M20.9 16.33C20.62 17.08 20.03 17.65 19.26 17.91C18.18 18.27 17.07 18.54 15.95 18.73C15.84 18.75 15.73 18.7701 15.62 18.7801C15.44 18.8101 15.26 18.83 15.08 18.85C14.86 18.8801 14.63 18.9 14.4 18.92C13.77 18.97 13.15 19 12.52 19C11.88 19 11.24 18.97 10.61 18.91C10.34 18.89 10.08 18.8601 9.81996 18.82C9.66996 18.8 9.51996 18.7801 9.37996 18.76C9.26996 18.74 9.15996 18.73 9.04996 18.71C7.93996 18.53 6.83996 18.26 5.76996 17.9C4.96996 17.63 4.35996 17.06 4.08996 16.33C3.81996 15.61 3.91996 14.77 4.34996 14.05L5.47996 12.17C5.71996 11.76 5.93996 10.97 5.93996 10.49V8.63005C5.93996 5.00005 8.88996 2.05005 12.52 2.05005C16.14 2.05005 19.09 5.00005 19.09 8.63005V10.49C19.09 10.97 19.31 11.76 19.56 12.17L20.69 14.05C21.1 14.75 21.18 15.57 20.9 16.33Z"
        fill="#57A2A7" />
    <path
        d="M12.5 10.76C12.08 10.76 11.74 10.42 11.74 10V6.90001C11.74 6.48001 12.08 6.14001 12.5 6.14001C12.92 6.14001 13.26 6.48001 13.26 6.90001V10C13.25 10.42 12.91 10.76 12.5 10.76Z"
        fill="#57A2A7" />
    <path
        d="M15.3299 20.01C14.9099 21.17 13.7999 22 12.4999 22C11.7099 22 10.9299 21.68 10.3799 21.11C10.0599 20.81 9.81993 20.41 9.67993 20C9.80993 20.02 9.93993 20.03 10.0799 20.05C10.3099 20.08 10.5499 20.11 10.7899 20.13C11.3599 20.18 11.9399 20.21 12.5199 20.21C13.0899 20.21 13.6599 20.18 14.2199 20.13C14.4299 20.11 14.6399 20.1 14.8399 20.07C14.9999 20.05 15.1599 20.03 15.3299 20.01Z"
        fill="#57A2A7" />
</svg>
