<svg width="22" height="22" viewBox="0 0 22 22" fill="none" xmlns="http://www.w3.org/2000/svg">
<path opacity="0.4" d="M18.7092 6.38007V8.9834L6.78339 17.7284L4.37256 15.9226C3.77673 15.4734 3.29089 14.5109 3.29089 13.7684V6.38007C3.29089 5.3534 4.07923 4.21674 5.04173 3.85924L10.0559 1.98007C10.5784 1.78757 11.4217 1.78757 11.9442 1.98007L16.9584 3.85924C17.9209 4.21674 18.7092 5.3534 18.7092 6.38007Z" fill="#155D5A"/>
<path d="M18.7092 10.2393V13.7684C18.7092 14.5109 18.2234 15.4734 17.6275 15.9226L12.6134 19.6718C12.1734 20.0018 11.5867 20.1668 11 20.1668C10.4134 20.1668 9.82671 20.0018 9.38671 19.6718L7.62671 18.3609L18.7092 10.2393Z" fill="#155D5A"/>
</svg>
