<svg width="22" height="22" viewBox="0 0 22 22" fill="none" xmlns="http://www.w3.org/2000/svg">
<path opacity="0.4" d="M14.8409 2.13586H7.16836C3.83169 2.13586 1.84253 4.12503 1.84253 7.4617V15.1342C1.84253 18.4709 3.83169 20.46 7.16836 20.46H14.8409C18.1775 20.46 20.1667 18.4709 20.1667 15.1342V7.47086C20.1667 4.1342 18.1775 2.13586 14.8409 2.13586Z" fill="url(#paint0_linear_645_404)"/>
<path d="M15.0333 7.52584L11.5867 5.665C11.22 5.4725 10.7892 5.4725 10.4225 5.665L6.97582 7.52584C6.72832 7.66334 6.57251 7.92917 6.57251 8.23167C6.57251 8.53417 6.72832 8.80001 6.97582 8.93751L10.4225 10.7983C10.6058 10.8992 10.8075 10.945 11.0092 10.945C11.2108 10.945 11.4125 10.8992 11.5958 10.7983L15.0425 8.93751C15.29 8.80001 15.4458 8.53417 15.4458 8.23167C15.4367 7.92917 15.2808 7.66334 15.0333 7.52584Z" fill="url(#paint1_linear_645_404)"/>
<path d="M9.84489 11.4309L6.63656 9.82672C6.38906 9.70756 6.10489 9.71672 5.86656 9.86339C5.62823 10.0101 5.49072 10.2576 5.49072 10.5326V13.5667C5.49072 14.0892 5.78407 14.5659 6.25157 14.7951L9.45991 16.3992C9.56991 16.4542 9.68906 16.4817 9.81739 16.4817C9.96406 16.4817 10.1016 16.4451 10.2299 16.3626C10.4682 16.2159 10.6057 15.9684 10.6057 15.6934V12.6592C10.6057 12.1367 10.3216 11.6692 9.84489 11.4309Z" fill="url(#paint2_linear_645_404)"/>
<path d="M16.1242 9.86339C15.8858 9.71672 15.6017 9.70756 15.3542 9.82672L12.1458 11.4309C11.6783 11.6692 11.385 12.1367 11.385 12.6592V15.6934C11.385 15.9684 11.5225 16.2159 11.7608 16.3626C11.8892 16.4451 12.0267 16.4817 12.1733 16.4817C12.2925 16.4817 12.4117 16.4542 12.5308 16.3992L15.7392 14.7951C16.2067 14.5567 16.5 14.0892 16.5 13.5667V10.5326C16.5 10.2576 16.3625 10.0101 16.1242 9.86339Z" fill="url(#paint3_linear_645_404)"/>
<defs>
<linearGradient id="paint0_linear_645_404" x1="20.1667" y1="11.9566" x2="1.84253" y2="12.1041" gradientUnits="userSpaceOnUse">
<stop stop-color="#57A2A7"/>
<stop offset="1" stop-color="#88B388"/>
</linearGradient>
<linearGradient id="paint1_linear_645_404" x1="15.4458" y1="8.42779" x2="6.57347" y2="8.54459" gradientUnits="userSpaceOnUse">
<stop stop-color="#57A2A7"/>
<stop offset="1" stop-color="#88B388"/>
</linearGradient>
<linearGradient id="paint2_linear_645_404" x1="10.6057" y1="13.3553" x2="5.49058" y2="13.3866" gradientUnits="userSpaceOnUse">
<stop stop-color="#57A2A7"/>
<stop offset="1" stop-color="#88B388"/>
</linearGradient>
<linearGradient id="paint3_linear_645_404" x1="16.5" y1="13.3553" x2="11.3849" y2="13.3866" gradientUnits="userSpaceOnUse">
<stop stop-color="#57A2A7"/>
<stop offset="1" stop-color="#88B388"/>
</linearGradient>
</defs>
</svg>
