<svg width="22" height="22" viewBox="0 0 22 22" fill="none" xmlns="http://www.w3.org/2000/svg">
<path opacity="0.4" d="M14.8406 2.13586H7.16812C3.83145 2.13586 1.84229 4.12503 1.84229 7.4617V15.1342C1.84229 18.4709 3.83145 20.46 7.16812 20.46H14.8406C18.1773 20.46 20.1664 18.4709 20.1664 15.1342V7.47086C20.1664 4.1342 18.1773 2.13586 14.8406 2.13586Z" fill="#155D5A"/>
<path d="M15.0336 7.52584L11.5869 5.665C11.2203 5.4725 10.7894 5.4725 10.4227 5.665L6.97606 7.52584C6.72856 7.66334 6.57275 7.92917 6.57275 8.23167C6.57275 8.53417 6.72856 8.80001 6.97606 8.93751L10.4227 10.7983C10.6061 10.8992 10.8078 10.945 11.0094 10.945C11.2111 10.945 11.4127 10.8992 11.5961 10.7983L15.0427 8.93751C15.2902 8.80001 15.4461 8.53417 15.4461 8.23167C15.4369 7.92917 15.2811 7.66334 15.0336 7.52584Z" fill="#155D5A"/>
<path d="M9.84489 11.4309L6.63656 9.82672C6.38906 9.70756 6.10489 9.71672 5.86656 9.86339C5.62823 10.0101 5.49072 10.2576 5.49072 10.5326V13.5667C5.49072 14.0892 5.78407 14.5659 6.25157 14.7951L9.45991 16.3992C9.56991 16.4542 9.68906 16.4817 9.81739 16.4817C9.96406 16.4817 10.1016 16.4451 10.2299 16.3626C10.4682 16.2159 10.6057 15.9684 10.6057 15.6934V12.6592C10.6057 12.1367 10.3216 11.6692 9.84489 11.4309Z" fill="#155D5A"/>
<path d="M16.1244 9.86339C15.8861 9.71672 15.6019 9.70756 15.3544 9.82672L12.1461 11.4309C11.6786 11.6692 11.3853 12.1367 11.3853 12.6592V15.6934C11.3853 15.9684 11.5227 16.2159 11.7611 16.3626C11.8894 16.4451 12.0269 16.4817 12.1736 16.4817C12.2927 16.4817 12.4119 16.4542 12.5311 16.3992L15.7394 14.7951C16.2069 14.5567 16.5002 14.0892 16.5002 13.5667V10.5326C16.5002 10.2576 16.3627 10.0101 16.1244 9.86339Z" fill="#155D5A"/>
</svg>
