<svg width="58" height="65" viewBox="0 0 58 65" fill="none" xmlns="http://www.w3.org/2000/svg">
<path d="M50.9198 12.6391C47.0289 12.2524 43.1381 11.9624 39.2231 11.7449V11.7208L38.6914 8.57909C38.3289 6.35575 37.7973 3.02075 32.1423 3.02075H25.8106C20.1798 3.02075 19.6481 6.21075 19.2614 8.55492L18.7539 11.6483C16.5064 11.7933 14.2589 11.9383 12.0114 12.1558L7.08142 12.6391C6.06642 12.7358 5.34142 13.6299 5.43808 14.6208C5.53475 15.6116 6.40475 16.3366 7.41975 16.2399L12.3498 15.7566C25.0131 14.4999 37.7731 14.9833 50.5814 16.2641C50.6539 16.2641 50.7023 16.2641 50.7748 16.2641C51.6931 16.2641 52.4906 15.5633 52.5873 14.6208C52.6598 13.6299 51.9348 12.7358 50.9198 12.6391Z" fill="#73A8AE"/>
<path d="M46.4712 19.6717C45.8912 19.0676 45.0937 18.7292 44.2721 18.7292H13.7254C12.9037 18.7292 12.0821 19.0676 11.5262 19.6717C10.9704 20.2759 10.6562 21.0976 10.7046 21.9434L12.2029 46.7384C12.4687 50.4117 12.8071 55.0034 21.2412 55.0034H36.7562C45.1904 55.0034 45.5287 50.4359 45.7946 46.7384L47.2929 21.9676C47.3412 21.0976 47.0271 20.2759 46.4712 19.6717Z" fill="#73A8AE"/>
<path fill-rule="evenodd" clip-rule="evenodd" d="M23.1526 41.0833C23.1526 40.0822 23.9641 39.2708 24.9651 39.2708H33.0126C34.0136 39.2708 34.8251 40.0822 34.8251 41.0833C34.8251 42.0843 34.0136 42.8958 33.0126 42.8958H24.9651C23.9641 42.8958 23.1526 42.0843 23.1526 41.0833Z" fill="white"/>
<path fill-rule="evenodd" clip-rule="evenodd" d="M21.1459 31.4167C21.1459 30.4157 21.9574 29.6042 22.9584 29.6042H35.0417C36.0427 29.6042 36.8542 30.4157 36.8542 31.4167C36.8542 32.4178 36.0427 33.2292 35.0417 33.2292H22.9584C21.9574 33.2292 21.1459 32.4178 21.1459 31.4167Z" fill="white"/>
<circle cx="42" cy="49" r="16" fill="white"/>
<path opacity="0.4" d="M42 59C47.5228 59 52 54.5228 52 49C52 43.4772 47.5228 39 42 39C36.4772 39 32 43.4772 32 49C32 54.5228 36.4772 59 42 59Z" fill="#57A2A7"/>
<path d="M40.5799 52.5801C40.3799 52.5801 40.1899 52.5001 40.0499 52.3601L37.2199 49.5301C36.9299 49.2401 36.9299 48.7601 37.2199 48.4701C37.5099 48.1801 37.9899 48.1801 38.2799 48.4701L40.5799 50.7701L45.7199 45.6301C46.0099 45.3401 46.4899 45.3401 46.7799 45.6301C47.0699 45.9201 47.0699 46.4001 46.7799 46.6901L41.1099 52.3601C40.9699 52.5001 40.7799 52.5801 40.5799 52.5801Z" fill="#57A2A7"/>
</svg>
