<svg width="22" height="22" viewBox="0 0 22 22" fill="none" xmlns="http://www.w3.org/2000/svg">
<path d="M11 12.6042C10.6242 12.6042 10.3125 12.2925 10.3125 11.9167V7.33337C10.3125 6.95754 10.6242 6.64587 11 6.64587C11.3758 6.64587 11.6875 6.95754 11.6875 7.33337V11.9167C11.6875 12.2925 11.3758 12.6042 11 12.6042Z" fill="#155D5A"/>
<path d="M13.6493 3.16254H8.35092C7.98425 3.16254 7.69092 2.86921 7.69092 2.50254C7.69092 2.13587 7.98425 1.83337 8.35092 1.83337H13.6493C14.0159 1.83337 14.3093 2.12671 14.3093 2.49337C14.3093 2.86004 14.0159 3.16254 13.6493 3.16254Z" fill="#155D5A"/>
<path opacity="0.4" d="M13.7502 18.3058V15.6108C13.7502 14.4466 14.4469 13.7499 15.6111 13.7499H18.3061C18.4802 13.7499 18.6361 13.7683 18.7919 13.8049C18.8927 13.2916 18.9477 12.7599 18.9477 12.2191C18.9477 7.83744 15.3819 4.27161 11.0002 4.27161C6.61857 4.27161 3.05273 7.83744 3.05273 12.2191C3.05273 16.6008 6.61857 20.1666 11.0002 20.1666C12.1094 20.1666 13.1636 19.9374 14.1261 19.5249C13.8877 19.2133 13.7502 18.8099 13.7502 18.3058Z" fill="#155D5A"/>
<path d="M18.3058 13.75H15.6108C14.4467 13.75 13.75 14.4467 13.75 15.6108V18.3058C13.75 19.47 14.4467 20.1667 15.6108 20.1667H18.3058C19.47 20.1667 20.1667 19.47 20.1667 18.3058V15.6108C20.1667 14.4467 19.47 13.75 18.3058 13.75ZM18.0492 17.8383L16.9675 18.4617C16.7475 18.59 16.5275 18.6542 16.3258 18.6542C16.17 18.6542 16.0325 18.6175 15.9042 18.5442C15.6108 18.37 15.4458 18.0308 15.4458 17.5817V16.335C15.4458 15.8858 15.6108 15.5467 15.9042 15.3725C16.1975 15.1983 16.5733 15.235 16.9675 15.455L18.0492 16.0783C18.4342 16.3075 18.6542 16.6192 18.6542 16.9583C18.6542 17.2975 18.4433 17.6092 18.0492 17.8383Z" fill="#155D5A"/>
</svg>
