<svg width="19" height="19" viewBox="0 0 19 19" fill="none" xmlns="http://www.w3.org/2000/svg">
<path opacity="0.4" d="M9.16667 18.3333C14.2293 18.3333 18.3333 14.2293 18.3333 9.16667C18.3333 4.10406 14.2293 0 9.16667 0C4.10406 0 0 4.10406 0 9.16667C0 14.2293 4.10406 18.3333 9.16667 18.3333Z" fill="#73A8AE"/>
<path d="M12.5668 12.7691C12.4476 12.7691 12.3284 12.7416 12.2184 12.6683L9.37677 10.9724C8.67094 10.5508 8.14844 9.62495 8.14844 8.80911V5.05078C8.14844 4.67495 8.4601 4.36328 8.83594 4.36328C9.21177 4.36328 9.52344 4.67495 9.52344 5.05078V8.80911C9.52344 9.13911 9.79844 9.62495 10.0826 9.78995L12.9243 11.4858C13.2543 11.6783 13.3551 12.0999 13.1626 12.4299C13.0251 12.6499 12.7959 12.7691 12.5668 12.7691Z" fill="#73A8AE"/>
</svg>
