<svg width="21" height="21" viewBox="0 0 21 21" fill="none" xmlns="http://www.w3.org/2000/svg">
    <path
        d="M18.4355 4.57625C17.0267 4.43625 15.618 4.33125 14.2005 4.2525V4.24375L14.008 3.10625C13.8767 2.30125 13.6842 1.09375 11.6367 1.09375H9.34422C7.30547 1.09375 7.11297 2.24875 6.97297 3.0975L6.78922 4.2175C5.97547 4.27 5.16172 4.3225 4.34797 4.40125L2.56297 4.57625C2.19547 4.61125 1.93297 4.935 1.96797 5.29375C2.00297 5.6525 2.31797 5.915 2.68547 5.88L4.47047 5.705C9.05547 5.25 13.6755 5.425 18.313 5.88875C18.3392 5.88875 18.3567 5.88875 18.383 5.88875C18.7155 5.88875 19.0042 5.635 19.0392 5.29375C19.0655 4.935 18.803 4.61125 18.4355 4.57625Z"
        fill="#FF0202" />
    <path
        d="M16.8268 7.1225C16.6168 6.90375 16.328 6.78125 16.0305 6.78125H4.97051C4.67301 6.78125 4.37551 6.90375 4.17426 7.1225C3.97301 7.34125 3.85926 7.63875 3.87676 7.945L4.41926 16.9225C4.51551 18.2525 4.63801 19.915 7.69176 19.915H13.3093C16.363 19.915 16.4855 18.2613 16.5818 16.9225L17.1243 7.95375C17.1418 7.63875 17.028 7.34125 16.8268 7.1225Z"
        fill="#FF0202" />
    <path fill-rule="evenodd" clip-rule="evenodd"
        d="M8.38281 14.875C8.38281 14.5126 8.67663 14.2188 9.03906 14.2188H11.9528C12.3152 14.2188 12.6091 14.5126 12.6091 14.875C12.6091 15.2374 12.3152 15.5312 11.9528 15.5312H9.03906C8.67663 15.5312 8.38281 15.2374 8.38281 14.875Z"
        fill="white" />
    <path fill-rule="evenodd" clip-rule="evenodd"
        d="M7.65625 11.375C7.65625 11.0126 7.95006 10.7188 8.3125 10.7188H12.6875C13.0499 10.7188 13.3438 11.0126 13.3438 11.375C13.3438 11.7374 13.0499 12.0312 12.6875 12.0312H8.3125C7.95006 12.0312 7.65625 11.7374 7.65625 11.375Z"
        fill="white" />
</svg>
