<svg width="20" height="20" viewBox="0 0 20 20" fill="none" xmlns="http://www.w3.org/2000/svg">
<path d="M17.5574 4.35866C16.2157 4.22533 14.8741 4.12533 13.5241 4.05033V4.04199L13.3407 2.95866C13.2157 2.19199 13.0324 1.04199 11.0824 1.04199H8.89907C6.95741 1.04199 6.77407 2.14199 6.64074 2.95033L6.46574 4.01699C5.69074 4.06699 4.91574 4.11699 4.14074 4.19199L2.44074 4.35866C2.09074 4.39199 1.84074 4.70033 1.87407 5.04199C1.90741 5.38366 2.20741 5.63366 2.55741 5.60033L4.25741 5.43366C8.62407 5.00033 13.0241 5.16699 17.4407 5.60866C17.4657 5.60866 17.4824 5.60866 17.5074 5.60866C17.8241 5.60866 18.0991 5.36699 18.1324 5.04199C18.1574 4.70033 17.9074 4.39199 17.5574 4.35866Z" fill="#73A8AE"/>
<path d="M16.0264 6.78301C15.8264 6.57467 15.5514 6.45801 15.2681 6.45801H4.73475C4.45142 6.45801 4.16809 6.57467 3.97642 6.78301C3.78475 6.99134 3.67642 7.27467 3.69309 7.56634L4.20975 16.1163C4.30142 17.383 4.41809 18.9663 7.32642 18.9663H12.6764C15.5848 18.9663 15.7014 17.3913 15.7931 16.1163L16.3098 7.57467C16.3264 7.27467 16.2181 6.99134 16.0264 6.78301Z" fill="#73A8AE"/>
<path fill-rule="evenodd" clip-rule="evenodd" d="M7.98438 14.167C7.98438 13.8218 8.2642 13.542 8.60938 13.542H11.3844C11.7296 13.542 12.0094 13.8218 12.0094 14.167C12.0094 14.5122 11.7296 14.792 11.3844 14.792H8.60938C8.2642 14.792 7.98438 14.5122 7.98438 14.167Z" fill="white"/>
<path fill-rule="evenodd" clip-rule="evenodd" d="M7.29297 10.833C7.29297 10.4878 7.57279 10.208 7.91797 10.208H12.0846C12.4298 10.208 12.7096 10.4878 12.7096 10.833C12.7096 11.1782 12.4298 11.458 12.0846 11.458H7.91797C7.57279 11.458 7.29297 11.1782 7.29297 10.833Z" fill="white"/>
</svg>
