<svg width="21" height="22" viewBox="0 0 21 22" fill="none" xmlns="http://www.w3.org/2000/svg">
    <path
        d="M18.4364 5.07625C17.0277 4.93625 15.6189 4.83125 14.2014 4.7525V4.74375L14.0089 3.60625C13.8777 2.80125 13.6852 1.59375 11.6377 1.59375H9.3452C7.30645 1.59375 7.11395 2.74875 6.97395 3.5975L6.7902 4.7175C5.97645 4.77 5.1627 4.8225 4.34895 4.90125L2.56395 5.07625C2.19645 5.11125 1.93395 5.435 1.96895 5.79375C2.00395 6.1525 2.31895 6.415 2.68645 6.38L4.47145 6.205C9.05645 5.75 13.6764 5.925 18.3139 6.38875C18.3402 6.38875 18.3577 6.38875 18.3839 6.38875C18.7164 6.38875 19.0052 6.135 19.0402 5.79375C19.0665 5.435 18.8039 5.11125 18.4364 5.07625Z"
        fill="#818CA2" />
    <path
        d="M16.8263 7.6225C16.6163 7.40375 16.3275 7.28125 16.03 7.28125H4.97002C4.67252 7.28125 4.37503 7.40375 4.17378 7.6225C3.97253 7.84125 3.85877 8.13875 3.87627 8.445L4.41878 17.4225C4.51503 18.7525 4.63753 20.415 7.69128 20.415H13.3088C16.3625 20.415 16.485 18.7613 16.5813 17.4225L17.1238 8.45375C17.1413 8.13875 17.0275 7.84125 16.8263 7.6225Z"
        fill="#818CA2" />
    <path fill-rule="evenodd" clip-rule="evenodd"
        d="M8.38232 15.375C8.38232 15.0126 8.67614 14.7188 9.03857 14.7188H11.9523C12.3148 14.7188 12.6086 15.0126 12.6086 15.375C12.6086 15.7374 12.3148 16.0312 11.9523 16.0312H9.03857C8.67614 16.0312 8.38232 15.7374 8.38232 15.375Z"
        fill="white" />
    <path fill-rule="evenodd" clip-rule="evenodd"
        d="M7.65625 11.875C7.65625 11.5126 7.95006 11.2188 8.3125 11.2188H12.6875C13.0499 11.2188 13.3438 11.5126 13.3438 11.875C13.3438 12.2374 13.0499 12.5312 12.6875 12.5312H8.3125C7.95006 12.5312 7.65625 12.2374 7.65625 11.875Z"
        fill="white" />
</svg>
