<svg width="21" height="21" viewBox="0 0 21 21" fill="none" xmlns="http://www.w3.org/2000/svg">
<path d="M18.4363 4.57625C17.0275 4.43625 15.6188 4.33125 14.2013 4.2525V4.24375L14.0088 3.10625C13.8775 2.30125 13.685 1.09375 11.6375 1.09375H9.34502C7.30627 1.09375 7.11377 2.24875 6.97377 3.0975L6.79002 4.2175C5.97627 4.27 5.16252 4.3225 4.34877 4.40125L2.56377 4.57625C2.19627 4.61125 1.93377 4.935 1.96877 5.29375C2.00377 5.6525 2.31877 5.915 2.68627 5.88L4.47127 5.705C9.05627 5.25 13.6763 5.425 18.3138 5.88875C18.34 5.88875 18.3575 5.88875 18.3838 5.88875C18.7163 5.88875 19.005 5.635 19.04 5.29375C19.0663 4.935 18.8038 4.61125 18.4363 4.57625Z" fill="#38C22C"/>
<path d="M16.8263 7.1225C16.6163 6.90375 16.3275 6.78125 16.03 6.78125H4.97002C4.67252 6.78125 4.37502 6.90375 4.17378 7.1225C3.97253 7.34125 3.85877 7.63875 3.87627 7.945L4.41878 16.9225C4.51503 18.2525 4.63753 19.915 7.69127 19.915H13.3088C16.3625 19.915 16.485 18.2613 16.5813 16.9225L17.1238 7.95375C17.1413 7.63875 17.0275 7.34125 16.8263 7.1225Z" fill="#38C22C"/>
<path fill-rule="evenodd" clip-rule="evenodd" d="M8.38245 14.875C8.38245 14.5126 8.67626 14.2188 9.0387 14.2188H11.9524C12.3149 14.2188 12.6087 14.5126 12.6087 14.875C12.6087 15.2374 12.3149 15.5312 11.9524 15.5312H9.0387C8.67626 15.5312 8.38245 15.2374 8.38245 14.875Z" fill="white"/>
<path fill-rule="evenodd" clip-rule="evenodd" d="M7.65631 11.375C7.65631 11.0126 7.95012 10.7188 8.31256 10.7188H12.6876C13.05 10.7188 13.3438 11.0126 13.3438 11.375C13.3438 11.7374 13.05 12.0312 12.6876 12.0312H8.31256C7.95012 12.0312 7.65631 11.7374 7.65631 11.375Z" fill="white"/>
</svg>
