<svg width="25" height="24" viewBox="0 0 25 24" fill="none" xmlns="http://www.w3.org/2000/svg">
    <path d="M15.25 2V12C15.25 13.1 14.35 14 13.25 14H2.25V6C2.25 3.79 4.04 2 6.25 2H15.25Z"
        stroke="#A5A5A8" stroke-width="1.5" stroke-linecap="round" stroke-linejoin="round" />
    <path
        d="M22.25 14V17C22.25 18.66 20.91 20 19.25 20H18.25C18.25 18.9 17.35 18 16.25 18C15.15 18 14.25 18.9 14.25 20H10.25C10.25 18.9 9.35 18 8.25 18C7.15 18 6.25 18.9 6.25 20H5.25C3.59 20 2.25 18.66 2.25 17V14H13.25C14.35 14 15.25 13.1 15.25 12V5H17.09C17.81 5 18.47 5.39001 18.83 6.01001L20.54 9H19.25C18.7 9 18.25 9.45 18.25 10V13C18.25 13.55 18.7 14 19.25 14H22.25Z"
        stroke="#A5A5A8" stroke-width="1.5" stroke-linecap="round" stroke-linejoin="round" />
    <path
        d="M8.25 22C9.35457 22 10.25 21.1046 10.25 20C10.25 18.8954 9.35457 18 8.25 18C7.14543 18 6.25 18.8954 6.25 20C6.25 21.1046 7.14543 22 8.25 22Z"
        stroke="#A5A5A8" stroke-width="1.5" stroke-linecap="round" stroke-linejoin="round" />
    <path
        d="M16.25 22C17.3546 22 18.25 21.1046 18.25 20C18.25 18.8954 17.3546 18 16.25 18C15.1454 18 14.25 18.8954 14.25 20C14.25 21.1046 15.1454 22 16.25 22Z"
        stroke="#A5A5A8" stroke-width="1.5" stroke-linecap="round" stroke-linejoin="round" />
    <path
        d="M22.25 12V14H19.25C18.7 14 18.25 13.55 18.25 13V10C18.25 9.45 18.7 9 19.25 9H20.54L22.25 12Z"
        stroke="#A5A5A8" stroke-width="1.5" stroke-linecap="round" stroke-linejoin="round" />
</svg>
