<svg width="22" height="22" viewBox="0 0 22 22" fill="none" xmlns="http://www.w3.org/2000/svg">
    <path
        d="M13.7499 2.74992V10.9999C13.7499 12.0083 12.9249 12.8333 11.9166 12.8333H1.83325V5.49992C1.83325 3.47409 3.47409 1.83325 5.49992 1.83325H12.8333C13.3374 1.83325 13.7499 2.24575 13.7499 2.74992Z"
        fill="#155D5A" />
    <path opacity="0.4"
        d="M20.1666 12.8333V15.5833C20.1666 17.1049 18.9383 18.3333 17.4166 18.3333H16.4999C16.4999 17.3249 15.6749 16.4999 14.6666 16.4999C13.6583 16.4999 12.8333 17.3249 12.8333 18.3333H9.16659C9.16659 17.3249 8.34159 16.4999 7.33325 16.4999C6.32492 16.4999 5.49992 17.3249 5.49992 18.3333H4.58325C3.06159 18.3333 1.83325 17.1049 1.83325 15.5833V12.8333H11.9166C12.9249 12.8333 13.7499 12.0083 13.7499 10.9999V4.58325H15.4366C16.0966 4.58325 16.7016 4.94076 17.0316 5.50909L18.5991 8.24992H17.4166C16.9124 8.24992 16.4999 8.66242 16.4999 9.16659V11.9166C16.4999 12.4208 16.9124 12.8333 17.4166 12.8333H20.1666Z"
        fill="#155D5A" />
    <path
        d="M7.33333 20.1667C8.34586 20.1667 9.16667 19.3459 9.16667 18.3333C9.16667 17.3208 8.34586 16.5 7.33333 16.5C6.32081 16.5 5.5 17.3208 5.5 18.3333C5.5 19.3459 6.32081 20.1667 7.33333 20.1667Z"
        fill="#155D5A" />
    <path
        d="M14.6666 20.1667C15.6791 20.1667 16.4999 19.3459 16.4999 18.3333C16.4999 17.3208 15.6791 16.5 14.6666 16.5C13.6541 16.5 12.8333 17.3208 12.8333 18.3333C12.8333 19.3459 13.6541 20.1667 14.6666 20.1667Z"
        fill="#155D5A" />
    <path
        d="M20.1667 11.4859V12.8333H17.4167C16.9125 12.8333 16.5 12.4208 16.5 11.9167V9.16667C16.5 8.6625 16.9125 8.25 17.4167 8.25H18.5992L19.9283 10.5783C20.0842 10.8533 20.1667 11.165 20.1667 11.4859Z"
        fill="#155D5A" />
</svg>
