<svg width="33" height="16" viewBox="0 0 33 16" fill="none" xmlns="http://www.w3.org/2000/svg">
<path d="M26.2932 2.79102V10.3584C26.1401 10.3406 25.9808 10.3288 25.8154 10.3288C25.4601 10.3288 25.1171 10.3762 24.7924 10.4769V2.79102H26.2932ZM22.6975 12.2428C22.5015 12.6577 22.3851 13.1199 22.3851 13.6058V13.6473H20.2307V13.2147C20.2307 12.9658 20.0286 12.7703 19.7713 12.7703C19.5201 12.7703 19.3119 12.9658 19.3119 13.2147V13.6473H16.5492V13.2147C16.5492 12.9658 16.3471 12.7703 16.0898 12.7703C15.8386 12.7703 15.6304 12.9658 15.6304 13.2147V13.6473H12.2246V13.6058C12.2246 13.1199 12.1082 12.6577 11.906 12.2428H22.6975ZM27.2121 7.2651V10.6132C27.6286 10.791 27.9962 11.0399 28.3085 11.354H32.1922V7.2651H27.2121ZM29.2335 9.00139H28.3514C28.0942 9.00139 27.892 8.79989 27.892 8.55695C27.892 8.30803 28.0942 8.1125 28.3514 8.1125H29.2335C29.4908 8.1125 29.6929 8.30803 29.6929 8.55695C29.6929 8.79989 29.4908 9.00139 29.2335 9.00139Z" fill="#57585B"/>
<path d="M31.9534 6.37624H27.2122V2.79114H30.3668L31.9534 6.37624Z" fill="#57585B"/>
<path d="M32.1922 12.2429V12.5511L31.2672 13.6473H29.2519V13.6059C29.2519 13.12 29.1355 12.6577 28.9333 12.2429H32.1922ZM5.67009 12.2429C5.47407 12.6577 5.35768 13.12 5.35768 13.6059V13.6473H3.2566L2.2091 12.2429H5.67009ZM11.0239 1.39258L10.6257 2.79701C10.6073 2.89185 10.5706 2.98072 10.5094 3.05182L5.68236 9.10218C5.5721 9.23847 5.4067 9.31551 5.22907 9.31551H1.79257V9.30368C1.77421 9.30368 1.75581 9.31551 1.73746 9.31551H0.885986V11.2296L1.37603 11.354H6.30105C6.93197 10.7199 7.81406 10.3288 8.78805 10.3288C9.76814 10.3288 10.6502 10.7199 11.2751 11.354H21.3517L22.7606 10.1926V1.39258H11.0239Z" fill="#FDB515"/>
<path d="M15.7004 7.44814C15.242 7.44814 14.8618 7.17023 14.8618 6.83511V2.54393C14.8618 2.20881 15.242 1.93091 15.7004 1.93091C16.1588 1.93091 16.5389 2.20881 16.5389 2.54393V6.83511C16.5389 7.17023 16.1588 7.44814 15.7004 7.44814Z" fill="white"/>
<path d="M15.7004 10.4139C15.5914 10.4139 15.4823 10.389 15.3817 10.3477C15.2727 10.3063 15.1888 10.2484 15.105 10.1739C15.0295 10.0911 14.9708 10.0001 14.9205 9.90078C14.8786 9.80147 14.8618 9.69388 14.8618 9.5863C14.8618 9.37113 14.9457 9.15594 15.105 8.9987C15.1888 8.92422 15.2727 8.86632 15.3817 8.82494C15.692 8.69253 16.061 8.76698 16.2958 8.9987C16.3712 9.08146 16.4299 9.16423 16.4718 9.27181C16.5138 9.37112 16.5389 9.47871 16.5389 9.5863C16.5389 9.69388 16.5138 9.80147 16.4718 9.90078C16.4299 10.0001 16.3712 10.0911 16.2958 10.1739C16.1364 10.3311 15.9268 10.4139 15.7004 10.4139Z" fill="white"/>
<path d="M10.1663 1.05479L9.73751 2.56589L5.06365 8.42662H2.71753L7.66091 2.10369C7.73442 2.00889 7.7773 1.89036 7.7773 1.77184V0H9.06367L10.1663 1.05479ZM8.78804 11.2177C7.40365 11.2177 6.27651 12.2903 6.27651 13.6059C6.27651 14.9274 7.40365 15.9999 8.78804 15.9999C10.1785 15.9999 11.3057 14.9274 11.3057 13.6059C11.3057 12.2903 10.1785 11.2177 8.78804 11.2177ZM8.78804 15.1229C7.91818 15.1229 7.20762 14.4414 7.20762 13.6059C7.20762 12.7703 7.91818 12.0948 8.78804 12.0948C9.664 12.0948 10.3684 12.7703 10.3684 13.6059C10.3684 14.4414 9.664 15.1229 8.78804 15.1229Z" fill="#57585B"/>
<path d="M9.44958 13.606C9.44958 13.9497 9.15557 14.2342 8.78804 14.2342C8.42661 14.2342 8.12646 13.9497 8.12646 13.606C8.12646 13.2623 8.42661 12.9838 8.78804 12.9838C9.15557 12.9838 9.44958 13.2623 9.44958 13.606ZM25.8154 11.2179C24.431 11.2179 23.3039 12.2905 23.3039 13.606C23.3039 14.9275 24.431 16.0001 25.8154 16.0001C27.2059 16.0001 28.333 14.9275 28.333 13.606C28.333 12.2905 27.2059 11.2179 25.8154 11.2179ZM25.8154 15.123C24.9456 15.123 24.2411 14.4416 24.2411 13.606C24.2411 12.7705 24.9456 12.0949 25.8154 12.0949C26.6914 12.0949 27.3958 12.7705 27.3958 13.606C27.3958 14.4416 26.6914 15.123 25.8154 15.123Z" fill="#57585B"/>
<path d="M26.4769 13.6059C26.4769 13.9496 26.1829 14.234 25.8154 14.234C25.4539 14.234 25.1599 13.9496 25.1599 13.6059C25.1599 13.2622 25.4539 12.9836 25.8154 12.9836C26.1829 12.9836 26.4769 13.2622 26.4769 13.6059Z" fill="#57585B"/>
</svg>
