<svg width="22" height="22" viewBox="0 0 22 22" fill="none" xmlns="http://www.w3.org/2000/svg">
<path d="M13.7499 2.75004V11C13.7499 12.0084 12.9249 12.8334 11.9166 12.8334H1.83325V5.50004C1.83325 3.47421 3.47409 1.83337 5.49992 1.83337H12.8333C13.3374 1.83337 13.7499 2.24587 13.7499 2.75004Z" fill="url(#paint0_linear_180_197)"/>
<path opacity="0.4" d="M20.1666 12.8334V15.5834C20.1666 17.105 18.9383 18.3334 17.4166 18.3334H16.4999C16.4999 17.325 15.6749 16.5 14.6666 16.5C13.6583 16.5 12.8333 17.325 12.8333 18.3334H9.16659C9.16659 17.325 8.34159 16.5 7.33325 16.5C6.32492 16.5 5.49992 17.325 5.49992 18.3334H4.58325C3.06159 18.3334 1.83325 17.105 1.83325 15.5834V12.8334H11.9166C12.9249 12.8334 13.7499 12.0084 13.7499 11V4.58337H15.4366C16.0966 4.58337 16.7016 4.94088 17.0316 5.50922L18.5991 8.25004H17.4166C16.9124 8.25004 16.4999 8.66254 16.4999 9.16671V11.9167C16.4999 12.4209 16.9124 12.8334 17.4166 12.8334H20.1666Z" fill="url(#paint1_linear_180_197)"/>
<path d="M7.33333 20.1667C8.34586 20.1667 9.16667 19.3459 9.16667 18.3333C9.16667 17.3208 8.34586 16.5 7.33333 16.5C6.32081 16.5 5.5 17.3208 5.5 18.3333C5.5 19.3459 6.32081 20.1667 7.33333 20.1667Z" fill="url(#paint2_linear_180_197)"/>
<path d="M14.6666 20.1667C15.6791 20.1667 16.4999 19.3459 16.4999 18.3333C16.4999 17.3208 15.6791 16.5 14.6666 16.5C13.6541 16.5 12.8333 17.3208 12.8333 18.3333C12.8333 19.3459 13.6541 20.1667 14.6666 20.1667Z" fill="url(#paint3_linear_180_197)"/>
<path d="M20.1667 11.4859V12.8333H17.4167C16.9125 12.8333 16.5 12.4208 16.5 11.9167V9.16667C16.5 8.6625 16.9125 8.25 17.4167 8.25H18.5992L19.9283 10.5783C20.0842 10.8533 20.1667 11.165 20.1667 11.4859Z" fill="url(#paint4_linear_180_197)"/>
<defs>
<linearGradient id="paint0_linear_180_197" x1="13.7499" y1="7.72876" x2="1.83339" y2="7.83265" gradientUnits="userSpaceOnUse">
<stop stop-color="#57A2A7"/>
<stop offset="1" stop-color="#88B388"/>
</linearGradient>
<linearGradient id="paint1_linear_180_197" x1="20.1666" y1="11.9526" x2="1.83418" y2="12.1493" gradientUnits="userSpaceOnUse">
<stop stop-color="#57A2A7"/>
<stop offset="1" stop-color="#88B388"/>
</linearGradient>
<linearGradient id="paint2_linear_180_197" x1="9.16667" y1="18.4651" x2="5.5" y2="18.4946" gradientUnits="userSpaceOnUse">
<stop stop-color="#57A2A7"/>
<stop offset="1" stop-color="#88B388"/>
</linearGradient>
<linearGradient id="paint3_linear_180_197" x1="16.4999" y1="18.4651" x2="12.8333" y2="18.4946" gradientUnits="userSpaceOnUse">
<stop stop-color="#57A2A7"/>
<stop offset="1" stop-color="#88B388"/>
</linearGradient>
<linearGradient id="paint4_linear_180_197" x1="20.1667" y1="10.7064" x2="16.4999" y2="10.73" gradientUnits="userSpaceOnUse">
<stop stop-color="#57A2A7"/>
<stop offset="1" stop-color="#88B388"/>
</linearGradient>
</defs>
</svg>
