<svg width="20" height="20" viewBox="0 0 20 20" fill="none" xmlns="http://www.w3.org/2000/svg">
    <path opacity="0.4"
        d="M17.5666 7.14999V12.85C17.5666 13.7833 17.0666 14.65 16.2583 15.125L11.3083 17.9833C10.5 18.45 9.49993 18.45 8.68327 17.9833L3.73327 15.125C2.92493 14.6583 2.42493 13.7916 2.42493 12.85V7.14999C2.42493 6.21666 2.92493 5.34995 3.73327 4.87495L8.68327 2.01663C9.4916 1.54996 10.4916 1.54996 11.3083 2.01663L16.2583 4.87495C17.0666 5.34995 17.5666 6.20832 17.5666 7.14999Z"
        fill="#155D5A" />
    <path
        d="M10 11.4584C9.65833 11.4584 9.375 11.175 9.375 10.8334V6.45837C9.375 6.11671 9.65833 5.83337 10 5.83337C10.3417 5.83337 10.625 6.11671 10.625 6.45837V10.8334C10.625 11.175 10.3417 11.4584 10 11.4584Z"
        fill="#155D5A" />
    <path
        d="M10 14.375C9.89169 14.375 9.78335 14.3499 9.68335 14.3083C9.57502 14.2666 9.49167 14.2083 9.40834 14.1333C9.33334 14.05 9.27503 13.9583 9.22503 13.8583C9.18336 13.7583 9.16669 13.65 9.16669 13.5416C9.16669 13.325 9.25 13.1083 9.40834 12.9499C9.49167 12.8749 9.57502 12.8166 9.68335 12.775C9.99168 12.6416 10.3584 12.7166 10.5917 12.9499C10.6667 13.0333 10.725 13.1166 10.7667 13.225C10.8083 13.325 10.8334 13.4333 10.8334 13.5416C10.8334 13.65 10.8083 13.7583 10.7667 13.8583C10.725 13.9583 10.6667 14.05 10.5917 14.1333C10.4334 14.2916 10.225 14.375 10 14.375Z"
        fill="#155D5A" />
</svg>
